<svg width="60" height="60" viewBox="0 0 60 60" fill="none" xmlns="http://www.w3.org/2000/svg">
<rect width="60" height="60" rx="5" fill="white"/>
<path d="M53.5625 5.625H14.5625C14.347 5.625 14.1403 5.7106 13.988 5.86298C13.8356 6.01535 13.75 6.22201 13.75 6.4375V17.0731C12.6472 16.8849 11.5132 17.0821 10.5388 17.6316C9.5643 18.1812 8.80878 19.0495 8.39927 20.0906C7.98975 21.1317 7.95122 22.282 8.29015 23.3482C8.62908 24.4144 9.3248 25.3313 10.2603 25.9448C9.01959 25.9822 7.84207 26.5008 6.97694 27.3909C6.11182 28.2811 5.62697 29.4729 5.625 30.7142V37.3352C5.62492 37.4878 5.66778 37.6373 5.74867 37.7666C5.82957 37.8959 5.94524 37.9998 6.08244 38.0665L7.25 38.6352V45.4375C7.25 45.653 7.3356 45.8597 7.48798 46.012C7.64035 46.1644 7.84701 46.25 8.0625 46.25H17.8125C18.028 46.25 18.2347 46.1644 18.387 46.012C18.5394 45.8597 18.625 45.653 18.625 45.4375V38.6336L19.7926 38.0649C19.9298 37.9982 20.0454 37.8943 20.1263 37.765C20.2072 37.6356 20.2501 37.4862 20.25 37.3336V33.25H53.5625C53.778 33.25 53.9846 33.1644 54.137 33.012C54.2894 32.8596 54.375 32.653 54.375 32.4375V6.4375C54.375 6.22201 54.2894 6.01535 54.137 5.86298C53.9846 5.7106 53.778 5.625 53.5625 5.625ZM9.6875 21.875C9.6875 21.2322 9.87811 20.6039 10.2352 20.0694C10.5923 19.5349 11.0999 19.1184 11.6938 18.8724C12.2876 18.6264 12.9411 18.562 13.5715 18.6874C14.202 18.8128 14.7811 19.1224 15.2356 19.5769C15.6901 20.0314 15.9997 20.6105 16.1251 21.241C16.2505 21.8714 16.1861 22.5249 15.9401 23.1187C15.6941 23.7126 15.2776 24.2202 14.7431 24.5773C14.2086 24.9344 13.5803 25.125 12.9375 25.125C12.0755 25.125 11.2489 24.7826 10.6394 24.1731C10.0299 23.5636 9.6875 22.737 9.6875 21.875ZM19.0312 30.6671C18.9079 30.7383 18.8054 30.8407 18.7341 30.9641C18.6628 31.0875 18.6251 31.2274 18.625 31.3699V36.825L17.4574 37.3937C17.3202 37.4604 17.2046 37.5643 17.1237 37.6937C17.0428 37.823 16.9999 37.9725 17 38.125V44.625H8.875V38.125C8.87508 37.9725 8.83222 37.823 8.75133 37.6937C8.67043 37.5643 8.55476 37.4604 8.41756 37.3937L7.25 36.825V30.7142C7.25086 29.8786 7.58319 29.0774 8.17406 28.4866C8.76493 27.8957 9.56607 27.5634 10.4017 27.5625H18.625C18.7411 27.5628 18.8559 27.5378 18.9614 27.4894L25.2761 24.6188C25.4349 24.5466 25.6093 24.5154 25.7833 24.5281C25.9572 24.5408 26.1252 24.5969 26.2719 24.6913C26.4186 24.7857 26.5392 24.9155 26.6227 25.0686C26.7062 25.2217 26.75 25.3934 26.75 25.5678C26.7498 25.7501 26.7018 25.9291 26.6108 26.087C26.5199 26.245 26.3891 26.3764 26.2316 26.4681L19.0312 30.6671ZM52.75 31.625H20.6124L27.0506 27.8729C27.6417 27.5284 28.0779 26.9699 28.2689 26.313C28.4599 25.656 28.3912 24.9508 28.077 24.3431C27.7627 23.7353 27.227 23.2716 26.5805 23.0477C25.934 22.8238 25.2262 22.8569 24.6034 23.1401L18.4487 25.9375H15.6269C16.3195 25.4803 16.8837 24.8536 17.2658 24.1168C17.648 23.3801 17.8353 22.5579 17.8101 21.7284C17.7848 20.8988 17.5478 20.0895 17.1216 19.3774C16.6954 18.6653 16.0942 18.074 15.375 17.6597V7.25H52.75V31.625Z" fill="url(#paint0_linear_1513_1513)"/>
<path d="M51.125 11.3125H36.5V12.9375H51.125V11.3125Z" fill="url(#paint1_linear_1513_1513)"/>
<path d="M51.125 16.1875H30V17.8125H51.125V16.1875Z" fill="url(#paint2_linear_1513_1513)"/>
<path d="M51.125 21.875H30V23.5H51.125V21.875Z" fill="url(#paint3_linear_1513_1513)"/>
<path d="M51.125 27.5625H30V29.1875H51.125V27.5625Z" fill="url(#paint4_linear_1513_1513)"/>
<path d="M20.25 52.5875V53.5625C20.25 53.778 20.3356 53.9846 20.488 54.137C20.6403 54.2894 20.847 54.375 21.0625 54.375H35.6875C35.903 54.375 36.1096 54.2894 36.262 54.137C36.4144 53.9846 36.5 53.778 36.5 53.5625V52.5875C36.498 51.1371 35.9995 49.7312 35.0874 48.6034C34.1754 47.4757 32.9048 46.6942 31.4869 46.3889C32.0959 45.6681 32.4324 44.7562 32.4375 43.8125C32.4375 42.7351 32.0095 41.7017 31.2476 40.9399C30.4858 40.178 29.4524 39.75 28.375 39.75C27.2976 39.75 26.2642 40.178 25.5024 40.9399C24.7405 41.7017 24.3125 42.7351 24.3125 43.8125C24.3169 44.7573 24.6534 45.6705 25.2631 46.3922C23.8458 46.6974 22.5756 47.4784 21.6636 48.6054C20.7516 49.7325 20.2528 51.1377 20.25 52.5875ZM28.375 41.375C28.8571 41.375 29.3284 41.518 29.7292 41.7858C30.13 42.0536 30.4425 42.4343 30.627 42.8797C30.8114 43.3251 30.8597 43.8152 30.7657 44.288C30.6716 44.7609 30.4395 45.1952 30.0986 45.5361C29.7577 45.877 29.3234 46.1091 28.8505 46.2032C28.3777 46.2972 27.8876 46.2489 27.4422 46.0645C26.9968 45.88 26.6161 45.5675 26.3483 45.1667C26.0805 44.7659 25.9375 44.2946 25.9375 43.8125C25.9375 43.166 26.1943 42.546 26.6514 42.0889C27.1085 41.6318 27.7285 41.375 28.375 41.375ZM26.5875 47.875H30.1625C31.4116 47.8774 32.6089 48.3746 33.4921 49.2579C34.3754 50.1411 34.8726 51.3384 34.875 52.5875V52.75H21.875V52.5875C21.8774 51.3384 22.3746 50.1411 23.2579 49.2579C24.1411 48.3746 25.3384 47.8774 26.5875 47.875Z" fill="url(#paint5_linear_1513_1513)"/>
<path d="M49.3619 46.3922C49.9716 45.6705 50.3081 44.7573 50.3125 43.8125C50.3125 42.7351 49.8845 41.7017 49.1226 40.9399C48.3608 40.178 47.3274 39.75 46.25 39.75C45.1726 39.75 44.1392 40.178 43.3774 40.9399C42.6155 41.7017 42.1875 42.7351 42.1875 43.8125C42.1919 44.7573 42.5284 45.6705 43.1381 46.3922C41.7208 46.6974 40.4506 47.4784 39.5386 48.6054C38.6266 49.7325 38.1278 51.1377 38.125 52.5875V53.5625C38.125 53.778 38.2106 53.9846 38.363 54.137C38.5153 54.2894 38.722 54.375 38.9375 54.375H53.5625C53.778 54.375 53.9846 54.2894 54.137 54.137C54.2894 53.9846 54.375 53.778 54.375 53.5625V52.5875C54.3722 51.1377 53.8734 49.7325 52.9614 48.6054C52.0494 47.4784 50.7792 46.6974 49.3619 46.3922ZM46.25 41.375C46.7321 41.375 47.2034 41.518 47.6042 41.7858C48.005 42.0536 48.3175 42.4343 48.502 42.8797C48.6864 43.3251 48.7347 43.8152 48.6407 44.288C48.5466 44.7609 48.3145 45.1952 47.9736 45.5361C47.6327 45.877 47.1984 46.1091 46.7255 46.2032C46.2527 46.2972 45.7626 46.2489 45.3172 46.0645C44.8718 45.88 44.4911 45.5675 44.2233 45.1667C43.9555 44.7659 43.8125 44.2946 43.8125 43.8125C43.8125 43.166 44.0693 42.546 44.5264 42.0889C44.9835 41.6318 45.6035 41.375 46.25 41.375ZM52.75 52.75H39.75V52.5875C39.7524 51.3384 40.2496 50.1411 41.1329 49.2579C42.0161 48.3746 43.2134 47.8774 44.4625 47.875H48.0375C49.2866 47.8774 50.4839 48.3746 51.3671 49.2579C52.2504 50.1411 52.7476 51.3384 52.75 52.5875V52.75Z" fill="url(#paint6_linear_1513_1513)"/>
<defs>
<linearGradient id="paint0_linear_1513_1513" x1="19.6295" y1="-3.21094" x2="89.7656" y2="37.2942" gradientUnits="userSpaceOnUse">
<stop offset="0.0416667" stop-color="#E32966"/>
<stop offset="0.484375" stop-color="#70358F"/>
<stop offset="0.932292" stop-color="#1B253F"/>
</linearGradient>
<linearGradient id="paint1_linear_1513_1513" x1="19.6295" y1="-3.21094" x2="89.7656" y2="37.2942" gradientUnits="userSpaceOnUse">
<stop offset="0.0416667" stop-color="#E32966"/>
<stop offset="0.484375" stop-color="#70358F"/>
<stop offset="0.932292" stop-color="#1B253F"/>
</linearGradient>
<linearGradient id="paint2_linear_1513_1513" x1="19.6295" y1="-3.21094" x2="89.7656" y2="37.2942" gradientUnits="userSpaceOnUse">
<stop offset="0.0416667" stop-color="#E32966"/>
<stop offset="0.484375" stop-color="#70358F"/>
<stop offset="0.932292" stop-color="#1B253F"/>
</linearGradient>
<linearGradient id="paint3_linear_1513_1513" x1="19.6295" y1="-3.21094" x2="89.7656" y2="37.2942" gradientUnits="userSpaceOnUse">
<stop offset="0.0416667" stop-color="#E32966"/>
<stop offset="0.484375" stop-color="#70358F"/>
<stop offset="0.932292" stop-color="#1B253F"/>
</linearGradient>
<linearGradient id="paint4_linear_1513_1513" x1="19.6295" y1="-3.21094" x2="89.7656" y2="37.2942" gradientUnits="userSpaceOnUse">
<stop offset="0.0416667" stop-color="#E32966"/>
<stop offset="0.484375" stop-color="#70358F"/>
<stop offset="0.932292" stop-color="#1B253F"/>
</linearGradient>
<linearGradient id="paint5_linear_1513_1513" x1="19.6295" y1="-3.21094" x2="89.7656" y2="37.2942" gradientUnits="userSpaceOnUse">
<stop offset="0.0416667" stop-color="#E32966"/>
<stop offset="0.484375" stop-color="#70358F"/>
<stop offset="0.932292" stop-color="#1B253F"/>
</linearGradient>
<linearGradient id="paint6_linear_1513_1513" x1="19.6295" y1="-3.21094" x2="89.7656" y2="37.2942" gradientUnits="userSpaceOnUse">
<stop offset="0.0416667" stop-color="#E32966"/>
<stop offset="0.484375" stop-color="#70358F"/>
<stop offset="0.932292" stop-color="#1B253F"/>
</linearGradient>
</defs>
</svg>
