<svg width="60" height="60" viewBox="0 0 60 60" fill="none" xmlns="http://www.w3.org/2000/svg">
<rect width="60" height="60" rx="5" fill="white"/>
<g clip-path="url(#clip0_1513_1545)">
<path d="M55.7024 13.5383L46.4602 4.29748C46.2698 4.10705 46.0115 4 45.7422 4H15.5781C13.8981 4 12.5312 5.36683 12.5312 7.04688V8.98306C7.54199 10.9402 4 15.8031 4 21.478C4 22.0388 4.4548 22.4936 5.01562 22.4936H17.4155C17.9763 22.4936 18.4311 22.0388 18.4311 21.478V9.07812C18.4311 8.5173 17.9763 8.0625 17.4155 8.0625C16.4366 8.0625 15.4824 8.16884 14.5625 8.36891V7.04688C14.5625 6.48686 15.0181 6.03125 15.5781 6.03125H44.7266V12.2266C44.7266 13.9066 46.0934 15.2734 47.7734 15.2734H53.9688V52.9531C53.9688 53.5131 53.5131 53.9688 52.9531 53.9688H15.5781C15.0181 53.9688 14.5625 53.5131 14.5625 52.9531V44.2526C14.5625 43.6917 14.1077 43.2369 13.5469 43.2369C12.986 43.2369 12.5312 43.6917 12.5312 44.2526V52.9531C12.5312 54.6332 13.8981 56 15.5781 56H52.9531C54.6332 56 56 54.6332 56 52.9531V14.2565C56 13.9871 55.893 13.7288 55.7024 13.5383ZM16.3998 10.1387V20.4624H6.07614C6.56171 14.9934 10.9309 10.6243 16.3998 10.1387ZM47.7734 13.2422C47.2134 13.2422 46.7578 12.7866 46.7578 12.2266V7.46734L52.5335 13.2422H47.7734Z" fill="url(#paint0_linear_1513_1545)"/>
<path d="M14.2648 39.8444C14.076 39.6554 13.814 39.5469 13.5469 39.5469C13.2798 39.5469 13.0177 39.6554 12.8288 39.8444C12.6399 40.0334 12.5312 40.2954 12.5312 40.5625C12.5312 40.8296 12.6398 41.0916 12.8288 41.2804C13.0177 41.4695 13.2798 41.5781 13.5469 41.5781C13.814 41.5781 14.076 41.4695 14.2648 41.2804C14.4538 41.0916 14.5625 40.8296 14.5625 40.5625C14.5625 40.2954 14.4538 40.0334 14.2648 39.8444Z" fill="url(#paint1_linear_1513_1545)"/>
<path d="M21.0533 11.7004C20.4924 11.7004 20.0376 12.1552 20.0376 12.716V24.1001H8.65349C8.09266 24.1001 7.63787 24.5549 7.63787 25.1158C7.63787 32.5131 13.656 38.5312 21.0533 38.5312C28.4506 38.5312 34.4687 32.5131 34.4687 25.1158C34.4687 17.7185 28.4506 11.7004 21.0533 11.7004ZM22.0689 13.7766C24.4465 13.9877 26.6159 14.9332 28.3491 16.3837L22.0689 22.6638V13.7766ZM21.0533 36.5C15.1182 36.5 10.2293 31.9349 9.71411 26.1314H21.0533C21.3336 26.1314 21.5873 26.0178 21.7711 25.8342C21.7709 25.8344 21.7712 25.8341 21.7711 25.8342L29.7857 17.8198C31.4403 19.7969 32.4375 22.3421 32.4375 25.1158C32.4375 31.393 27.3305 36.5 21.0533 36.5Z" fill="url(#paint2_linear_1513_1545)"/>
<path d="M48.4918 36.0536C46.8117 36.0536 45.4449 37.4205 45.4449 39.1005C45.4449 39.5216 45.5308 39.9229 45.6859 40.288L39.8346 46.1393C39.4325 45.9434 38.9812 45.8332 38.5046 45.8332C38.0394 45.8332 37.5984 45.9384 37.2036 46.1256L33.318 42.24C33.4527 41.8963 33.5275 41.5227 33.5275 41.1317C33.5275 39.4516 32.1606 38.0848 30.4806 38.0848C28.8005 38.0848 27.4337 39.4516 27.4337 41.1317C27.4337 41.5869 27.5348 42.0187 27.7145 42.407L23.9877 46.1338C23.5907 45.9439 23.1465 45.8374 22.6779 45.8374C20.9978 45.8374 19.631 47.2042 19.631 48.8842C19.631 50.5643 20.9978 51.9311 22.6779 51.9311C24.3579 51.9311 25.7247 50.5643 25.7247 48.8842C25.7247 48.4133 25.6173 47.967 25.4257 47.5686L29.1317 43.8626C29.5387 44.0645 29.9965 44.1785 30.4808 44.1785C31.0277 44.1785 31.5409 44.033 31.985 43.7797L35.761 47.5557C35.5668 47.9563 35.4578 48.4057 35.4578 48.8801C35.4578 50.5601 36.8246 51.9269 38.5046 51.9269C40.1847 51.9269 41.5515 50.5601 41.5515 48.8801C41.5515 48.4171 41.4473 47.9782 41.2618 47.5849L47.0584 41.7883C47.4859 42.0172 47.9739 42.1474 48.4918 42.1474C50.1718 42.1474 51.5387 40.7806 51.5387 39.1005C51.5387 37.4205 50.1718 36.0536 48.4918 36.0536ZM22.6778 49.9C22.1177 49.9 21.6621 49.4443 21.6621 48.8843C21.6621 48.3243 22.1177 47.8687 22.6778 47.8687C22.9504 47.8687 23.1978 47.9773 23.3804 48.1528C23.3844 48.157 23.388 48.1616 23.3921 48.1658C23.397 48.1706 23.4023 48.1747 23.4073 48.1794C23.584 48.3622 23.6934 48.6106 23.6934 48.8843C23.6934 49.4442 23.2378 49.9 22.6778 49.9ZM30.4806 42.1473C29.9206 42.1473 29.465 41.6917 29.465 41.1317C29.465 40.5716 29.9206 40.116 30.4806 40.116C31.0406 40.116 31.4962 40.5716 31.4962 41.1317C31.4962 41.6917 31.0406 42.1473 30.4806 42.1473ZM38.5044 49.8957C37.9444 49.8957 37.4888 49.4401 37.4888 48.8801C37.4888 48.32 37.9444 47.8644 38.5044 47.8644C39.0644 47.8644 39.5201 48.32 39.5201 48.8801C39.5201 49.4401 39.0644 49.8957 38.5044 49.8957ZM48.4916 40.116C47.9316 40.116 47.476 39.6604 47.476 39.1004C47.476 38.5404 47.9317 38.0848 48.4916 38.0848C49.0516 38.0848 49.5072 38.5404 49.5072 39.1004C49.5072 39.6604 49.0516 40.116 48.4916 40.116Z" fill="url(#paint3_linear_1513_1545)"/>
<path d="M43.4154 27.8672H38.055C37.4942 27.8672 37.0394 28.322 37.0394 28.8828C37.0394 29.4436 37.4941 29.8984 38.055 29.8984H43.4154C43.9762 29.8984 44.431 29.4436 44.431 28.8828C44.431 28.322 43.9762 27.8672 43.4154 27.8672Z" fill="url(#paint4_linear_1513_1545)"/>
<path d="M48.7575 28.1648C48.5687 27.9759 48.3066 27.8672 48.0395 27.8672C47.7724 27.8672 47.5104 27.9758 47.3215 28.1648C47.1326 28.3537 47.0239 28.6157 47.0239 28.8828C47.0239 29.1499 47.1325 29.412 47.3215 29.6008C47.5104 29.7897 47.7714 29.8984 48.0395 29.8984C48.3066 29.8984 48.5687 29.7898 48.7575 29.6008C48.9464 29.412 49.0552 29.1499 49.0552 28.8828C49.0552 28.6157 48.9465 28.3537 48.7575 28.1648Z" fill="url(#paint5_linear_1513_1545)"/>
<path d="M50.4613 18.1172H38.055C37.4942 18.1172 37.0394 18.572 37.0394 19.1328C37.0394 19.6936 37.4941 20.1484 38.055 20.1484H50.4613C51.0221 20.1484 51.4769 19.6936 51.4769 19.1328C51.4769 18.572 51.0221 18.1172 50.4613 18.1172Z" fill="url(#paint6_linear_1513_1545)"/>
<path d="M50.4613 22.9922H38.055C37.4942 22.9922 37.0394 23.447 37.0394 24.0078C37.0394 24.5686 37.4941 25.0234 38.055 25.0234H50.4613C51.0221 25.0234 51.4769 24.5686 51.4769 24.0078C51.4769 23.447 51.0221 22.9922 50.4613 22.9922Z" fill="url(#paint7_linear_1513_1545)"/>
</g>
<defs>
<linearGradient id="paint0_linear_1513_1545" x1="18.9382" y1="-5.425" x2="93.75" y2="37.7804" gradientUnits="userSpaceOnUse">
<stop offset="0.0416667" stop-color="#E32966"/>
<stop offset="0.484375" stop-color="#70358F"/>
<stop offset="0.932292" stop-color="#1B253F"/>
</linearGradient>
<linearGradient id="paint1_linear_1513_1545" x1="18.9382" y1="-5.425" x2="93.75" y2="37.7804" gradientUnits="userSpaceOnUse">
<stop offset="0.0416667" stop-color="#E32966"/>
<stop offset="0.484375" stop-color="#70358F"/>
<stop offset="0.932292" stop-color="#1B253F"/>
</linearGradient>
<linearGradient id="paint2_linear_1513_1545" x1="18.9382" y1="-5.425" x2="93.75" y2="37.7804" gradientUnits="userSpaceOnUse">
<stop offset="0.0416667" stop-color="#E32966"/>
<stop offset="0.484375" stop-color="#70358F"/>
<stop offset="0.932292" stop-color="#1B253F"/>
</linearGradient>
<linearGradient id="paint3_linear_1513_1545" x1="18.9382" y1="-5.425" x2="93.75" y2="37.7804" gradientUnits="userSpaceOnUse">
<stop offset="0.0416667" stop-color="#E32966"/>
<stop offset="0.484375" stop-color="#70358F"/>
<stop offset="0.932292" stop-color="#1B253F"/>
</linearGradient>
<linearGradient id="paint4_linear_1513_1545" x1="18.9382" y1="-5.425" x2="93.75" y2="37.7804" gradientUnits="userSpaceOnUse">
<stop offset="0.0416667" stop-color="#E32966"/>
<stop offset="0.484375" stop-color="#70358F"/>
<stop offset="0.932292" stop-color="#1B253F"/>
</linearGradient>
<linearGradient id="paint5_linear_1513_1545" x1="18.9382" y1="-5.425" x2="93.75" y2="37.7804" gradientUnits="userSpaceOnUse">
<stop offset="0.0416667" stop-color="#E32966"/>
<stop offset="0.484375" stop-color="#70358F"/>
<stop offset="0.932292" stop-color="#1B253F"/>
</linearGradient>
<linearGradient id="paint6_linear_1513_1545" x1="18.9382" y1="-5.425" x2="93.75" y2="37.7804" gradientUnits="userSpaceOnUse">
<stop offset="0.0416667" stop-color="#E32966"/>
<stop offset="0.484375" stop-color="#70358F"/>
<stop offset="0.932292" stop-color="#1B253F"/>
</linearGradient>
<linearGradient id="paint7_linear_1513_1545" x1="18.9382" y1="-5.425" x2="93.75" y2="37.7804" gradientUnits="userSpaceOnUse">
<stop offset="0.0416667" stop-color="#E32966"/>
<stop offset="0.484375" stop-color="#70358F"/>
<stop offset="0.932292" stop-color="#1B253F"/>
</linearGradient>
<clipPath id="clip0_1513_1545">
<rect width="52" height="52" fill="white" transform="translate(4 4)"/>
</clipPath>
</defs>
</svg>
