<svg width="60" height="60" viewBox="0 0 60 60" fill="none" xmlns="http://www.w3.org/2000/svg">
<rect width="60" height="60" rx="5" fill="white"/>
<path fill-rule="evenodd" clip-rule="evenodd" d="M22.2985 14.2788C22.232 14.3153 22.0445 14.4126 21.8818 14.495C20.5506 15.1692 19.2095 16.1247 18.1104 17.182C17.2217 18.0369 16.4306 18.9932 15.7745 20.0058L15.6154 20.2513L16.7594 19.7474L16.8706 19.5971C18.1606 17.8527 19.847 16.3758 21.763 15.3127C22.4831 14.9131 23.4275 14.4904 24.2052 14.2195C26.2782 13.4975 28.4826 13.2262 30.6598 13.425L30.8459 13.442L31.9837 12.9245L31.6946 12.8795C30.5002 12.6937 29.2672 12.6469 28.0326 12.7406C26.5175 12.8556 24.9109 13.2186 23.5311 13.7578C23.3679 13.8216 23.1546 13.9026 23.057 13.9377C22.855 14.0106 22.4774 14.1804 22.2985 14.2788ZM15.5155 22.2956C14.9474 22.6475 14.4966 23.1199 14.2262 23.6463C14.1368 23.8204 14.0191 24.1521 13.9834 24.3309C13.9253 24.621 13.927 24.9681 13.9881 25.2813L14.0154 25.4211L15.6782 29.1461C16.8539 31.7799 17.3541 32.8892 17.3859 32.9331C17.5806 33.2021 17.9671 33.2687 18.2579 33.0835C18.4729 32.9467 18.5844 32.7344 18.5704 32.4886L18.5655 32.4016L15.2748 25.0147L15.2649 24.909C15.2506 24.7557 15.2595 24.6403 15.2964 24.5003C15.3894 24.1469 15.659 23.7985 16.0717 23.4984L16.2017 23.4038L18.9987 22.1472C21.0128 21.2422 21.8343 20.8782 21.9339 20.8464C22.5475 20.6506 23.2182 20.7184 23.5751 21.0125C23.7631 21.1674 23.7232 21.0929 24.2948 22.3581L24.8079 23.4936L17.3615 26.8267L17.8955 28.0198L25.3411 24.687L26.2024 26.6108C26.9303 28.2364 27.0716 28.5443 27.1142 28.5966C27.2836 28.8049 27.5372 28.884 27.8018 28.8109C28.134 28.7192 28.3464 28.3819 28.2757 28.0586C28.2642 28.0057 27.7709 26.8955 26.5918 24.2688L24.9243 20.5538L24.8354 20.4362C24.7012 20.2585 24.5786 20.1305 24.4134 19.9956C23.6964 19.4097 22.5832 19.2575 21.5189 19.5997C21.4394 19.6253 20.3528 20.1065 18.5169 20.9293C16.175 21.9788 15.6165 22.233 15.5155 22.2956ZM27.5851 16.9025C26.9153 17.2972 26.3637 17.934 26.1274 18.5852C25.9593 19.0486 25.9301 19.4746 26.0344 19.9415L26.0705 20.1036L28.635 25.8327L28.7318 25.9677C28.864 26.1521 28.9886 26.2849 29.165 26.4296C29.8812 27.0168 30.9919 27.1689 32.0587 26.8258C32.1378 26.8004 33.2286 26.3178 35.0441 25.5053C38.1298 24.1242 38.0083 24.1816 38.3181 23.9588C38.728 23.664 39.0916 23.2578 39.3217 22.8375C39.4008 22.6932 39.5258 22.3741 39.5657 22.2146C39.6558 21.8549 39.6637 21.5142 39.5902 21.1493C39.5622 21.01 39.5488 20.9768 39.208 20.203C38.8329 19.3512 38.7981 19.2826 38.6344 19.0752C38.1649 18.4801 37.3914 18.1427 36.5071 18.1474C36.1825 18.1491 35.8633 18.1947 35.5111 18.2894L35.3131 18.3427L31.2999 20.1391L31.2288 20.2074C31.0222 20.4058 30.9677 20.6884 31.0854 20.9512C31.2073 21.2236 31.4712 21.3716 31.7693 21.3347C31.8381 21.3262 32.0697 21.2263 33.8567 20.4346C35.8533 19.55 35.8676 19.5439 36.003 19.5169C36.4234 19.4333 36.8125 19.4475 37.1141 19.5575C37.2645 19.6123 37.3516 19.6629 37.4719 19.765C37.6298 19.899 37.6479 19.9313 37.9794 20.6712C38.319 21.4292 38.3234 21.4425 38.316 21.695C38.3122 21.8245 38.3018 21.871 38.2413 22.0295C38.2026 22.1308 38.1398 22.2611 38.1018 22.3189C37.9548 22.5427 37.7462 22.7542 37.4978 22.9312L37.3627 23.0277L31.6201 25.5982L31.4679 25.63C30.8374 25.7618 30.3155 25.6777 29.9808 25.3902C29.8023 25.2369 29.9246 25.4894 28.5828 22.5041C27.787 20.7335 27.3589 19.7685 27.338 19.6984C27.1916 19.2062 27.4302 18.6627 27.9856 18.2237C28.0696 18.1573 28.1889 18.0726 28.2507 18.0355C28.3289 17.9886 29.3481 17.5271 31.5983 16.5199C33.8647 15.5053 34.8551 15.0569 34.9055 15.0224C35.2149 14.8106 35.2753 14.3754 35.0367 14.0787C34.8894 13.8956 34.6852 13.8094 34.463 13.8365C34.3689 13.848 34.3189 13.87 31.0265 15.3458C29.138 16.1923 27.6418 16.8691 27.5851 16.9025ZM2.19886 29.6642C1.99308 29.8025 1.89164 30.0124 1.91891 30.2433C1.93316 30.3638 1.96381 30.4319 2.04578 30.5249C2.14809 30.6409 2.28752 30.7071 2.44756 30.7154C2.63648 30.7252 2.33208 30.8554 6.82702 28.8433C9.09781 27.8269 10.9567 26.9983 10.9579 27.0021C10.9591 27.0059 9.72238 29.3901 8.20958 32.3003C6.69678 35.2106 5.44115 37.6314 5.41929 37.68C5.35238 37.8286 5.36113 38.0256 5.44119 38.1729C5.57429 38.4177 5.84251 38.5244 6.13023 38.447C6.25817 38.4126 15.9725 34.0643 16.0841 33.9915C16.2583 33.8779 16.3685 33.693 16.376 33.5017C16.3799 33.404 16.3758 33.3865 16.3214 33.2648C16.2699 33.15 16.254 33.1261 16.1941 33.0748C16.0658 32.9647 15.9117 32.9204 15.719 32.9382L15.6245 32.947L7.33192 36.6432L7.9141 35.5239C8.3567 34.6729 12.7103 26.2905 12.8766 25.9691C12.8964 25.9309 12.91 25.8626 12.9131 25.7852C12.9181 25.6651 12.9166 25.6585 12.8532 25.5169C12.7917 25.3796 12.7838 25.3681 12.7066 25.3044C12.5637 25.1866 12.3652 25.1494 12.1661 25.2032C12.0566 25.2328 2.28536 29.606 2.19886 29.6642ZM40.0939 12.7032C39.7176 12.9126 39.3585 13.1953 39.0609 13.5168C38.5341 14.0858 38.2724 14.7596 38.3423 15.3678C38.3752 15.6543 38.2876 15.447 39.8743 18.992C41.4827 22.5851 41.3459 22.2994 41.5041 22.3942C41.5995 22.4514 41.764 22.4846 41.8798 22.4701C41.9905 22.4562 42.1663 22.3885 42.2569 22.3247C42.4575 22.1835 42.5604 21.9611 42.5255 21.7437C42.5152 21.6793 42.3872 21.385 41.7607 19.985L41.0082 18.3035L48.4538 14.9707L47.9784 13.9088L40.5319 17.242L39.6332 15.2129L39.6273 15.1177C39.6015 14.7032 39.8762 14.2701 40.4224 13.8643L40.5659 13.7576L43.4223 12.4744C46.5393 11.0741 46.4045 11.131 46.7362 11.0746C47.3806 10.9651 47.8845 11.0926 48.1272 11.4266C48.1792 11.4982 48.3845 11.9495 49.6105 14.688C51.1944 18.2259 51.0596 17.9451 51.2221 18.0433C51.3185 18.1016 51.4807 18.1353 51.5953 18.121C51.6385 18.1156 51.7242 18.0926 51.7856 18.07C52.069 17.9656 52.2436 17.7484 52.2498 17.4926L52.2524 17.3856L50.7794 14.0949C49.3633 10.9312 49.3036 10.8004 49.2319 10.7039C49.1909 10.6487 49.1171 10.5613 49.0679 10.5098C48.4537 9.86636 47.3877 9.68404 46.1633 10.013L45.9652 10.0662L43.093 11.3494C41.5133 12.0552 40.1637 12.6644 40.0939 12.7032ZM22.9288 31.8831C22.4924 32.1221 22.1755 32.4055 21.9385 32.7683C21.6124 33.2678 21.5307 33.8067 21.7022 34.328C21.7644 34.5167 24.0513 39.6264 24.1136 39.7157C24.2061 39.8481 24.3356 39.9214 24.4863 39.9265C24.5549 39.9288 24.584 39.9209 24.7041 39.8671C24.8231 39.8137 24.8488 39.7971 24.8859 39.7496C24.9526 39.6643 24.9909 39.5638 24.9947 39.4642L24.9982 39.3736L23.7932 36.6633C22.8112 34.4547 22.587 33.9418 22.5823 33.8927C22.5685 33.7515 22.5903 33.6144 22.6488 33.4738C22.7373 33.2612 22.8757 33.0878 23.096 32.9134C23.2737 32.7727 23.3509 32.7363 25.445 31.8046C27.3375 30.9625 27.4875 30.8977 27.5876 30.8788C28.0965 30.7829 28.486 30.8656 28.7346 31.1226C28.7559 31.1446 28.8971 31.4408 29.1536 32.0016L29.5405 32.8473L24.0517 35.3122L24.4391 36.1774L29.9338 33.7258L31.4516 37.1262C32.4828 39.4366 32.9866 40.5533 33.0231 40.6099C33.1165 40.7545 33.2495 40.8336 33.4119 40.8411C33.52 40.8461 33.6924 40.7763 33.7761 40.6936C33.8582 40.6125 33.9104 40.4953 33.9147 40.3822L33.9182 40.2907L31.8005 35.5497C30.3162 32.2266 29.6641 30.7781 29.6201 30.7065C29.1563 29.9513 28.1096 29.6742 27.0765 30.033C26.9282 30.0844 23.0728 31.8042 22.9288 31.8831ZM42.1148 30.2797L42.191 30.3729C42.6733 30.9621 43.4501 31.1875 44.3362 30.9955L44.4951 30.961L47.4428 29.6458C50.3866 28.3323 50.3905 28.3305 50.4508 28.2713C50.5311 28.1923 50.5833 28.0743 50.5877 27.9618C50.5908 27.8811 50.5846 27.8557 50.5354 27.7458C50.4908 27.6463 50.4685 27.6116 50.4243 27.5733C50.3449 27.5044 50.2369 27.4621 50.1321 27.4586L50.0411 27.4556L47.1402 28.7457C44.2461 30.0328 44.2391 30.0358 44.1082 30.0612C43.6195 30.1561 43.2231 30.0701 42.9894 29.8186C42.9223 29.7463 42.9168 29.7352 42.5139 28.846L42.1064 27.9465L48.0518 25.2852C53.3425 22.917 54.0037 22.6184 54.056 22.5736C54.1309 22.5096 54.1861 22.4098 54.2046 22.3049C54.2511 22.0414 54.0566 21.7677 53.8037 21.7408C53.642 21.7235 54.0491 21.5469 47.6386 24.4161L41.7144 27.0676L40.7638 24.944L47.5529 21.8969L47.6119 21.8263C47.6769 21.7485 47.7134 21.6481 47.7181 21.534C47.7224 21.4292 47.6361 21.233 47.5547 21.1624C47.4342 21.058 47.2801 21.023 47.1165 21.0629C47.0571 21.0774 45.9266 21.5784 43.2656 22.7695L39.4988 24.4556L42.1148 30.2797ZM31.6304 28.0108C30.9938 28.3855 30.5566 28.9651 30.4526 29.5721C30.4198 29.7639 30.4174 29.9276 30.4445 30.1311L30.4631 30.2706L35.8664 42.3772L35.3378 42.6125C34.6873 42.9022 34.2491 43.0665 33.601 43.2637C30.68 44.1523 27.5722 44.1529 24.6564 43.2654C23.9486 43.0499 23.2038 42.7635 22.5795 42.4666L22.4389 42.3997L21.6515 42.7522L21.7512 42.8044C21.806 42.8331 21.9729 42.9159 22.1221 42.9885C23.8113 43.8095 25.6585 44.3323 27.5296 44.5187C29.7625 44.7412 31.9812 44.498 34.1396 43.7943C34.6817 43.6176 35.54 43.2776 35.9311 43.0848L36.1437 42.9799L37.5697 46.147L37.6282 46.1952C37.8717 46.396 38.2509 46.3041 38.3782 46.0135C38.4045 45.9533 38.421 45.8843 38.4214 45.833L38.4219 45.7498L37.708 44.1455C37.3153 43.2631 36.9991 42.5389 37.0054 42.5362C37.0116 42.5334 37.1009 42.4824 37.204 42.4229C39.9135 40.8573 42.1077 38.5312 43.511 35.7366C44.0101 34.7426 44.4601 33.5437 44.7166 32.5245L44.7441 32.4154L43.9567 32.7679L43.9129 32.9173C43.7647 33.4228 43.4783 34.2058 43.2608 34.6998C41.9526 37.6711 39.7934 40.1095 37.0033 41.7663C36.8862 41.8358 36.7741 41.9 36.7541 41.909L36.7178 41.9252L34.0729 36.0157C31.182 29.5566 31.3822 30.0193 31.392 29.8208C31.4067 29.5228 31.6025 29.213 31.9409 28.9523C32.0313 28.8826 32.0935 28.8509 32.5797 28.627C32.9573 28.453 33.1559 28.3677 33.2442 28.3415C33.685 28.2107 34.1557 28.2612 34.4109 28.4668C34.554 28.5821 34.4334 28.3253 36.2164 32.3087C37.4064 34.9671 37.8677 35.9868 37.9011 36.0325C38.0402 36.2229 38.2615 36.2797 38.4802 36.1811C38.5864 36.1332 38.632 36.0974 38.6909 36.0154C38.7429 35.9431 38.7744 35.8447 38.7762 35.7493L38.7776 35.6763L35.4458 28.1976L35.4411 28.11C35.4244 27.7968 35.5689 27.5078 35.88 27.2322C36.0534 27.0786 36.1539 27.0231 36.7036 26.777C37.2772 26.5203 37.3697 26.4892 37.6439 26.4611C38.0479 26.4196 38.3975 26.5362 38.579 26.773C38.6293 26.8386 38.7858 27.1815 39.8259 29.5047C40.9937 32.1131 41.0164 32.1626 41.0789 32.2335C41.2668 32.4467 41.599 32.4372 41.8001 32.2128C41.8754 32.1288 41.9109 32.0344 41.9132 31.9122L41.915 31.817L40.7246 29.1473C39.8756 27.2431 39.5134 26.4424 39.4615 26.3546C39.2154 25.9386 38.8089 25.6551 38.2919 25.539C37.9911 25.4714 37.5626 25.4774 37.225 25.5538C36.9871 25.6077 36.8181 25.6713 36.317 25.8956C35.6616 26.1889 35.4637 26.3059 35.1633 26.5772C34.8861 26.8276 34.7298 27.0409 34.632 27.3022L34.5739 27.4577L34.4259 27.4019C33.9715 27.2305 33.4792 27.2408 32.917 27.4334C32.7383 27.4946 31.7659 27.931 31.6304 28.0108ZM14.1563 35.9117C13.6178 36.2238 13.1887 36.7336 13.0325 37.2467C12.9343 37.5694 12.9292 37.9131 13.018 38.22C13.0368 38.2847 13.1656 38.5877 13.3421 38.9818L13.635 39.6362L7.69086 42.3052L7.63896 42.3643C7.5311 42.4871 7.49445 42.6074 7.51615 42.7674C7.54656 42.9917 7.75776 43.1735 7.99056 43.1757L8.06497 43.1764L14.0284 40.5151L14.4501 41.4572C14.908 42.4801 14.9263 42.5153 15.0978 42.7036C15.5411 43.1901 16.2675 43.3961 17.0368 43.2533C17.3672 43.1919 17.3291 43.2077 19.5636 42.2075C21.8099 41.202 21.775 41.2188 22.0389 41.011C22.499 40.6485 22.8087 40.1616 22.8929 39.6686C22.9271 39.4682 22.9288 39.2969 22.8984 39.0965L22.8767 38.954L22.2782 37.6168L22.1827 37.5021C21.6519 36.8651 20.7145 36.6642 19.7693 36.985C19.6633 37.0209 19.1496 37.2468 18.2135 37.669L16.8159 38.2993L16.758 38.3661C16.6795 38.4567 16.6416 38.5444 16.6381 38.6435C16.6338 38.7636 16.6614 38.8657 16.722 38.9541C16.8176 39.0938 16.9432 39.1606 17.1148 39.1632L17.2032 39.1645L20.1798 37.849L20.3274 37.8247C20.8025 37.7464 21.1798 37.8354 21.4029 38.0783C21.4658 38.1467 21.4841 38.1817 21.68 38.6066C21.9226 39.1326 21.9577 39.2342 21.9535 39.3987C21.946 39.6988 21.7751 39.9803 21.4185 40.28L21.3322 40.3526L19.2222 41.3018C17.346 42.1459 17.099 42.2542 16.992 42.28C16.4905 42.4011 16.0408 42.3135 15.8079 42.0493C15.7459 41.9791 15.7234 41.9303 14.8393 39.9552C13.9552 37.9801 13.9338 37.9307 13.9227 37.8377C13.8835 37.5107 14.0803 37.1532 14.4649 36.8526C14.5642 36.775 14.5752 36.7699 17.0301 35.6625L19.4956 34.5504L19.554 34.483C19.6282 34.3974 19.6675 34.2954 19.6698 34.1827C19.6713 34.1075 19.6635 34.0759 19.6188 33.9759C19.574 33.8759 19.5558 33.8494 19.4992 33.8013C19.4143 33.7292 19.3081 33.6891 19.1962 33.6869L19.1083 33.6851L16.6851 34.7678C15.3524 35.3633 14.2144 35.8781 14.1563 35.9117Z" fill="url(#paint0_linear_1348_1747)"/>
<defs>
<linearGradient id="paint0_linear_1348_1747" x1="16.938" y1="3.24595" x2="76.4274" y2="52.5389" gradientUnits="userSpaceOnUse">
<stop offset="0.0416667" stop-color="#E32966"/>
<stop offset="0.484375" stop-color="#70358F"/>
<stop offset="0.932292" stop-color="#1B253F"/>
</linearGradient>
</defs>
</svg>
