<svg width="60" height="60" viewBox="0 0 60 60" fill="none" xmlns="http://www.w3.org/2000/svg">
<rect width="60" height="60" rx="5" fill="white"/>
<path d="M29.8906 19.5668C31.5444 19.5668 33.1292 18.7333 34.3531 17.2207C35.471 15.8393 36.1119 14.0969 36.1119 12.4388C36.1119 9.0985 33.4377 6.57959 29.8906 6.57959C26.3436 6.57959 23.6694 9.09522 23.6694 12.4388C23.6694 14.0969 24.3103 15.8393 25.4281 17.2207C26.6521 18.7344 28.2369 19.5668 29.8906 19.5668ZM29.8906 8.38428C32.45 8.38428 34.3072 10.0894 34.3072 12.4388C34.3072 15.3919 31.8911 17.7621 29.8906 17.7621C27.4439 17.7621 25.4741 14.8494 25.4741 12.4388C25.4741 10.0938 27.3313 8.38428 29.8906 8.38428Z" fill="url(#paint0_linear_1513_1673)"/>
<path d="M22.5286 28.2271L21.8953 37.2604C21.887 37.3786 21.902 37.4973 21.9396 37.6097C21.9771 37.7221 22.0364 37.826 22.1141 37.9155C22.1918 38.0049 22.2864 38.0782 22.3924 38.1312C22.4984 38.1841 22.6138 38.2156 22.7321 38.224H22.7955C23.0238 38.2237 23.2435 38.1371 23.4105 37.9814C23.5775 37.8258 23.6793 37.6127 23.6956 37.3851L24.3289 28.3594C24.3373 28.2412 24.3222 28.1225 24.2847 28.0101C24.2471 27.8977 24.1878 27.7938 24.1101 27.7043C24.0324 27.6149 23.9379 27.5416 23.8319 27.4886C23.7258 27.4357 23.6104 27.4042 23.4922 27.3958C23.374 27.3875 23.2553 27.4025 23.1429 27.4401C23.0305 27.4776 22.9266 27.5369 22.8371 27.6146C22.7476 27.6923 22.6743 27.7869 22.6214 27.8929C22.5685 27.9989 22.5369 28.1143 22.5286 28.2326V28.2271Z" fill="url(#paint1_linear_1513_1673)"/>
<path d="M42.1286 38.2229C42.3734 38.2012 42.5997 38.0833 42.7577 37.8951C42.9158 37.7069 42.9928 37.4637 42.9719 37.2188C42.9719 37.2188 42.0181 30.3796 41.8781 28.0849C41.6189 23.9647 39.1022 20.6594 35.1702 20.0579C33.7877 19.8457 31.2764 19.686 29.9639 19.6849C28.1723 19.7159 26.3834 19.8397 24.6046 20.0557C22.7603 20.3082 21.0713 21.2238 19.8533 22.6315C18.5736 24.1091 18.0016 25.998 17.8846 28.0893C17.7533 30.3862 16.8838 37.2287 16.8838 37.2287C16.8691 37.3473 16.8782 37.4676 16.9104 37.5827C16.9427 37.6978 16.9975 37.8054 17.0716 37.8991C17.1458 37.9928 17.2379 38.0709 17.3424 38.1288C17.447 38.1866 17.5621 38.2232 17.6809 38.2362C17.7997 38.2492 17.9199 38.2385 18.0345 38.2047C18.1492 38.1709 18.256 38.1147 18.3487 38.0393C18.4414 37.9638 18.5182 37.8707 18.5747 37.7654C18.6311 37.66 18.6661 37.5445 18.6775 37.4255C18.6775 37.4255 19.5602 30.5087 19.686 28.1888C19.8653 24.901 21.8111 22.2585 24.8506 21.8451C26.5471 21.639 28.2531 21.5207 29.9617 21.4907C31.1846 21.4907 33.6116 21.646 34.8956 21.8429C36.3074 22.0566 37.5983 22.7624 38.54 23.8357C39.5419 24.9863 39.9761 26.5318 40.0713 28.1943C40.2102 30.5174 41.1792 37.4354 41.1792 37.4354C41.2143 37.6598 41.3302 37.8637 41.505 38.0087C41.6798 38.1537 41.9016 38.2299 42.1286 38.2229Z" fill="url(#paint2_linear_1513_1673)"/>
<path d="M36.2628 27.3904C36.144 27.3985 36.028 27.4301 35.9215 27.4834C35.815 27.5366 35.72 27.6104 35.6421 27.7004C35.5642 27.7905 35.505 27.8951 35.4677 28.0082C35.4304 28.1213 35.4159 28.2407 35.425 28.3594L36.0594 37.3916C36.0752 37.6194 36.1767 37.8327 36.3436 37.9886C36.5104 38.1445 36.7301 38.2313 36.9585 38.2316H37.023C37.2616 38.2145 37.4837 38.1035 37.6406 37.9228C37.7974 37.7422 37.8762 37.5067 37.8597 37.268L37.2253 28.2347C37.2177 28.1161 37.1867 28.0001 37.1342 27.8934C37.0816 27.7867 37.0086 27.6914 36.9192 27.613C36.8298 27.5345 36.7258 27.4745 36.6132 27.4363C36.5005 27.3981 36.3815 27.3825 36.2628 27.3904Z" fill="url(#paint3_linear_1513_1673)"/>
<path d="M35.6481 46.3932L39.9881 42.1626C40.1086 42.045 40.1939 41.8962 40.2342 41.7327C40.2745 41.5693 40.2683 41.3979 40.2163 41.2378C40.1644 41.0777 40.0686 40.9354 39.94 40.8268C39.8113 40.7183 39.6549 40.6479 39.4883 40.6237L33.4913 39.7487L30.8094 34.3182C30.7349 34.1671 30.6196 34.0399 30.4766 33.9509C30.3336 33.8619 30.1685 33.8148 30 33.8148C29.8316 33.8148 29.6665 33.8619 29.5234 33.9509C29.3804 34.0399 29.2651 34.1671 29.1906 34.3182L26.5088 39.7519L20.5117 40.6269C20.3452 40.6512 20.1887 40.7216 20.0601 40.8301C19.9314 40.9387 19.8357 41.081 19.7837 41.2411C19.7317 41.4012 19.7255 41.5726 19.7658 41.736C19.8062 41.8994 19.8914 42.0483 20.0119 42.1658L24.3519 46.3965L23.3281 52.3651C23.2992 52.5315 23.3175 52.7027 23.381 52.8592C23.4445 53.0157 23.5507 53.1513 23.6875 53.2504C23.8242 53.3495 23.9861 53.4083 24.1546 53.42C24.3231 53.4317 24.4915 53.3959 24.6406 53.3166L30 50.4969L35.3594 53.3166C35.489 53.3845 35.6331 53.4201 35.7794 53.4205C35.9108 53.4203 36.0406 53.3915 36.1597 53.336C36.2788 53.2805 36.3843 53.1997 36.469 53.0992C36.5536 52.9987 36.6154 52.881 36.6498 52.7542C36.6843 52.6274 36.6907 52.4946 36.6686 52.3651L35.6481 46.3932ZM29.58 48.6791C28.5322 49.2129 25.415 50.8666 25.415 50.8666L26.2102 46.228C26.2349 46.0839 26.2242 45.9359 26.1791 45.7968C26.1339 45.6577 26.0556 45.5317 25.951 45.4296L22.5811 42.1483L27.2383 41.4713C27.383 41.4502 27.5204 41.3943 27.6387 41.3083C27.757 41.2224 27.8527 41.1091 27.9175 40.978L29.9956 36.7572L32.0738 40.978C32.1386 41.1091 32.2343 41.2224 32.3526 41.3083C32.4709 41.3943 32.6083 41.4502 32.753 41.4713L37.4102 42.1483L34.0403 45.4296C33.9357 45.5317 33.8574 45.6577 33.8122 45.7968C33.7671 45.9359 33.7564 46.0839 33.7811 46.228L34.5763 50.8666C34.5763 50.8666 31.4591 49.2107 30.4113 48.6791C30.2836 48.6102 30.1408 48.5741 29.9956 48.5741C29.8505 48.5741 29.7077 48.6102 29.58 48.6791Z" fill="url(#paint4_linear_1513_1673)"/>
<path d="M54.7877 43.3668L50.4028 42.7291L48.4417 38.7566C48.3675 38.6055 48.2523 38.4782 48.1093 38.3891C47.9664 38.3001 47.8013 38.2529 47.6329 38.2529C47.4645 38.2529 47.2994 38.3001 47.1565 38.3891C47.0135 38.4782 46.8984 38.6055 46.8241 38.7566L44.863 42.7291L40.4781 43.3668C40.3116 43.3911 40.1551 43.4614 40.0265 43.57C39.8978 43.6785 39.8021 43.8208 39.7501 43.9809C39.6981 44.141 39.6919 44.3125 39.7322 44.4759C39.7726 44.6393 39.8578 44.7882 39.9783 44.9057L43.1502 47.9988L42.401 52.3651C42.372 52.5315 42.3903 52.7027 42.4538 52.8592C42.5173 53.0157 42.6235 53.1512 42.7603 53.2504C42.897 53.3495 43.0589 53.4083 43.2274 53.42C43.3959 53.4317 43.5643 53.3959 43.7135 53.3166L47.6346 51.2549L51.5567 53.3166C51.6864 53.3845 51.8304 53.4201 51.9767 53.4205C52.1081 53.4203 52.2379 53.3915 52.357 53.336C52.4761 53.2805 52.5817 53.1997 52.6663 53.0992C52.751 52.9987 52.8127 52.881 52.8472 52.7542C52.8817 52.6274 52.8881 52.4946 52.866 52.3651L52.1167 47.9988L55.2886 44.9057C55.4091 44.7882 55.4943 44.6393 55.5347 44.4759C55.575 44.3125 55.5688 44.141 55.5168 43.9809C55.4648 43.8208 55.3691 43.6785 55.2404 43.57C55.1118 43.4614 54.9553 43.3911 54.7888 43.3668H54.7877ZM47.2135 49.4371C46.5255 49.7827 44.4889 50.8688 44.4889 50.8688L45.0096 47.8358C45.0343 47.6917 45.0236 47.5437 44.9784 47.4046C44.9333 47.2656 44.855 47.1395 44.7503 47.0374L42.5464 44.8893L45.5914 44.4518C45.7363 44.4308 45.8739 44.3748 45.9922 44.2887C46.1106 44.2025 46.2062 44.0888 46.2706 43.9574L47.6324 41.199L48.9941 43.9574C49.059 44.0887 49.1548 44.2023 49.2733 44.2885C49.3918 44.3746 49.5294 44.4306 49.6744 44.4518L52.7183 44.8893L50.5155 47.0374C50.4107 47.1394 50.3323 47.2654 50.2871 47.4046C50.2419 47.5437 50.2314 47.6917 50.2563 47.8358L50.7813 50.8688C50.7813 50.8688 48.7458 49.7827 48.0578 49.4371C47.9281 49.3672 47.783 49.3306 47.6356 49.3306C47.4883 49.3306 47.3432 49.3672 47.2135 49.4371Z" fill="url(#paint5_linear_1513_1673)"/>
<path d="M19.5219 43.3668L15.1371 42.7291L13.176 38.7566C13.1017 38.6055 12.9865 38.4782 12.8436 38.3891C12.7006 38.3001 12.5355 38.2529 12.3671 38.2529C12.1987 38.2529 12.0337 38.3001 11.8907 38.3891C11.7477 38.4782 11.6326 38.6055 11.5583 38.7566L9.59721 42.7291L5.21237 43.3668C5.04581 43.3911 4.88936 43.4614 4.76071 43.57C4.63205 43.6785 4.53632 43.8208 4.48432 43.9809C4.43232 44.141 4.42614 44.3125 4.46647 44.4759C4.50679 44.6393 4.59202 44.7882 4.71252 44.9057L7.8844 47.9988L7.14065 52.3651C7.11167 52.5315 7.12999 52.7027 7.19351 52.8592C7.25703 53.0157 7.36321 53.1512 7.49997 53.2504C7.63672 53.3495 7.79856 53.4083 7.96707 53.42C8.13558 53.4317 8.30399 53.3959 8.45315 53.3166L12.3753 51.2549L16.2964 53.3166C16.4261 53.3845 16.5701 53.4201 16.7164 53.4205C16.8478 53.4203 16.9776 53.3915 17.0967 53.336C17.2158 53.2805 17.3214 53.1997 17.406 53.0992C17.4907 52.9987 17.5524 52.881 17.5869 52.7542C17.6214 52.6274 17.6278 52.4946 17.6056 52.3651L16.8564 47.9988L20.0283 44.9057C20.1488 44.7882 20.234 44.6393 20.2744 44.4759C20.3147 44.3125 20.3085 44.141 20.2565 43.9809C20.2045 43.8208 20.1088 43.6785 19.9801 43.57C19.8515 43.4614 19.695 43.3911 19.5285 43.3668H19.5219ZM11.9531 49.4371L9.22424 50.8688L9.74377 47.8358C9.76869 47.6917 9.7581 47.5437 9.71294 47.4046C9.66777 47.2654 9.58938 47.1394 9.48455 47.0374L7.28174 44.8893L10.3256 44.4518C10.4706 44.4306 10.6082 44.3746 10.7268 44.2885C10.8453 44.2023 10.9411 44.0887 11.006 43.9574L12.3677 41.199L13.7294 43.9574C13.7939 44.0888 13.8894 44.2025 14.0078 44.2887C14.1262 44.3748 14.2637 44.4308 14.4086 44.4518L17.4536 44.8893L15.2497 47.0374C15.145 47.1395 15.0668 47.2656 15.0216 47.4046C14.9764 47.5437 14.9658 47.6917 14.9905 47.8358L15.5111 50.8688L12.7866 49.4371C12.6611 49.3603 12.5169 49.3197 12.3699 49.3197C12.2228 49.3197 12.0786 49.3603 11.9531 49.4371Z" fill="url(#paint6_linear_1513_1673)"/>
<defs>
<linearGradient id="paint0_linear_1513_1673" x1="19.1258" y1="-1.91063" x2="89.3194" y2="42.3301" gradientUnits="userSpaceOnUse">
<stop offset="0.0416667" stop-color="#E32966"/>
<stop offset="0.484375" stop-color="#70358F"/>
<stop offset="0.932292" stop-color="#1B253F"/>
</linearGradient>
<linearGradient id="paint1_linear_1513_1673" x1="19.1258" y1="-1.91063" x2="89.3194" y2="42.3301" gradientUnits="userSpaceOnUse">
<stop offset="0.0416667" stop-color="#E32966"/>
<stop offset="0.484375" stop-color="#70358F"/>
<stop offset="0.932292" stop-color="#1B253F"/>
</linearGradient>
<linearGradient id="paint2_linear_1513_1673" x1="19.1258" y1="-1.91063" x2="89.3194" y2="42.3301" gradientUnits="userSpaceOnUse">
<stop offset="0.0416667" stop-color="#E32966"/>
<stop offset="0.484375" stop-color="#70358F"/>
<stop offset="0.932292" stop-color="#1B253F"/>
</linearGradient>
<linearGradient id="paint3_linear_1513_1673" x1="19.1258" y1="-1.91063" x2="89.3194" y2="42.3301" gradientUnits="userSpaceOnUse">
<stop offset="0.0416667" stop-color="#E32966"/>
<stop offset="0.484375" stop-color="#70358F"/>
<stop offset="0.932292" stop-color="#1B253F"/>
</linearGradient>
<linearGradient id="paint4_linear_1513_1673" x1="19.1258" y1="-1.91063" x2="89.3194" y2="42.3301" gradientUnits="userSpaceOnUse">
<stop offset="0.0416667" stop-color="#E32966"/>
<stop offset="0.484375" stop-color="#70358F"/>
<stop offset="0.932292" stop-color="#1B253F"/>
</linearGradient>
<linearGradient id="paint5_linear_1513_1673" x1="19.1258" y1="-1.91063" x2="89.3194" y2="42.3301" gradientUnits="userSpaceOnUse">
<stop offset="0.0416667" stop-color="#E32966"/>
<stop offset="0.484375" stop-color="#70358F"/>
<stop offset="0.932292" stop-color="#1B253F"/>
</linearGradient>
<linearGradient id="paint6_linear_1513_1673" x1="19.1258" y1="-1.91063" x2="89.3194" y2="42.3301" gradientUnits="userSpaceOnUse">
<stop offset="0.0416667" stop-color="#E32966"/>
<stop offset="0.484375" stop-color="#70358F"/>
<stop offset="0.932292" stop-color="#1B253F"/>
</linearGradient>
</defs>
</svg>
