<svg width="60" height="60" viewBox="0 0 60 60" fill="none" xmlns="http://www.w3.org/2000/svg">
<rect width="60" height="60" rx="5" fill="white"/>
<path d="M46.0313 12.2813H12.1969C11.9887 11.256 11.407 10.3446 10.5646 9.72411C9.72228 9.10361 8.67943 8.81823 7.63852 8.92337C6.59761 9.02851 5.63289 9.51668 4.93166 10.2931C4.23043 11.0695 3.8427 12.0788 3.84375 13.125V41.8125C3.84487 42.931 4.2897 44.0034 5.08063 44.7944C5.87156 45.5853 6.94396 46.0301 8.0625 46.0313H46.0313C46.255 46.0313 46.4696 45.9424 46.6279 45.7841C46.7861 45.6259 46.875 45.4113 46.875 45.1875V13.125C46.875 12.9012 46.7861 12.6866 46.6279 12.5284C46.4696 12.3701 46.255 12.2813 46.0313 12.2813ZM5.53125 13.125C5.53125 12.4537 5.79794 11.8098 6.27264 11.3351C6.74734 10.8604 7.39117 10.5938 8.0625 10.5938C8.73383 10.5938 9.37767 10.8604 9.85237 11.3351C10.3271 11.8098 10.5938 12.4537 10.5938 13.125V37.5959C9.86406 37.0469 8.97565 36.75 8.0625 36.75C7.14935 36.75 6.26095 37.0469 5.53125 37.5959V13.125ZM45.1875 44.3438H8.0625C7.39145 44.3429 6.74813 44.0759 6.27362 43.6014C5.79912 43.1269 5.53215 42.4836 5.53125 41.8125V40.9688C5.53125 40.2974 5.79794 39.6536 6.27264 39.1789C6.74734 38.7042 7.39117 38.4375 8.0625 38.4375C8.73383 38.4375 9.37767 38.7042 9.85237 39.1789C10.3271 39.6536 10.5938 40.2974 10.5938 40.9688C10.5938 41.1925 10.6826 41.4071 10.8409 41.5654C10.9991 41.7236 11.2137 41.8125 11.4375 41.8125C11.6613 41.8125 11.8759 41.7236 12.0341 41.5654C12.1924 41.4071 12.2813 41.1925 12.2813 40.9688V13.9688H45.1875V44.3438Z" fill="url(#paint0_linear_1513_1449)"/>
<path d="M55.3125 28.3125H50.25C50.0262 28.3125 49.8116 28.4014 49.6534 28.5596C49.4951 28.7179 49.4063 28.9325 49.4063 29.1563V48.5625H26.625C26.4012 48.5625 26.1866 48.6514 26.0284 48.8096C25.8701 48.9679 25.7813 49.1825 25.7813 49.4063V54.4688C25.7813 54.6925 25.8701 54.9071 26.0284 55.0654C26.1866 55.2236 26.4012 55.3125 26.625 55.3125H55.3125C55.5363 55.3125 55.7509 55.2236 55.9091 55.0654C56.0674 54.9071 56.1563 54.6925 56.1563 54.4688V29.1563C56.1563 28.9325 56.0674 28.7179 55.9091 28.5596C55.7509 28.4014 55.5363 28.3125 55.3125 28.3125ZM54.4688 53.625H27.4688V50.25H29.1563V51.0938C29.1563 51.3175 29.2451 51.5321 29.4034 51.6904C29.5616 51.8486 29.7762 51.9375 30 51.9375C30.2238 51.9375 30.4384 51.8486 30.5966 51.6904C30.7549 51.5321 30.8438 51.3175 30.8438 51.0938V50.25H31.6875V51.0938C31.6875 51.3175 31.7764 51.5321 31.9346 51.6904C32.0929 51.8486 32.3075 51.9375 32.5313 51.9375C32.755 51.9375 32.9696 51.8486 33.1279 51.6904C33.2861 51.5321 33.375 51.3175 33.375 51.0938V50.25H34.2188V51.0938C34.2188 51.3175 34.3076 51.5321 34.4659 51.6904C34.6241 51.8486 34.8387 51.9375 35.0625 51.9375C35.2863 51.9375 35.5009 51.8486 35.6591 51.6904C35.8174 51.5321 35.9063 51.3175 35.9063 51.0938V50.25H36.75V51.0938C36.75 51.3175 36.8389 51.5321 36.9971 51.6904C37.1554 51.8486 37.37 51.9375 37.5938 51.9375C37.8175 51.9375 38.0321 51.8486 38.1904 51.6904C38.3486 51.5321 38.4375 51.3175 38.4375 51.0938V50.25H39.2813V51.0938C39.2813 51.3175 39.3701 51.5321 39.5284 51.6904C39.6866 51.8486 39.9012 51.9375 40.125 51.9375C40.3488 51.9375 40.5634 51.8486 40.7216 51.6904C40.8799 51.5321 40.9688 51.3175 40.9688 51.0938V50.25H41.8125V51.0938C41.8125 51.3175 41.9014 51.5321 42.0596 51.6904C42.2179 51.8486 42.4325 51.9375 42.6563 51.9375C42.88 51.9375 43.0946 51.8486 43.2529 51.6904C43.4111 51.5321 43.5 51.3175 43.5 51.0938V50.25H44.3438V51.0938C44.3438 51.3175 44.4326 51.5321 44.5909 51.6904C44.7491 51.8486 44.9637 51.9375 45.1875 51.9375C45.4113 51.9375 45.6259 51.8486 45.7841 51.6904C45.9424 51.5321 46.0313 51.3175 46.0313 51.0938V50.25H46.875V51.0938C46.875 51.3175 46.9639 51.5321 47.1221 51.6904C47.2804 51.8486 47.495 51.9375 47.7188 51.9375C47.9425 51.9375 48.1571 51.8486 48.3154 51.6904C48.4736 51.5321 48.5625 51.3175 48.5625 51.0938V50.25H54.4688V53.625ZM54.4688 48.5625H51.0938V30H54.4688V48.5625Z" fill="url(#paint1_linear_1513_1449)"/>
<path d="M52.7813 52.7813C53.2472 52.7813 53.625 52.4035 53.625 51.9375C53.625 51.4715 53.2472 51.0938 52.7813 51.0938C52.3153 51.0938 51.9375 51.4715 51.9375 51.9375C51.9375 52.4035 52.3153 52.7813 52.7813 52.7813Z" fill="url(#paint2_linear_1513_1449)"/>
<path d="M14.5457 8.01926L19.6082 9.70676C19.6942 9.73536 19.7843 9.74996 19.875 9.75H44.7656C45.3249 9.74936 45.861 9.52692 46.2565 9.13147C46.6519 8.73602 46.8744 8.19987 46.875 7.64063V6.79688C46.8744 6.23763 46.6519 5.70148 46.2565 5.30603C45.861 4.91059 45.3249 4.68814 44.7656 4.6875H19.875C19.7843 4.68754 19.6942 4.70214 19.6082 4.73074L14.5457 6.41824C14.3776 6.47422 14.2315 6.58165 14.1279 6.72533C14.0243 6.869 13.9686 7.04163 13.9686 7.21875C13.9686 7.39587 14.0243 7.5685 14.1279 7.71217C14.2315 7.85585 14.3776 7.96328 14.5457 8.01926ZM43.5 6.375H44.7656C44.8775 6.375 44.9848 6.41945 45.0639 6.49856C45.1431 6.57768 45.1875 6.68499 45.1875 6.79688V7.64063C45.1875 7.75251 45.1431 7.85982 45.0639 7.93894C44.9848 8.01805 44.8775 8.0625 44.7656 8.0625H43.5V6.375ZM40.9688 6.375H41.8125V8.0625H40.9688V6.375ZM22.4063 6.375H39.2813V8.0625H22.4063V6.375ZM20.0121 6.375H20.7188V8.0625H20.0121L17.4809 7.21875L20.0121 6.375Z" fill="url(#paint3_linear_1513_1449)"/>
<path d="M14.8125 42.6563H35.0625C35.2863 42.6563 35.5009 42.5674 35.6591 42.4091C35.8174 42.2509 35.9063 42.0363 35.9063 41.8125V31.6875C35.9063 31.4637 35.8174 31.2491 35.6591 31.0909C35.5009 30.9326 35.2863 30.8438 35.0625 30.8438H25.7813V21.5625C25.7813 21.3387 25.6924 21.1241 25.5341 20.9659C25.3759 20.8076 25.1613 20.7188 24.9375 20.7188H14.8125C14.5887 20.7188 14.3741 20.8076 14.2159 20.9659C14.0576 21.1241 13.9688 21.3387 13.9688 21.5625V41.8125C13.9688 42.0363 14.0576 42.2509 14.2159 42.4091C14.3741 42.5674 14.5887 42.6563 14.8125 42.6563ZM15.6563 32.5313H18.1875C18.4113 32.5313 18.6259 32.4424 18.7841 32.2841C18.9424 32.1259 19.0313 31.9113 19.0313 31.6875C19.0313 31.4637 18.9424 31.2491 18.7841 31.0909C18.6259 30.9326 18.4113 30.8438 18.1875 30.8438H15.6563V22.4063H24.0938V30.8438H21.5625C21.3387 30.8438 21.1241 30.9326 20.9659 31.0909C20.8076 31.2491 20.7188 31.4637 20.7188 31.6875C20.7188 31.9113 20.8076 32.1259 20.9659 32.2841C21.1241 32.4424 21.3387 32.5313 21.5625 32.5313H24.0938V35.0625C24.0938 35.2863 24.1826 35.5009 24.3409 35.6591C24.4991 35.8174 24.7137 35.9063 24.9375 35.9063C25.1613 35.9063 25.3759 35.8174 25.5341 35.6591C25.6924 35.5009 25.7813 35.2863 25.7813 35.0625V32.5313H34.2188V40.9688H25.7813V38.4375C25.7813 38.2137 25.6924 37.9991 25.5341 37.8409C25.3759 37.6826 25.1613 37.5938 24.9375 37.5938C24.7137 37.5938 24.4991 37.6826 24.3409 37.8409C24.1826 37.9991 24.0938 38.2137 24.0938 38.4375V40.9688H15.6563V32.5313Z" fill="url(#paint4_linear_1513_1449)"/>
<path d="M28.3125 17.3438H42.6563C42.88 17.3438 43.0946 17.2549 43.2529 17.0966C43.4111 16.9384 43.5 16.7238 43.5 16.5C43.5 16.2762 43.4111 16.0616 43.2529 15.9034C43.0946 15.7451 42.88 15.6563 42.6563 15.6563H28.3125C28.0887 15.6563 27.8741 15.7451 27.7159 15.9034C27.5576 16.0616 27.4688 16.2762 27.4688 16.5C27.4688 16.7238 27.5576 16.9384 27.7159 17.0966C27.8741 17.2549 28.0887 17.3438 28.3125 17.3438Z" fill="url(#paint5_linear_1513_1449)"/>
<path d="M28.3125 19.875H42.6563C42.88 19.875 43.0946 19.7861 43.2529 19.6279C43.4111 19.4696 43.5 19.255 43.5 19.0313C43.5 18.8075 43.4111 18.5929 43.2529 18.4346C43.0946 18.2764 42.88 18.1875 42.6563 18.1875H28.3125C28.0887 18.1875 27.8741 18.2764 27.7159 18.4346C27.5576 18.5929 27.4688 18.8075 27.4688 19.0313C27.4688 19.255 27.5576 19.4696 27.7159 19.6279C27.8741 19.7861 28.0887 19.875 28.3125 19.875Z" fill="url(#paint6_linear_1513_1449)"/>
<path d="M28.3125 22.4063H35.9063C36.13 22.4063 36.3446 22.3174 36.5029 22.1591C36.6611 22.0009 36.75 21.7863 36.75 21.5625C36.75 21.3387 36.6611 21.1241 36.5029 20.9659C36.3446 20.8076 36.13 20.7188 35.9063 20.7188H28.3125C28.0887 20.7188 27.8741 20.8076 27.7159 20.9659C27.5576 21.1241 27.4688 21.3387 27.4688 21.5625C27.4688 21.7863 27.5576 22.0009 27.7159 22.1591C27.8741 22.3174 28.0887 22.4063 28.3125 22.4063Z" fill="url(#paint7_linear_1513_1449)"/>
<path d="M28.3125 25.7813H42.6563C42.88 25.7813 43.0946 25.6924 43.2529 25.5341C43.4111 25.3759 43.5 25.1613 43.5 24.9375C43.5 24.7137 43.4111 24.4991 43.2529 24.3409C43.0946 24.1826 42.88 24.0938 42.6563 24.0938H28.3125C28.0887 24.0938 27.8741 24.1826 27.7159 24.3409C27.5576 24.4991 27.4688 24.7137 27.4688 24.9375C27.4688 25.1613 27.5576 25.3759 27.7159 25.5341C27.8741 25.6924 28.0887 25.7813 28.3125 25.7813Z" fill="url(#paint8_linear_1513_1449)"/>
<path d="M28.3125 28.3125H35.9063C36.13 28.3125 36.3446 28.2236 36.5029 28.0654C36.6611 27.9071 36.75 27.6925 36.75 27.4688C36.75 27.245 36.6611 27.0304 36.5029 26.8721C36.3446 26.7139 36.13 26.625 35.9063 26.625H28.3125C28.0887 26.625 27.8741 26.7139 27.7159 26.8721C27.5576 27.0304 27.4688 27.245 27.4688 27.4688C27.4688 27.6925 27.5576 27.9071 27.7159 28.0654C27.8741 28.2236 28.0887 28.3125 28.3125 28.3125Z" fill="url(#paint9_linear_1513_1449)"/>
<defs>
<linearGradient id="paint0_linear_1513_1449" x1="18.8717" y1="-4.48828" x2="92.8786" y2="39.677" gradientUnits="userSpaceOnUse">
<stop offset="0.0416667" stop-color="#E32966"/>
<stop offset="0.484375" stop-color="#70358F"/>
<stop offset="0.932292" stop-color="#1B253F"/>
</linearGradient>
<linearGradient id="paint1_linear_1513_1449" x1="18.8717" y1="-4.48828" x2="92.8786" y2="39.677" gradientUnits="userSpaceOnUse">
<stop offset="0.0416667" stop-color="#E32966"/>
<stop offset="0.484375" stop-color="#70358F"/>
<stop offset="0.932292" stop-color="#1B253F"/>
</linearGradient>
<linearGradient id="paint2_linear_1513_1449" x1="18.8717" y1="-4.48828" x2="92.8786" y2="39.677" gradientUnits="userSpaceOnUse">
<stop offset="0.0416667" stop-color="#E32966"/>
<stop offset="0.484375" stop-color="#70358F"/>
<stop offset="0.932292" stop-color="#1B253F"/>
</linearGradient>
<linearGradient id="paint3_linear_1513_1449" x1="18.8717" y1="-4.48828" x2="92.8786" y2="39.677" gradientUnits="userSpaceOnUse">
<stop offset="0.0416667" stop-color="#E32966"/>
<stop offset="0.484375" stop-color="#70358F"/>
<stop offset="0.932292" stop-color="#1B253F"/>
</linearGradient>
<linearGradient id="paint4_linear_1513_1449" x1="18.8717" y1="-4.48828" x2="92.8786" y2="39.677" gradientUnits="userSpaceOnUse">
<stop offset="0.0416667" stop-color="#E32966"/>
<stop offset="0.484375" stop-color="#70358F"/>
<stop offset="0.932292" stop-color="#1B253F"/>
</linearGradient>
<linearGradient id="paint5_linear_1513_1449" x1="18.8717" y1="-4.48828" x2="92.8786" y2="39.677" gradientUnits="userSpaceOnUse">
<stop offset="0.0416667" stop-color="#E32966"/>
<stop offset="0.484375" stop-color="#70358F"/>
<stop offset="0.932292" stop-color="#1B253F"/>
</linearGradient>
<linearGradient id="paint6_linear_1513_1449" x1="18.8717" y1="-4.48828" x2="92.8786" y2="39.677" gradientUnits="userSpaceOnUse">
<stop offset="0.0416667" stop-color="#E32966"/>
<stop offset="0.484375" stop-color="#70358F"/>
<stop offset="0.932292" stop-color="#1B253F"/>
</linearGradient>
<linearGradient id="paint7_linear_1513_1449" x1="18.8717" y1="-4.48828" x2="92.8786" y2="39.677" gradientUnits="userSpaceOnUse">
<stop offset="0.0416667" stop-color="#E32966"/>
<stop offset="0.484375" stop-color="#70358F"/>
<stop offset="0.932292" stop-color="#1B253F"/>
</linearGradient>
<linearGradient id="paint8_linear_1513_1449" x1="18.8717" y1="-4.48828" x2="92.8786" y2="39.677" gradientUnits="userSpaceOnUse">
<stop offset="0.0416667" stop-color="#E32966"/>
<stop offset="0.484375" stop-color="#70358F"/>
<stop offset="0.932292" stop-color="#1B253F"/>
</linearGradient>
<linearGradient id="paint9_linear_1513_1449" x1="18.8717" y1="-4.48828" x2="92.8786" y2="39.677" gradientUnits="userSpaceOnUse">
<stop offset="0.0416667" stop-color="#E32966"/>
<stop offset="0.484375" stop-color="#70358F"/>
<stop offset="0.932292" stop-color="#1B253F"/>
</linearGradient>
</defs>
</svg>
