<svg width="60" height="60" viewBox="0 0 60 60" fill="none" xmlns="http://www.w3.org/2000/svg">
<rect width="60" height="60" rx="5" fill="white"/>
<g clip-path="url(#clip0_1513_1609)">
<path d="M17.6153 29.3429H24.5302C25.7207 29.3429 26.6897 28.3744 26.6897 27.1837V19.5372C26.6897 18.3466 25.7208 17.3777 24.5302 17.3777H17.6153C16.4247 17.3777 15.4557 18.3466 15.4557 19.5372V27.1837C15.4557 28.3744 16.4246 29.3429 17.6153 29.3429ZM17.0182 19.5372C17.0182 19.208 17.286 18.9402 17.6153 18.9402H24.5302C24.8594 18.9402 25.1272 19.208 25.1272 19.5372V27.1837C25.1272 27.5126 24.8594 27.7804 24.5302 27.7804H17.6153C17.286 27.7804 17.0182 27.5126 17.0182 27.1837V19.5372Z" fill="url(#paint0_linear_1513_1609)"/>
<path d="M29.598 19.3228H38.867C39.2984 19.3228 39.6482 18.973 39.6482 18.5416C39.6482 18.1102 39.2984 17.7603 38.867 17.7603H29.598C29.1666 17.7603 28.8167 18.1102 28.8167 18.5416C28.8167 18.973 29.1665 19.3228 29.598 19.3228Z" fill="url(#paint1_linear_1513_1609)"/>
<path d="M29.598 24.3342H38.867C39.2984 24.3342 39.6482 23.9844 39.6482 23.553C39.6482 23.1216 39.2984 22.7717 38.867 22.7717H29.598C29.1666 22.7717 28.8167 23.1216 28.8167 23.553C28.8167 23.9844 29.1665 24.3342 29.598 24.3342Z" fill="url(#paint2_linear_1513_1609)"/>
<path d="M29.598 29.3429H38.6586C39.09 29.3429 39.4399 28.993 39.4399 28.5616C39.4399 28.1302 39.09 27.7804 38.6586 27.7804H29.598C29.1666 27.7804 28.8167 28.1302 28.8167 28.5616C28.8167 28.993 29.1665 29.3429 29.598 29.3429Z" fill="url(#paint3_linear_1513_1609)"/>
<path d="M16.237 34.3516H38.6586C39.09 34.3516 39.4399 34.0017 39.4399 33.5703C39.4399 33.1389 39.09 32.7891 38.6586 32.7891H16.237C15.8056 32.7891 15.4557 33.1389 15.4557 33.5703C15.4557 34.0017 15.8056 34.3516 16.237 34.3516Z" fill="url(#paint4_linear_1513_1609)"/>
<path d="M52.4892 41.7406H52.1756C52.0307 41.2973 51.8528 40.8674 51.6427 40.4543L51.8658 40.2312C52.1603 39.9366 52.3228 39.5445 52.3228 39.1276C52.3228 38.7102 52.1603 38.3181 51.8658 38.024L50.0214 36.1796C49.7258 35.8836 49.336 35.747 48.9125 35.7223C48.4944 35.7234 48.1035 35.8866 47.8154 36.1777L47.5911 36.4013C47.1784 36.1922 46.7485 36.0141 46.3048 35.8684V35.5533C46.3048 34.693 45.6048 33.993 44.7442 33.993H43.678V13.5443C43.678 12.1828 42.5706 11.0754 41.2095 11.0754H39.6482V9.24977C39.6482 7.88867 38.5407 6.78125 37.1796 6.78125H8.41644C7.05542 6.78125 5.948 7.88867 5.948 9.24977V45.0248C5.948 46.3863 7.05542 47.4937 8.41651 47.4937H9.97784V49.3194C9.97784 50.6805 11.0853 51.7879 12.4464 51.7879H35.613L36.8578 53.0327C37.4658 53.6415 38.4569 53.6415 39.065 53.0327L39.2885 52.8095C39.7016 53.0194 40.1311 53.1971 40.5744 53.342V53.656C40.5744 54.5177 41.2744 55.2189 42.1346 55.2189H44.7442C45.6049 55.2189 46.3049 54.5177 46.3049 53.656V53.342C46.7482 53.1971 47.1781 53.0193 47.5908 52.8095L47.8117 53.03C48.1039 53.3252 48.4949 53.4881 48.9126 53.4893H48.9168C49.3346 53.4893 49.7267 53.3272 50.0212 53.0327L51.8656 51.1883C52.1616 50.893 52.3237 50.4994 52.3229 50.0798C52.3217 49.6616 52.1585 49.2703 51.8663 48.9808L51.6428 48.7577C51.8529 48.3445 52.0307 47.9146 52.1757 47.4713H52.4892C53.351 47.4713 54.0521 46.7713 54.0521 45.9107V43.3011C54.0521 42.4406 53.351 41.7406 52.4892 41.7406ZM8.41644 45.9311C7.91675 45.9311 7.51042 45.5245 7.51042 45.0247V9.24977C7.5105 8.75 7.91675 8.34375 8.41644 8.34375H37.1796C37.6793 8.34375 38.0857 8.75 38.0857 9.24977V11.0755H12.4464C11.0853 11.0755 9.97784 12.1829 9.97784 13.5444V45.9312L8.41644 45.9311ZM11.5403 49.3193V13.5443C11.5403 13.0446 11.9466 12.6379 12.4464 12.6379H41.2096C41.7093 12.6379 42.1156 13.0445 42.1156 13.5443V33.9949C41.2644 34.0054 40.5744 34.6995 40.5744 35.5532V35.8683C40.1307 36.014 39.7008 36.1922 39.2881 36.4012L39.0653 36.1795C38.4763 35.5898 37.4459 35.5902 36.8577 36.1791L35.2364 37.8004H16.237C15.8056 37.8004 15.4557 38.1502 15.4557 38.5816C15.4557 39.013 15.8056 39.3629 16.237 39.3629H34.579C34.6271 39.6803 34.7682 39.9861 35.0118 40.23L35.2349 40.4543C35.0259 40.8674 34.8478 41.2973 34.7021 41.7406H34.387C33.6996 41.7406 33.1212 42.1905 32.9139 42.8091H16.237C15.8056 42.8091 15.4557 43.159 15.4557 43.5904C15.4557 44.0218 15.8056 44.3716 16.237 44.3716H32.8267V45.9105C32.8267 46.7711 33.5267 47.4711 34.387 47.4711H34.7021C34.8478 47.9144 35.026 48.3443 35.2349 48.7574L35.0152 48.9779C34.7203 49.2705 34.5571 49.6619 34.5563 50.0796C34.5562 50.1291 34.5658 50.1766 34.5702 50.2253H12.4464C11.9466 50.2253 11.5403 49.8191 11.5403 49.3193ZM52.4892 45.9086H51.5892C51.2318 45.9086 50.9202 46.1509 50.8321 46.4972C50.6524 47.2045 50.3739 47.8762 50.0046 48.4934C49.8211 48.8006 49.8696 49.1934 50.1225 49.4467L50.7611 50.083L48.919 51.9278L48.2804 51.2892C48.0271 51.0367 47.635 50.9875 47.3271 51.1709C46.71 51.5402 46.0382 51.8187 45.3309 51.9984C44.9845 52.0865 44.7423 52.3981 44.7423 52.7555L44.7442 53.6563L42.1369 53.6559V52.7556C42.1369 52.3982 41.8943 52.0866 41.5483 51.9984C40.841 51.8188 40.1697 51.5403 39.5521 51.171C39.4277 51.0966 39.2889 51.0604 39.1515 51.0604C38.9493 51.0604 38.7495 51.1386 38.5988 51.2893L37.9625 51.9279L36.1192 50.0842L36.7547 49.4456C37.0061 49.1927 37.0546 48.8021 36.8726 48.4958C36.5057 47.877 36.2264 47.2038 36.0433 46.4946C35.954 46.1498 35.6432 45.9087 35.2868 45.9087L34.3892 45.9105L34.387 43.3032H35.2869C35.6432 43.3032 35.9545 43.0621 36.0434 42.7173C36.2265 42.0085 36.5053 41.3352 36.8727 40.7157C37.0546 40.409 37.0058 40.0184 36.7544 39.7659L36.2183 39.2295C36.4092 39.1077 36.539 38.9124 36.5691 38.6775L37.9613 37.2856L38.5999 37.9211C38.8532 38.1725 39.2442 38.2209 39.5501 38.039C40.1681 37.672 40.841 37.3928 41.5509 37.2097C41.8957 37.1208 42.1368 36.8095 42.1368 36.4532L42.1346 35.5556L42.8935 35.5549C42.8946 35.5549 42.8956 35.5556 42.8967 35.5556C42.8979 35.5556 42.8989 35.5549 42.9001 35.5549L44.7423 35.5533V36.4531C44.7423 36.8095 44.9834 37.1203 45.3282 37.2096C46.0382 37.3931 46.7114 37.672 47.329 38.0389C47.6361 38.2209 48.026 38.1724 48.2792 37.921L48.9163 37.284L50.761 39.1265L50.1228 39.7647C49.8696 40.0176 49.8211 40.4105 50.0046 40.718C50.3739 41.3359 50.6523 42.0077 50.832 42.7146C50.9201 43.0606 51.2317 43.3032 51.5892 43.3032L52.4894 43.3009L52.4892 45.9086Z" fill="url(#paint5_linear_1513_1609)"/>
<path d="M43.4396 39.8818C40.585 39.8818 38.2626 42.2027 38.2626 45.0557C38.2626 47.9102 40.585 50.2327 43.4396 50.2327C46.2926 50.2327 48.6135 47.9102 48.6135 45.0557C48.6135 42.2027 46.2926 39.8818 43.4396 39.8818ZM43.4396 48.6701C41.4464 48.6701 39.8251 47.0488 39.8251 45.0556C39.8251 43.0644 41.4464 41.4442 43.4396 41.4442C45.4308 41.4442 47.051 43.0643 47.051 45.0556C47.051 47.0488 45.4309 48.6701 43.4396 48.6701Z" fill="url(#paint6_linear_1513_1609)"/>
</g>
<defs>
<linearGradient id="paint0_linear_1513_1609" x1="19.767" y1="-1.99807" x2="89.2123" y2="37.8319" gradientUnits="userSpaceOnUse">
<stop offset="0.0416667" stop-color="#E32966"/>
<stop offset="0.484375" stop-color="#70358F"/>
<stop offset="0.932292" stop-color="#1B253F"/>
</linearGradient>
<linearGradient id="paint1_linear_1513_1609" x1="19.767" y1="-1.99807" x2="89.2123" y2="37.8319" gradientUnits="userSpaceOnUse">
<stop offset="0.0416667" stop-color="#E32966"/>
<stop offset="0.484375" stop-color="#70358F"/>
<stop offset="0.932292" stop-color="#1B253F"/>
</linearGradient>
<linearGradient id="paint2_linear_1513_1609" x1="19.767" y1="-1.99807" x2="89.2123" y2="37.8319" gradientUnits="userSpaceOnUse">
<stop offset="0.0416667" stop-color="#E32966"/>
<stop offset="0.484375" stop-color="#70358F"/>
<stop offset="0.932292" stop-color="#1B253F"/>
</linearGradient>
<linearGradient id="paint3_linear_1513_1609" x1="19.767" y1="-1.99807" x2="89.2123" y2="37.8319" gradientUnits="userSpaceOnUse">
<stop offset="0.0416667" stop-color="#E32966"/>
<stop offset="0.484375" stop-color="#70358F"/>
<stop offset="0.932292" stop-color="#1B253F"/>
</linearGradient>
<linearGradient id="paint4_linear_1513_1609" x1="19.767" y1="-1.99807" x2="89.2123" y2="37.8319" gradientUnits="userSpaceOnUse">
<stop offset="0.0416667" stop-color="#E32966"/>
<stop offset="0.484375" stop-color="#70358F"/>
<stop offset="0.932292" stop-color="#1B253F"/>
</linearGradient>
<linearGradient id="paint5_linear_1513_1609" x1="19.767" y1="-1.99807" x2="89.2123" y2="37.8319" gradientUnits="userSpaceOnUse">
<stop offset="0.0416667" stop-color="#E32966"/>
<stop offset="0.484375" stop-color="#70358F"/>
<stop offset="0.932292" stop-color="#1B253F"/>
</linearGradient>
<linearGradient id="paint6_linear_1513_1609" x1="19.767" y1="-1.99807" x2="89.2123" y2="37.8319" gradientUnits="userSpaceOnUse">
<stop offset="0.0416667" stop-color="#E32966"/>
<stop offset="0.484375" stop-color="#70358F"/>
<stop offset="0.932292" stop-color="#1B253F"/>
</linearGradient>
<clipPath id="clip0_1513_1609">
<rect width="50" height="50" fill="white" transform="translate(5 6)"/>
</clipPath>
</defs>
</svg>
