<svg width="60" height="60" viewBox="0 0 60 60" fill="none" xmlns="http://www.w3.org/2000/svg">
<rect width="60" height="60" rx="5" fill="white"/>
<path d="M33.5 35.25C33.5 35.0179 33.4078 34.7954 33.2437 34.6313C33.0796 34.4672 32.8571 34.375 32.625 34.375H27.375C27.1429 34.375 26.9204 34.4672 26.7563 34.6313C26.5922 34.7954 26.5 35.0179 26.5 35.25C26.5 35.4821 26.5922 35.7046 26.7563 35.8687C26.9204 36.0328 27.1429 36.125 27.375 36.125H32.625C32.8571 36.125 33.0796 36.0328 33.2437 35.8687C33.4078 35.7046 33.5 35.4821 33.5 35.25Z" fill="url(#paint0_linear_1513_1481)"/>
<path d="M45.4656 46.4828L36.125 43.3689V39.7311C37.7283 38.8032 39.1009 37.5245 40.1398 35.9908C41.1788 34.4571 41.8572 32.7081 42.1242 30.875H45.3125C46.1245 30.8741 46.9029 30.5512 47.477 29.977C48.0512 29.4029 48.3741 28.6245 48.375 27.8125V21.6875C48.374 20.9514 48.1082 20.2402 47.6263 19.6838C47.1444 19.1274 46.4784 18.7628 45.75 18.6567V16.875C45.7458 13.1632 44.2695 9.60472 41.6449 6.98011C39.0203 4.3555 35.4618 2.87917 31.75 2.875H28.25C24.5383 2.87917 20.9797 4.3555 18.3551 6.98011C15.7305 9.60472 14.2542 13.1632 14.25 16.875V18.6567C13.5216 18.7628 12.8556 19.1274 12.3737 19.6838C11.8918 20.2402 11.6261 20.9514 11.625 21.6875V27.8125C11.6259 28.6245 11.9488 29.4029 12.523 29.977C13.0971 30.5512 13.8756 30.8741 14.6875 30.875H17.8736C18.2455 33.4946 19.4617 35.9215 21.3375 37.7875C22.0952 38.5452 22.9482 39.2011 23.875 39.7388V43.3689L14.5344 46.4828C12.6671 47.1033 11.0427 48.2965 9.89216 49.8928C8.74158 51.489 8.12325 53.4073 8.125 55.375V56.25C8.125 56.4821 8.21719 56.7046 8.38129 56.8687C8.54538 57.0328 8.76794 57.125 9 57.125H51C51.2321 57.125 51.4546 57.0328 51.6187 56.8687C51.7828 56.7046 51.875 56.4821 51.875 56.25V55.375C51.8768 53.4073 51.2584 51.489 50.1078 49.8928C48.9573 48.2965 47.333 47.1033 45.4656 46.4828ZM15.125 29.125H14.6875C14.3395 29.1247 14.0058 28.9863 13.7597 28.7403C13.5137 28.4942 13.3753 28.1605 13.375 27.8125V21.6875C13.3753 21.3395 13.5137 21.0058 13.7597 20.7597C14.0058 20.5137 14.3395 20.3753 14.6875 20.375H15.125V29.125ZM40.5 19.0909C39.5392 18.2268 38.2923 17.749 37 17.75H28.0728C33.4967 16.5381 35.8986 15.5538 36.9869 14.7258L40.5 18.9422V19.0909ZM43.125 29.125H42.25V20.375H43.125V29.125ZM44.875 20.375H45.3125C45.6605 20.3753 45.9942 20.5137 46.2403 20.7597C46.4863 21.0058 46.6247 21.3395 46.625 21.6875V27.8125C46.6247 28.1605 46.4863 28.4942 46.2403 28.7403C45.9942 28.9863 45.6605 29.1247 45.3125 29.125H44.875V20.375ZM44 16.875V18.625H42.25V15.125C42.2529 12.3037 41.2769 9.56869 39.4883 7.38672C40.8981 8.53364 42.0345 9.98036 42.815 11.6217C43.5954 13.263 44.0003 15.0576 44 16.875ZM30 4.625C32.7838 4.62833 35.4525 5.73564 37.4209 7.70406C39.3894 9.67247 40.4967 12.3412 40.5 15.125V16.2078L37.6727 12.815C37.5742 12.6945 37.4452 12.6025 37.2992 12.5488C37.1531 12.495 36.9953 12.4814 36.8422 12.5093C36.6891 12.5372 36.5463 12.6057 36.4286 12.7075C36.3109 12.8094 36.2227 12.9409 36.1731 13.0884C36.1119 13.2153 35.3364 14.378 27.142 16.1641C24.0588 16.8356 21.0214 17.3541 19.5 17.6012V15.125C19.5033 12.3412 20.6106 9.67247 22.5791 7.70406C24.5475 5.73564 27.2163 4.62833 30 4.625ZM17.75 29.125H16.875V20.375H17.75V29.125ZM17.75 15.125V18.625H16V16.875C15.9997 15.0576 16.4046 13.263 17.185 11.6217C17.9655 9.98036 19.1019 8.53364 20.5117 7.38672C18.7231 9.56869 17.7471 12.3037 17.75 15.125ZM19.5 23C19.5012 22.0721 19.8704 21.1826 20.5265 20.5265C21.1826 19.8704 22.0721 19.5012 23 19.5H37C37.9279 19.5012 38.8174 19.8704 39.4735 20.5265C40.1297 21.1826 40.4988 22.0721 40.5 23V26.5C40.4988 27.4279 40.1297 28.3174 39.4735 28.9735C38.8174 29.6296 37.9279 29.9988 37 30H23C22.0721 29.9988 21.1826 29.6296 20.5265 28.9735C19.8704 28.3174 19.5012 27.4279 19.5 26.5V23ZM22.5756 36.5494C20.9332 34.9161 19.8818 32.7821 19.5875 30.4845C20.5366 31.3016 21.7476 31.7507 23 31.75H37C38.2522 31.7508 39.4631 31.3022 40.4125 30.4856C40.1585 32.4299 39.3652 34.2641 38.1224 35.7807C36.8796 37.2973 35.237 38.4356 33.3806 39.0667C31.5241 39.6978 29.5281 39.7965 27.6185 39.3516C25.7089 38.9067 23.962 37.936 22.5756 36.5494ZM29.125 47.5V55.375H9.875C9.87343 53.7746 10.3763 52.2145 11.3121 50.9162C12.2479 49.6179 13.569 48.6476 15.0878 48.1431L24.5247 44.9975C26.0373 46.4008 27.5806 47.2113 29.1283 47.4333C29.1272 47.4552 29.125 47.477 29.125 47.5ZM25.625 43.6314V40.5733C28.4437 41.6445 31.5579 41.6422 34.375 40.5667V43.6314C31.3978 46.4577 28.6022 46.4577 25.625 43.6314ZM30.875 55.375V47.5C30.875 47.477 30.8728 47.4552 30.8717 47.4333C32.4194 47.2113 33.9627 46.4008 35.4753 44.9975L44.9122 48.1431C46.431 48.6476 47.7521 49.6179 48.6879 50.9162C49.6237 52.2145 50.1266 53.7746 50.125 55.375H30.875Z" fill="url(#paint1_linear_1513_1481)"/>
<path d="M21.25 27.375H38.75C38.9821 27.375 39.2046 27.2828 39.3687 27.1187C39.5328 26.9546 39.625 26.7321 39.625 26.5V23C39.625 22.7679 39.5328 22.5454 39.3687 22.3813C39.2046 22.2172 38.9821 22.125 38.75 22.125H21.25C21.0179 22.125 20.7954 22.2172 20.6313 22.3813C20.4672 22.5454 20.375 22.7679 20.375 23V26.5C20.375 26.7321 20.4672 26.9546 20.6313 27.1187C20.7954 27.2828 21.0179 27.375 21.25 27.375ZM22.125 23.875H37.875V25.625H22.125V23.875Z" fill="url(#paint2_linear_1513_1481)"/>
<defs>
<linearGradient id="paint0_linear_1513_1481" x1="20.6932" y1="-6.95781" x2="89.6675" y2="25.1665" gradientUnits="userSpaceOnUse">
<stop offset="0.0416667" stop-color="#E32966"/>
<stop offset="0.484375" stop-color="#70358F"/>
<stop offset="0.932292" stop-color="#1B253F"/>
</linearGradient>
<linearGradient id="paint1_linear_1513_1481" x1="20.6932" y1="-6.95781" x2="89.6675" y2="25.1665" gradientUnits="userSpaceOnUse">
<stop offset="0.0416667" stop-color="#E32966"/>
<stop offset="0.484375" stop-color="#70358F"/>
<stop offset="0.932292" stop-color="#1B253F"/>
</linearGradient>
<linearGradient id="paint2_linear_1513_1481" x1="20.6932" y1="-6.95781" x2="89.6675" y2="25.1665" gradientUnits="userSpaceOnUse">
<stop offset="0.0416667" stop-color="#E32966"/>
<stop offset="0.484375" stop-color="#70358F"/>
<stop offset="0.932292" stop-color="#1B253F"/>
</linearGradient>
</defs>
</svg>
