<svg width="60" height="60" viewBox="0 0 60 60" fill="none" xmlns="http://www.w3.org/2000/svg">
<rect width="60" height="60" rx="5" fill="white"/>
<g clip-path="url(#clip0_1513_1353)">
<path d="M51.2528 16.5627C51.4058 14.8898 50.8434 13.2194 49.7099 11.9796C48.5763 10.7397 46.9627 10.0304 45.2827 10.0332C43.7433 10.0361 42.3317 9.13462 41.6866 7.73684C40.9827 6.21153 39.6603 5.04597 38.0588 4.53911C36.4574 4.03228 34.7052 4.22502 33.2516 5.06736C33.042 5.18903 32.8204 5.29162 32.5923 5.37259C32.0639 5.55977 31.7872 6.141 31.9753 6.66959C32.163 7.19823 32.7437 7.47453 33.2723 7.28663C33.6175 7.16403 33.9533 7.00845 34.2705 6.82468C35.2429 6.26019 36.3722 6.1361 37.4458 6.4758C38.5192 6.81554 39.3704 7.56566 39.8421 8.58804C40.8189 10.7041 42.9557 12.0688 45.2862 12.0646C46.4123 12.0626 47.4509 12.5191 48.2107 13.3502C48.9705 14.1812 49.3324 15.2563 49.2298 16.3775C49.0176 18.6984 50.186 20.9488 52.2064 22.1105C53.1825 22.6717 53.8536 23.5864 54.0961 24.6859C54.3387 25.7855 54.1146 26.8976 53.4651 27.8174C52.1208 29.7212 52.0075 32.2541 53.1763 34.2705C53.7411 35.2446 53.8648 36.3723 53.5252 37.4458C53.1856 38.5193 52.4367 39.3707 51.4129 39.8422C49.296 40.8212 47.9322 42.9558 47.9364 45.2862C47.9384 46.4124 47.4818 47.4509 46.6508 48.2107C45.8197 48.9707 44.7446 49.3326 43.6235 49.2299C41.3027 49.0178 39.0523 50.1857 37.8904 52.2064C37.3294 53.1825 36.415 53.8537 35.3151 54.0961C34.2155 54.3387 33.1034 54.1146 32.1836 53.4651C30.2798 52.1209 27.7495 52.0084 25.7305 53.1763C24.7548 53.7409 23.6286 53.8649 22.5552 53.5252C21.4818 53.1856 20.6306 52.4354 20.1588 51.413C19.1821 49.2969 17.0452 47.9323 14.7148 47.9365C13.5886 47.9384 12.5501 47.4819 11.7903 46.6508C11.0305 45.8199 10.6685 44.7447 10.7711 43.6235C10.9834 41.3026 9.81499 39.0523 7.79457 37.8905C6.81851 37.3293 6.14737 36.4147 5.90484 35.3151C5.66226 34.2155 5.8864 33.1034 6.53585 32.1836C7.88016 30.2798 7.99343 27.7469 6.82465 25.7305C6.25986 24.7564 6.13611 23.6287 6.47576 22.5552C6.8156 21.4817 7.56567 20.6305 8.58801 20.1589C10.7073 19.1796 12.0687 17.0452 12.0645 14.7148C12.0626 13.5887 12.5191 12.5501 13.3502 11.7903C14.1812 11.0303 15.2563 10.6686 16.3776 10.7711C18.6983 10.9833 20.9487 9.81493 22.1104 7.79465C22.5808 6.97651 23.3278 6.35349 24.2144 6.03966C24.7435 5.85352 25.0201 5.27229 24.8331 4.74341C24.646 4.21453 24.0657 3.93759 23.5368 4.12473C22.1935 4.5997 21.0616 5.54362 20.3494 6.78211C19.5821 8.11665 18.0957 8.88848 16.5625 8.74813C14.8898 8.59513 13.2195 9.15758 11.9794 10.291C10.7396 11.4246 10.0302 13.0383 10.0331 14.7183C10.0359 16.2576 9.13421 17.6712 7.73667 18.3144C6.20966 19.0201 5.04585 20.3407 4.53893 21.9422C4.03211 23.5438 4.22457 25.2959 5.06714 26.7492C5.83922 28.0811 5.76436 29.7543 4.87634 31.0118C3.90748 32.3842 3.55926 34.1121 3.9211 35.7526C4.28299 37.393 5.32576 38.8141 6.78211 39.6514C8.11674 40.4187 8.88849 41.9052 8.74814 43.4383C8.59519 45.1112 9.15751 46.7817 10.291 48.0215C11.4246 49.2613 13.0383 49.9706 14.7183 49.9678C16.2576 49.965 17.6692 50.8664 18.3144 52.2642C19.0183 53.7895 20.3406 54.955 21.9422 55.4619C23.5439 55.9688 25.2966 55.7759 26.7492 54.9337C28.0793 54.1618 29.7542 54.2365 31.0119 55.1245C32.3842 56.0934 34.1121 56.4416 35.7526 56.0798C36.266 55.9664 36.758 55.7865 37.2173 55.5481C38.2255 55.0246 39.0761 54.2193 39.6515 53.2188C40.419 51.8841 41.9054 51.1124 43.4383 51.2527C45.1111 51.4057 46.7815 50.8433 48.0215 49.7098C49.2613 48.5762 49.9706 46.9626 49.9678 45.2826C49.9651 43.7432 50.8664 42.3311 52.2642 41.6865C53.7909 40.9802 54.9549 39.6602 55.4619 38.0587C55.9688 36.4571 55.7763 34.705 54.9337 33.2516C54.1616 31.9197 54.2365 30.2466 55.1245 28.989C56.0934 27.6167 56.4416 25.8888 56.0798 24.2482C55.7179 22.6078 54.6751 21.1868 53.2187 20.3494C51.8843 19.5822 51.1125 18.0957 51.2528 16.5627Z" fill="url(#paint0_linear_1513_1353)"/>
<path d="M39.092 47.5119C43.7695 45.0834 47.2212 40.9788 48.8114 35.9542C48.9807 35.4195 48.6843 34.8487 48.1495 34.6794C47.6147 34.5102 47.0441 34.8065 46.8747 35.3413C45.4482 39.8487 42.3518 43.5307 38.1559 45.7092C33.96 47.8876 29.167 48.3018 24.6596 46.8752C24.125 46.7062 23.5543 47.0023 23.3847 47.5371C23.2155 48.0719 23.5118 48.6426 24.0466 48.812C29.0715 50.402 34.4146 49.9404 39.092 47.5119Z" fill="url(#paint1_linear_1513_1353)"/>
<path d="M20.9085 12.4894C16.2311 14.9179 12.7793 19.0226 11.1891 24.0472C11.0199 24.5819 11.3162 25.1527 11.851 25.322C12.3858 25.4911 12.9564 25.1949 13.1259 24.6601C14.5523 20.1527 17.6487 16.4707 21.8446 14.2922C26.0406 12.1137 30.8336 11.6996 35.341 13.1262C35.6084 13.2107 35.8847 13.179 36.1154 13.0593C36.3461 12.9395 36.531 12.7317 36.6157 12.4643C36.785 11.9296 36.4886 11.3588 35.9538 11.1895C30.9292 9.59929 25.586 10.0609 20.9085 12.4894Z" fill="url(#paint2_linear_1513_1353)"/>
<path d="M24.2102 30.8085C23.4155 29.278 21.4764 28.7042 19.8874 29.5291L18.2416 30.3837L18.2392 30.3849C17.7414 30.6433 17.5474 31.2565 17.8058 31.7543L21.5499 38.9656C21.8083 39.4634 22.4216 39.6575 22.9193 39.3991C23.4171 39.1406 23.6112 38.5274 23.3527 38.0296L22.4524 36.2955L25.7123 37.5606C25.9956 37.6705 26.298 37.6449 26.5481 37.515C26.7597 37.4051 26.9337 37.2209 27.0267 36.9812C27.2296 36.4583 26.9702 35.8698 26.4473 35.6669L23.5334 34.5361C24.5442 33.5767 24.8616 32.0632 24.2102 30.8085ZM21.8335 33.2774C21.638 33.3789 21.3654 33.5219 21.0987 33.6621C20.9083 33.3002 20.2804 32.0972 20.0817 31.7171L20.8235 31.332C21.4082 31.0284 22.1335 31.2172 22.4073 31.7446C22.6811 32.2719 22.4183 32.9738 21.8335 33.2774Z" fill="url(#paint3_linear_1513_1353)"/>
<path d="M13.1397 33.0325L11.0449 34.1201C10.5471 34.3786 10.3531 34.9918 10.6115 35.4895L14.3556 42.7009C14.4801 42.9407 14.695 43.1209 14.9526 43.2019C15.209 43.2824 15.4867 43.258 15.725 43.1343L15.729 43.1322C15.729 43.1322 17.6503 42.1238 18.1812 41.8482C19.7485 41.0344 20.3616 39.0973 19.5478 37.5299C19.0843 36.6371 18.2562 36.0547 17.3398 35.8684C17.392 35.3324 17.296 34.7762 17.03 34.2637C16.2969 32.8518 14.5517 32.2994 13.1397 33.0325ZM14.0757 34.8353C14.4937 34.6183 15.0101 34.7818 15.2271 35.1997C15.4442 35.6177 15.2807 36.1341 14.8627 36.3512C14.7087 36.4311 13.6704 36.9726 13.6704 36.9726L12.8824 35.4548L14.0757 34.8353ZM17.2452 40.0455C16.9581 40.1945 16.2658 40.557 15.6885 40.8597L14.6073 38.7773C14.7516 38.7017 16.1656 37.9662 16.1656 37.9662C16.7388 37.6685 17.4474 37.8928 17.745 38.466C18.0426 39.0393 17.8184 39.7478 17.2452 40.0455Z" fill="url(#paint4_linear_1513_1353)"/>
<path d="M47.517 20.906C46.1174 18.2103 43.6444 17.1947 41.3634 18.379L40.0641 19.0535C39.8248 19.1778 39.6446 19.3921 39.5635 19.6494C39.4825 19.9066 39.5069 20.1856 39.6316 20.4246C39.6316 20.4246 43.3775 27.6039 43.3912 27.63C43.5165 27.8692 43.7319 28.0487 43.9899 28.1287C44.2453 28.2081 44.5216 28.1834 44.7589 28.0602L44.7657 28.0567C44.7733 28.0526 45.5358 27.6494 46.1107 27.338C48.257 26.1756 48.8485 23.4705 47.517 20.906ZM44.7164 25.7816C44.2706 24.9297 42.365 21.2731 41.9032 20.3876L42.2995 20.1818C43.2716 19.6771 44.6791 19.8483 45.7143 21.8421C46.4002 23.1631 46.4898 24.8226 45.1436 25.5517C45.0076 25.6253 44.8609 25.7041 44.7164 25.7816Z" fill="url(#paint5_linear_1513_1353)"/>
<path d="M28.9419 36.2122C29.0541 36.1948 29.1591 36.1597 29.2545 36.1102C29.6308 35.9148 29.8584 35.4952 29.7899 35.053L29.6856 34.3791L32.6321 32.8493L33.1195 33.3213C33.5223 33.7116 34.1651 33.7017 34.5555 33.2985C34.9458 32.8957 34.9356 32.2527 34.5327 31.8625L28.4661 25.9855C28.4596 25.9792 28.4529 25.9729 28.4463 25.9667C28.0794 25.63 27.5405 25.5557 27.105 25.7818C26.6692 26.0086 26.4194 26.4936 26.485 26.9879C26.486 26.9952 26.4871 27.0026 26.4882 27.0099L27.7825 35.3642C27.8686 35.9185 28.3875 36.2982 28.9419 36.2122ZM28.8864 29.2208L31.0939 31.3591L29.3574 32.2607L28.8864 29.2208Z" fill="url(#paint6_linear_1513_1353)"/>
<path d="M37.3197 30.7835L35.1072 26.5221L40.6213 29.5189C41.0837 29.7698 41.6113 29.7071 41.9648 29.3598C42.3262 29.0048 42.3958 28.4597 42.142 27.971L38.5198 20.9943C38.2614 20.4966 37.6481 20.3025 37.1504 20.5609C36.6526 20.8194 36.4585 21.4326 36.717 21.9304L38.9986 26.325L33.1619 23.1528C32.7696 22.9395 32.2842 23.0074 31.9655 23.3202C31.6469 23.6329 31.5698 24.117 31.7755 24.5131L35.517 31.7195C35.7754 32.2173 36.3886 32.4113 36.8864 32.1529C37.3842 31.8945 37.5782 31.2814 37.3197 30.7835Z" fill="url(#paint7_linear_1513_1353)"/>
<path d="M28.8714 6.60766C29.3692 6.3492 29.5633 5.73611 29.3048 5.23829C29.0463 4.74048 28.4333 4.54644 27.9354 4.80491C27.4376 5.06337 27.2436 5.67646 27.5021 6.17427C27.7605 6.67209 28.3736 6.86612 28.8714 6.60766Z" fill="url(#paint8_linear_1513_1353)"/>
</g>
<defs>
<linearGradient id="paint0_linear_1513_1353" x1="3.85951" y1="3.65688" x2="90.1624" y2="7.52848" gradientUnits="userSpaceOnUse">
<stop offset="0.0416667" stop-color="#E32966"/>
<stop offset="0.484375" stop-color="#70358F"/>
<stop offset="0.932292" stop-color="#1B253F"/>
</linearGradient>
<linearGradient id="paint1_linear_1513_1353" x1="3.85951" y1="3.65688" x2="90.1624" y2="7.52848" gradientUnits="userSpaceOnUse">
<stop offset="0.0416667" stop-color="#E32966"/>
<stop offset="0.484375" stop-color="#70358F"/>
<stop offset="0.932292" stop-color="#1B253F"/>
</linearGradient>
<linearGradient id="paint2_linear_1513_1353" x1="3.85951" y1="3.65688" x2="90.1624" y2="7.52848" gradientUnits="userSpaceOnUse">
<stop offset="0.0416667" stop-color="#E32966"/>
<stop offset="0.484375" stop-color="#70358F"/>
<stop offset="0.932292" stop-color="#1B253F"/>
</linearGradient>
<linearGradient id="paint3_linear_1513_1353" x1="3.85951" y1="3.65688" x2="90.1624" y2="7.52848" gradientUnits="userSpaceOnUse">
<stop offset="0.0416667" stop-color="#E32966"/>
<stop offset="0.484375" stop-color="#70358F"/>
<stop offset="0.932292" stop-color="#1B253F"/>
</linearGradient>
<linearGradient id="paint4_linear_1513_1353" x1="3.85951" y1="3.65688" x2="90.1624" y2="7.52848" gradientUnits="userSpaceOnUse">
<stop offset="0.0416667" stop-color="#E32966"/>
<stop offset="0.484375" stop-color="#70358F"/>
<stop offset="0.932292" stop-color="#1B253F"/>
</linearGradient>
<linearGradient id="paint5_linear_1513_1353" x1="3.85951" y1="3.65688" x2="90.1624" y2="7.52848" gradientUnits="userSpaceOnUse">
<stop offset="0.0416667" stop-color="#E32966"/>
<stop offset="0.484375" stop-color="#70358F"/>
<stop offset="0.932292" stop-color="#1B253F"/>
</linearGradient>
<linearGradient id="paint6_linear_1513_1353" x1="3.85951" y1="3.65688" x2="90.1624" y2="7.52848" gradientUnits="userSpaceOnUse">
<stop offset="0.0416667" stop-color="#E32966"/>
<stop offset="0.484375" stop-color="#70358F"/>
<stop offset="0.932292" stop-color="#1B253F"/>
</linearGradient>
<linearGradient id="paint7_linear_1513_1353" x1="3.85951" y1="3.65688" x2="90.1624" y2="7.52848" gradientUnits="userSpaceOnUse">
<stop offset="0.0416667" stop-color="#E32966"/>
<stop offset="0.484375" stop-color="#70358F"/>
<stop offset="0.932292" stop-color="#1B253F"/>
</linearGradient>
<linearGradient id="paint8_linear_1513_1353" x1="3.85951" y1="3.65688" x2="90.1624" y2="7.52848" gradientUnits="userSpaceOnUse">
<stop offset="0.0416667" stop-color="#E32966"/>
<stop offset="0.484375" stop-color="#70358F"/>
<stop offset="0.932292" stop-color="#1B253F"/>
</linearGradient>
<clipPath id="clip0_1513_1353">
<rect width="52" height="52" fill="white" transform="translate(4 4)"/>
</clipPath>
</defs>
</svg>
