<svg width="60" height="60" viewBox="0 0 60 60" fill="none" xmlns="http://www.w3.org/2000/svg">
<rect width="60" height="60" rx="5" fill="white"/>
<path d="M13.1233 44.265L18.4347 53.4651C19.5808 55.4525 22.159 56.1884 24.198 55.0097C26.2155 53.8437 26.9088 51.2659 25.7417 49.2468L22.5776 43.7657L25.3177 42.1837C25.822 41.892 25.9951 41.2472 25.7038 40.743L24.3323 38.3674C24.4958 38.3357 25.5711 38.1248 44.5337 34.4049C46.8779 34.2776 48.2823 31.7138 47.0983 29.6642L43.5931 23.5932L45.8331 20.2004C46.0531 19.8667 46.0663 19.4379 45.8664 19.0918L43.7571 15.4383C43.5573 15.0922 43.1778 14.8895 42.7802 14.913L38.7226 15.1565L34.8314 8.41637C34.2678 7.43996 33.258 6.84875 32.1308 6.83475C32.1172 6.83433 32.104 6.83433 32.0904 6.83433C31.0011 6.83433 30.0123 7.37651 29.4265 8.29318L15.6488 25.8447L6.6918 31.0159C3.1689 33.0491 1.94859 37.5686 3.98958 41.101C5.85423 44.3309 9.78541 45.6015 13.1233 44.265ZM23.9153 50.3019C24.4979 51.3096 24.1531 52.5991 23.1425 53.1829C22.1286 53.7692 20.8374 53.4091 20.2614 52.4108L14.988 43.2758L18.6415 41.1665C24.7447 51.7389 23.8173 50.1326 23.9153 50.3019ZM21.5229 41.9385L20.4682 40.1118L22.295 39.0571L23.3497 40.8839L21.5229 41.9385ZM42.2562 17.0574L43.7138 19.582L42.414 21.5505L39.9017 17.1987L42.2562 17.0574ZM31.1906 9.44963C31.4737 8.98656 31.9227 8.93877 32.1048 8.94371C32.2849 8.94577 32.7335 9.0018 33.0042 9.47064L45.2715 30.7189C45.6712 31.4106 45.1854 32.2803 44.3841 32.3001C44.2403 32.3034 44.174 32.3293 43.8057 32.3981L30.8293 9.92218C31.1016 9.57199 31.1367 9.53821 31.1906 9.44963ZM29.4257 11.7102L41.6176 32.8274L23.2174 36.4364L17.6226 26.7461L29.4257 11.7102ZM5.81633 40.0463C5.35325 39.245 5.10853 38.3353 5.10853 37.4149C5.10853 35.5338 6.11955 33.782 7.74649 32.8427L15.9669 28.0966L21.2403 37.2303L13.0199 41.9769C10.5014 43.4303 7.27023 42.5643 5.81633 40.0463Z" fill="url(#paint0_linear_1513_1417)"/>
<path d="M55.4324 9.09038L49.5554 12.3607C49.0466 12.6442 48.8632 13.2865 49.1467 13.7953C49.4293 14.3037 50.0712 14.4878 50.5812 14.204L56.4578 10.9336C56.967 10.6502 57.1499 10.0079 56.8665 9.49907C56.5835 8.98985 55.9412 8.80693 55.4324 9.09038Z" fill="url(#paint1_linear_1513_1417)"/>
<path d="M54.816 20.0138L50.7411 18.922C50.1783 18.7713 49.5999 19.105 49.4491 19.6677C49.2983 20.2305 49.6324 20.8085 50.1952 20.9593L54.2706 22.0511C54.8366 22.2031 55.4122 21.864 55.5621 21.3054C55.7129 20.7426 55.3788 20.1642 54.816 20.0138Z" fill="url(#paint2_linear_1513_1417)"/>
<path d="M44.5757 5.25848L43.4827 9.33386C43.3319 9.89664 43.6656 10.4747 44.2284 10.6259C44.7907 10.7762 45.3692 10.4433 45.5204 9.88016L46.613 5.80478C46.7637 5.242 46.43 4.66357 45.8673 4.51279C45.3049 4.362 44.7265 4.69571 44.5757 5.25848Z" fill="url(#paint3_linear_1513_1417)"/>
<defs>
<linearGradient id="paint0_linear_1513_1417" x1="18.5127" y1="-4.78502" x2="93.9969" y2="41.2841" gradientUnits="userSpaceOnUse">
<stop offset="0.0416667" stop-color="#E32966"/>
<stop offset="0.484375" stop-color="#70358F"/>
<stop offset="0.932292" stop-color="#1B253F"/>
</linearGradient>
<linearGradient id="paint1_linear_1513_1417" x1="18.5127" y1="-4.78502" x2="93.9969" y2="41.2841" gradientUnits="userSpaceOnUse">
<stop offset="0.0416667" stop-color="#E32966"/>
<stop offset="0.484375" stop-color="#70358F"/>
<stop offset="0.932292" stop-color="#1B253F"/>
</linearGradient>
<linearGradient id="paint2_linear_1513_1417" x1="18.5127" y1="-4.78502" x2="93.9969" y2="41.2841" gradientUnits="userSpaceOnUse">
<stop offset="0.0416667" stop-color="#E32966"/>
<stop offset="0.484375" stop-color="#70358F"/>
<stop offset="0.932292" stop-color="#1B253F"/>
</linearGradient>
<linearGradient id="paint3_linear_1513_1417" x1="18.5127" y1="-4.78502" x2="93.9969" y2="41.2841" gradientUnits="userSpaceOnUse">
<stop offset="0.0416667" stop-color="#E32966"/>
<stop offset="0.484375" stop-color="#70358F"/>
<stop offset="0.932292" stop-color="#1B253F"/>
</linearGradient>
</defs>
</svg>
