<svg width="60" height="60" viewBox="0 0 60 60" fill="none" xmlns="http://www.w3.org/2000/svg">
<rect width="60" height="60" rx="5" fill="white"/>
<g clip-path="url(#clip0_1513_1385)">
<path d="M45.3644 4.43432L8.52978 14.3041C8.06924 13.8434 7.46952 13.5476 6.82366 13.4625C6.1778 13.3774 5.52192 13.5079 4.95778 13.8336C4.39365 14.1594 3.95279 14.6622 3.70363 15.2641C3.45446 15.866 3.41092 16.5334 3.57974 17.1625L13.538 54.3273C13.7419 55.085 14.2381 55.7309 14.9177 56.1232C15.5972 56.5156 16.4047 56.6223 17.1629 56.4201L50.7541 47.4194C50.8479 47.3942 50.9359 47.3508 51.013 47.2917C51.0901 47.2325 51.1548 47.1588 51.2034 47.0746C51.2519 46.9905 51.2835 46.8976 51.2962 46.8012C51.3088 46.7049 51.3024 46.607 51.2773 46.5131L50.3197 42.9396L55.3227 41.5991C55.4165 41.5739 55.5045 41.5305 55.5816 41.4714C55.6587 41.4122 55.7234 41.3385 55.772 41.2543C55.8206 41.1702 55.8521 41.0773 55.8648 40.9809C55.8775 40.8846 55.871 40.7867 55.8459 40.6929L46.2706 4.95753C46.2455 4.86367 46.2021 4.77568 46.143 4.69859C46.0838 4.6215 46.01 4.55682 45.9259 4.50824C45.8417 4.45965 45.7488 4.42812 45.6525 4.41544C45.5562 4.40276 45.4583 4.40917 45.3644 4.43432ZM6.05556 14.9671C6.43465 14.866 6.83836 14.9194 7.17814 15.1155C7.51791 15.3117 7.766 15.6347 7.86798 16.0135L17.0602 50.3194L15.6308 50.7024C15.1286 50.8366 14.671 51.1014 14.3045 51.47L5.00915 16.7795C4.90804 16.4004 4.96143 15.9967 5.1576 15.6569C5.35377 15.3172 5.6767 15.0691 6.05556 14.9671ZM49.6564 46.1814L16.7798 54.9907C16.4007 55.0923 15.9968 55.0391 15.6569 54.8428C15.317 54.6466 15.069 54.3234 14.9674 53.9443C14.8658 53.5652 14.919 53.1612 15.1153 52.8213C15.3115 52.4815 15.6347 52.2334 16.0138 52.1319L48.8903 43.3226L49.6564 46.1814ZM54.225 40.3612L18.4896 49.9364L9.2974 15.6305L45.0327 6.05524L54.225 40.3612Z" fill="url(#paint0_linear_1513_1385)"/>
<path d="M15.5263 23.1537C14.8629 23.3315 14.2973 23.7655 13.9539 24.3603C13.6104 24.9551 13.5174 25.662 13.6951 26.3254C13.8729 26.9889 14.3069 27.5545 14.9018 27.8979C15.4966 28.2414 16.2034 28.3344 16.8669 28.1566L17.5816 27.9651C18.2033 27.7991 18.7406 27.4066 19.0878 26.8648C19.3423 27.0172 19.6248 27.1168 19.9186 27.1578C20.2123 27.1987 20.5113 27.1802 20.7978 27.1034L20.4148 25.674C20.2252 25.7245 20.0234 25.6978 19.8535 25.5997C19.6836 25.5017 19.5595 25.3402 19.5085 25.1508L18.551 21.5772C18.3479 20.819 17.8518 20.1726 17.172 19.7801C16.4922 19.3876 15.6844 19.2813 14.9262 19.4844C14.168 19.6876 13.5215 20.1836 13.129 20.8634C12.7366 21.5432 12.6302 22.3511 12.8334 23.1093L14.2628 22.7263C14.1612 22.3471 14.2144 21.9432 14.4106 21.6033C14.6069 21.2634 14.9301 21.0154 15.3092 20.9138C15.6883 20.8122 16.0922 20.8654 16.4321 21.0617C16.772 21.2579 17.02 21.5811 17.1216 21.9602L17.3131 22.6749L15.5263 23.1537ZM17.1986 26.5357L16.4839 26.7272C16.1995 26.8034 15.8966 26.7635 15.6417 26.6164C15.3867 26.4692 15.2007 26.2268 15.1246 25.9424C15.0484 25.6581 15.0882 25.3552 15.2354 25.1002C15.3826 24.8453 15.625 24.6593 15.9094 24.5831L17.6961 24.1044L17.9834 25.1764C18.0592 25.4607 18.0192 25.7635 17.872 26.0183C17.7249 26.2732 17.4827 26.4592 17.1986 26.5357Z" fill="url(#paint1_linear_1513_1385)"/>
<path d="M23.9558 23.1931L27.543 22.2319L29.4803 25.0345L30.6976 24.1931L24.443 15.1447C24.3562 15.0192 24.2327 14.9235 24.0895 14.8709C23.9463 14.8183 23.7902 14.8112 23.6428 14.8507C23.4954 14.8902 23.3639 14.9743 23.2661 15.0915C23.1684 15.2087 23.1093 15.3533 23.0969 15.5054L22.2044 26.4688L23.6793 26.5889L23.9558 23.1931ZM24.4037 17.6904L26.6495 20.9393L24.0833 21.6269L24.4037 17.6904Z" fill="url(#paint2_linear_1513_1385)"/>
<path d="M29.7435 14.7481L44.7523 10.7265L45.1354 12.1559L30.1265 16.1775L29.7435 14.7481Z" fill="url(#paint3_linear_1513_1385)"/>
<path d="M30.5095 17.6069L34.0831 16.6494L34.4661 18.0788L30.8925 19.0363L30.5095 17.6069Z" fill="url(#paint4_linear_1513_1385)"/>
<path d="M35.5125 16.2664L45.5184 13.5853L45.9014 15.0147L35.8955 17.6958L35.5125 16.2664Z" fill="url(#paint5_linear_1513_1385)"/>
<path d="M31.2755 20.4658L39.1373 18.3592L39.5203 19.7886L31.6586 21.8952L31.2755 20.4658Z" fill="url(#paint6_linear_1513_1385)"/>
<path d="M20.1707 38.22C20.1221 38.3042 20.0906 38.3971 20.0779 38.4934C20.0652 38.5897 20.0716 38.6876 20.0968 38.7815C20.1219 38.8754 20.1653 38.9633 20.2245 39.0404C20.2836 39.1175 20.3574 39.1822 20.4416 39.2308L28.5975 43.9396C28.6816 43.9882 28.7745 44.0197 28.8708 44.0324C28.9672 44.0451 29.0651 44.0387 29.1589 44.0135C29.2528 43.9884 29.3408 43.945 29.4179 43.8858C29.4949 43.8267 29.5596 43.7529 29.6082 43.6688L33.2706 37.3253C33.3192 37.2411 33.3507 37.1482 33.3634 37.0519C33.3761 36.9556 33.3697 36.8577 33.3445 36.7638C33.3194 36.67 33.276 36.582 33.2169 36.5049C33.1577 36.4278 33.0839 36.3631 32.9998 36.3145L27.9991 33.4274L28.0088 31.2501C28.0108 30.8056 27.9102 30.3665 27.7149 29.9672C27.5196 29.5678 27.2349 29.2188 26.8828 28.9474C26.5307 28.6759 26.1207 28.4894 25.6848 28.4021C25.2488 28.3149 24.7986 28.3294 24.3692 28.4445C23.7633 28.6089 23.227 28.9653 22.8407 29.4602C22.4544 29.9551 22.2389 30.5619 22.2266 31.1896L22.1677 34.7613L20.1707 38.22ZM31.6191 37.2261L28.6966 42.2881L21.8222 38.3192L24.7448 33.2572L26.5154 34.2795L26.504 36.8632L27.9838 36.8697L27.9915 35.1318L31.6191 37.2261ZM23.7062 31.214C23.7123 30.9075 23.8175 30.6113 24.006 30.3697C24.1946 30.1281 24.4564 29.9541 24.7522 29.8739C24.9619 29.8177 25.1816 29.8106 25.3944 29.8532C25.6073 29.8958 25.8074 29.9869 25.9793 30.1194C26.1512 30.2519 26.2902 30.4223 26.3855 30.6172C26.4808 30.8122 26.5299 31.0265 26.529 31.2436L26.523 32.5752L24.8439 31.6057C24.6739 31.5076 24.472 31.481 24.2824 31.5318C24.0929 31.5826 23.9313 31.7066 23.8332 31.8766L23.6913 32.1223L23.7062 31.214Z" fill="url(#paint7_linear_1513_1385)"/>
<path d="M21.2972 46.1201C21.8654 45.9671 22.3499 45.595 22.6441 45.0853C22.9384 44.5756 23.0184 43.9701 22.8668 43.4014L22.7912 43.1195C22.6782 42.696 22.4419 42.3157 22.1124 42.0267L20.4451 40.5613C20.3536 40.4809 20.2436 40.4243 20.125 40.3966C20.0064 40.3689 19.8828 40.3709 19.7651 40.4024C19.6475 40.4339 19.5394 40.494 19.4505 40.5773C19.3617 40.6607 19.2948 40.7646 19.2557 40.88L18.5444 42.9828C18.4035 43.3978 18.3891 43.8453 18.503 44.2685L18.5785 44.5505C18.7315 45.1188 19.1036 45.6032 19.6133 45.8974C20.1229 46.1917 20.7285 46.2717 21.2972 46.1201ZM19.9324 43.8855C19.8945 43.7444 19.8993 43.5953 19.9462 43.4569L20.3018 42.4055L21.1355 43.1382C21.2453 43.2346 21.3241 43.3613 21.3618 43.5025L21.4373 43.7844C21.4881 43.974 21.4615 44.176 21.3634 44.3459C21.2653 44.5159 21.1037 44.6399 20.9141 44.6907C20.7246 44.7414 20.5226 44.7149 20.3527 44.6167C20.1827 44.5186 20.0587 44.357 20.0079 44.1675L19.9324 43.8855Z" fill="url(#paint8_linear_1513_1385)"/>
<path d="M42.9674 32.6533L44.3968 32.2703L44.7798 33.6997L43.3504 34.0827L42.9674 32.6533Z" fill="url(#paint9_linear_1513_1385)"/>
<path d="M45.8263 31.8873L50.1145 30.7383L50.4975 32.1677L46.2093 33.3167L45.8263 31.8873Z" fill="url(#paint10_linear_1513_1385)"/>
<path d="M43.7334 35.5122L45.1629 35.1291L45.5459 36.5586L44.1165 36.9416L43.7334 35.5122Z" fill="url(#paint11_linear_1513_1385)"/>
<path d="M46.5923 34.7461L50.8805 33.5971L51.2635 35.0265L46.9753 36.1756L46.5923 34.7461Z" fill="url(#paint12_linear_1513_1385)"/>
<path d="M44.4995 38.371L45.9289 37.988L46.3119 39.4174L44.8825 39.8004L44.4995 38.371Z" fill="url(#paint13_linear_1513_1385)"/>
<path d="M47.3583 37.605L51.6465 36.4559L52.0295 37.8853L47.7413 39.0344L47.3583 37.605Z" fill="url(#paint14_linear_1513_1385)"/>
<path d="M47.1017 22.3533L41.3841 23.8853C41.2902 23.9105 41.2022 23.9539 41.1251 24.013C41.048 24.0722 40.9834 24.1459 40.9348 24.2301C40.8862 24.3142 40.8547 24.4071 40.842 24.5035C40.8293 24.5998 40.8357 24.6977 40.8609 24.7916L42.3929 30.5092C42.4181 30.6031 42.4614 30.6911 42.5206 30.7681C42.5797 30.8452 42.6535 30.9099 42.7377 30.9585C42.8218 31.0071 42.9147 31.0386 43.011 31.0513C43.1074 31.064 43.2053 31.0576 43.2991 31.0324L49.0168 29.5004C49.1106 29.4752 49.1986 29.4318 49.2757 29.3727C49.3528 29.3135 49.4175 29.2398 49.4661 29.1556C49.5146 29.0715 49.5462 28.9786 49.5589 28.8822C49.5715 28.7859 49.5651 28.688 49.54 28.5942L48.0079 22.8765C47.9828 22.7826 47.9394 22.6947 47.8802 22.6176C47.8211 22.5405 47.7473 22.4758 47.6632 22.4272C47.579 22.3786 47.4861 22.3471 47.3898 22.3344C47.2935 22.3217 47.1956 22.3282 47.1017 22.3533ZM47.9191 28.2625L43.6308 29.4115L42.4818 25.1233L46.77 23.9742L47.9191 28.2625Z" fill="url(#paint15_linear_1513_1385)"/>
<path d="M34.3909 34.9514L35.8204 34.5684L36.2034 35.9978L34.774 36.3808L34.3909 34.9514Z" fill="url(#paint16_linear_1513_1385)"/>
<path d="M37.2498 34.1854L41.538 33.0363L41.921 34.4658L37.6328 35.6148L37.2498 34.1854Z" fill="url(#paint17_linear_1513_1385)"/>
<path d="M35.157 37.8102L36.5864 37.4272L36.9694 38.8566L35.54 39.2396L35.157 37.8102Z" fill="url(#paint18_linear_1513_1385)"/>
<path d="M38.0158 37.0442L42.304 35.8952L42.687 37.3246L38.3988 38.4736L38.0158 37.0442Z" fill="url(#paint19_linear_1513_1385)"/>
<path d="M35.923 40.669L37.3524 40.286L37.7354 41.7155L36.306 42.0985L35.923 40.669Z" fill="url(#paint20_linear_1513_1385)"/>
<path d="M38.7818 39.903L43.0701 38.754L43.4531 40.1834L39.1648 41.3324L38.7818 39.903Z" fill="url(#paint21_linear_1513_1385)"/>
<path d="M34.7226 33.3305L40.4403 31.7984C40.5342 31.7733 40.6221 31.7299 40.6992 31.6707C40.7763 31.6116 40.841 31.5378 40.8896 31.4537C40.9382 31.3695 40.9697 31.2766 40.9824 31.1803C40.9951 31.084 40.9886 30.9861 40.9635 30.8922L39.4315 25.1746C39.4063 25.0807 39.3629 24.9927 39.3038 24.9156C39.2446 24.8385 39.1709 24.7739 39.0867 24.7253C39.0026 24.6767 38.9097 24.6452 38.8133 24.6325C38.717 24.6198 38.6191 24.6262 38.5252 24.6514L32.8076 26.1834C32.7137 26.2086 32.6257 26.2519 32.5487 26.3111C32.4716 26.3702 32.4069 26.444 32.3583 26.5282C32.3097 26.6123 32.2782 26.7052 32.2655 26.8015C32.2528 26.8979 32.2592 26.9958 32.2844 27.0896L33.8164 32.8073C33.8416 32.9011 33.885 32.9891 33.9441 33.0662C34.0033 33.1433 34.077 33.208 34.1612 33.2566C34.2453 33.3051 34.3382 33.3367 34.4346 33.3494C34.5309 33.362 34.6288 33.3556 34.7226 33.3305ZM33.9053 27.4213L38.1935 26.2723L39.3426 30.5605L35.0543 31.7096L33.9053 27.4213Z" fill="url(#paint22_linear_1513_1385)"/>
</g>
<defs>
<linearGradient id="paint0_linear_1513_1385" x1="13.05" y1="3.23043" x2="84.2915" y2="22.3293" gradientUnits="userSpaceOnUse">
<stop offset="0.0416667" stop-color="#E32966"/>
<stop offset="0.484375" stop-color="#70358F"/>
<stop offset="0.932292" stop-color="#1B253F"/>
</linearGradient>
<linearGradient id="paint1_linear_1513_1385" x1="13.05" y1="3.23043" x2="84.2915" y2="22.3293" gradientUnits="userSpaceOnUse">
<stop offset="0.0416667" stop-color="#E32966"/>
<stop offset="0.484375" stop-color="#70358F"/>
<stop offset="0.932292" stop-color="#1B253F"/>
</linearGradient>
<linearGradient id="paint2_linear_1513_1385" x1="13.05" y1="3.23043" x2="84.2915" y2="22.3293" gradientUnits="userSpaceOnUse">
<stop offset="0.0416667" stop-color="#E32966"/>
<stop offset="0.484375" stop-color="#70358F"/>
<stop offset="0.932292" stop-color="#1B253F"/>
</linearGradient>
<linearGradient id="paint3_linear_1513_1385" x1="13.05" y1="3.23043" x2="84.2915" y2="22.3293" gradientUnits="userSpaceOnUse">
<stop offset="0.0416667" stop-color="#E32966"/>
<stop offset="0.484375" stop-color="#70358F"/>
<stop offset="0.932292" stop-color="#1B253F"/>
</linearGradient>
<linearGradient id="paint4_linear_1513_1385" x1="13.05" y1="3.23043" x2="84.2915" y2="22.3293" gradientUnits="userSpaceOnUse">
<stop offset="0.0416667" stop-color="#E32966"/>
<stop offset="0.484375" stop-color="#70358F"/>
<stop offset="0.932292" stop-color="#1B253F"/>
</linearGradient>
<linearGradient id="paint5_linear_1513_1385" x1="13.05" y1="3.23043" x2="84.2915" y2="22.3293" gradientUnits="userSpaceOnUse">
<stop offset="0.0416667" stop-color="#E32966"/>
<stop offset="0.484375" stop-color="#70358F"/>
<stop offset="0.932292" stop-color="#1B253F"/>
</linearGradient>
<linearGradient id="paint6_linear_1513_1385" x1="13.05" y1="3.23043" x2="84.2915" y2="22.3293" gradientUnits="userSpaceOnUse">
<stop offset="0.0416667" stop-color="#E32966"/>
<stop offset="0.484375" stop-color="#70358F"/>
<stop offset="0.932292" stop-color="#1B253F"/>
</linearGradient>
<linearGradient id="paint7_linear_1513_1385" x1="13.05" y1="3.23043" x2="84.2915" y2="22.3293" gradientUnits="userSpaceOnUse">
<stop offset="0.0416667" stop-color="#E32966"/>
<stop offset="0.484375" stop-color="#70358F"/>
<stop offset="0.932292" stop-color="#1B253F"/>
</linearGradient>
<linearGradient id="paint8_linear_1513_1385" x1="13.05" y1="3.23043" x2="84.2915" y2="22.3293" gradientUnits="userSpaceOnUse">
<stop offset="0.0416667" stop-color="#E32966"/>
<stop offset="0.484375" stop-color="#70358F"/>
<stop offset="0.932292" stop-color="#1B253F"/>
</linearGradient>
<linearGradient id="paint9_linear_1513_1385" x1="13.05" y1="3.23043" x2="84.2915" y2="22.3293" gradientUnits="userSpaceOnUse">
<stop offset="0.0416667" stop-color="#E32966"/>
<stop offset="0.484375" stop-color="#70358F"/>
<stop offset="0.932292" stop-color="#1B253F"/>
</linearGradient>
<linearGradient id="paint10_linear_1513_1385" x1="13.05" y1="3.23043" x2="84.2915" y2="22.3293" gradientUnits="userSpaceOnUse">
<stop offset="0.0416667" stop-color="#E32966"/>
<stop offset="0.484375" stop-color="#70358F"/>
<stop offset="0.932292" stop-color="#1B253F"/>
</linearGradient>
<linearGradient id="paint11_linear_1513_1385" x1="13.05" y1="3.23043" x2="84.2915" y2="22.3293" gradientUnits="userSpaceOnUse">
<stop offset="0.0416667" stop-color="#E32966"/>
<stop offset="0.484375" stop-color="#70358F"/>
<stop offset="0.932292" stop-color="#1B253F"/>
</linearGradient>
<linearGradient id="paint12_linear_1513_1385" x1="13.05" y1="3.23043" x2="84.2915" y2="22.3293" gradientUnits="userSpaceOnUse">
<stop offset="0.0416667" stop-color="#E32966"/>
<stop offset="0.484375" stop-color="#70358F"/>
<stop offset="0.932292" stop-color="#1B253F"/>
</linearGradient>
<linearGradient id="paint13_linear_1513_1385" x1="13.05" y1="3.23043" x2="84.2915" y2="22.3293" gradientUnits="userSpaceOnUse">
<stop offset="0.0416667" stop-color="#E32966"/>
<stop offset="0.484375" stop-color="#70358F"/>
<stop offset="0.932292" stop-color="#1B253F"/>
</linearGradient>
<linearGradient id="paint14_linear_1513_1385" x1="13.05" y1="3.23043" x2="84.2915" y2="22.3293" gradientUnits="userSpaceOnUse">
<stop offset="0.0416667" stop-color="#E32966"/>
<stop offset="0.484375" stop-color="#70358F"/>
<stop offset="0.932292" stop-color="#1B253F"/>
</linearGradient>
<linearGradient id="paint15_linear_1513_1385" x1="13.05" y1="3.23043" x2="84.2915" y2="22.3293" gradientUnits="userSpaceOnUse">
<stop offset="0.0416667" stop-color="#E32966"/>
<stop offset="0.484375" stop-color="#70358F"/>
<stop offset="0.932292" stop-color="#1B253F"/>
</linearGradient>
<linearGradient id="paint16_linear_1513_1385" x1="13.05" y1="3.23043" x2="84.2915" y2="22.3293" gradientUnits="userSpaceOnUse">
<stop offset="0.0416667" stop-color="#E32966"/>
<stop offset="0.484375" stop-color="#70358F"/>
<stop offset="0.932292" stop-color="#1B253F"/>
</linearGradient>
<linearGradient id="paint17_linear_1513_1385" x1="13.05" y1="3.23043" x2="84.2915" y2="22.3293" gradientUnits="userSpaceOnUse">
<stop offset="0.0416667" stop-color="#E32966"/>
<stop offset="0.484375" stop-color="#70358F"/>
<stop offset="0.932292" stop-color="#1B253F"/>
</linearGradient>
<linearGradient id="paint18_linear_1513_1385" x1="13.05" y1="3.23043" x2="84.2915" y2="22.3293" gradientUnits="userSpaceOnUse">
<stop offset="0.0416667" stop-color="#E32966"/>
<stop offset="0.484375" stop-color="#70358F"/>
<stop offset="0.932292" stop-color="#1B253F"/>
</linearGradient>
<linearGradient id="paint19_linear_1513_1385" x1="13.05" y1="3.23043" x2="84.2915" y2="22.3293" gradientUnits="userSpaceOnUse">
<stop offset="0.0416667" stop-color="#E32966"/>
<stop offset="0.484375" stop-color="#70358F"/>
<stop offset="0.932292" stop-color="#1B253F"/>
</linearGradient>
<linearGradient id="paint20_linear_1513_1385" x1="13.05" y1="3.23043" x2="84.2915" y2="22.3293" gradientUnits="userSpaceOnUse">
<stop offset="0.0416667" stop-color="#E32966"/>
<stop offset="0.484375" stop-color="#70358F"/>
<stop offset="0.932292" stop-color="#1B253F"/>
</linearGradient>
<linearGradient id="paint21_linear_1513_1385" x1="13.05" y1="3.23043" x2="84.2915" y2="22.3293" gradientUnits="userSpaceOnUse">
<stop offset="0.0416667" stop-color="#E32966"/>
<stop offset="0.484375" stop-color="#70358F"/>
<stop offset="0.932292" stop-color="#1B253F"/>
</linearGradient>
<linearGradient id="paint22_linear_1513_1385" x1="13.05" y1="3.23043" x2="84.2915" y2="22.3293" gradientUnits="userSpaceOnUse">
<stop offset="0.0416667" stop-color="#E32966"/>
<stop offset="0.484375" stop-color="#70358F"/>
<stop offset="0.932292" stop-color="#1B253F"/>
</linearGradient>
<clipPath id="clip0_1513_1385">
<rect width="54" height="54" fill="white" transform="translate(3 3)"/>
</clipPath>
</defs>
</svg>
