<svg width="330" height="112" viewBox="0 0 330 112" fill="none" xmlns="http://www.w3.org/2000/svg">
<g opacity="0.3">
<mask id="mask0_1513_1521" style="mask-type:alpha" maskUnits="userSpaceOnUse" x="0" y="0" width="330" height="112">
<rect width="330" height="112" rx="20" fill="white"/>
</mask>
<g mask="url(#mask0_1513_1521)">
<path fill-rule="evenodd" clip-rule="evenodd" d="M383.108 -20.3409C369.988 -12.6201 361.747 7.6524 346.695 5.38546C332.968 3.31802 326.57 -15.2573 324.604 -29.1524C322.885 -41.3096 336.599 -50.4735 337.059 -62.7362C337.609 -77.3574 317.864 -93.5513 327.435 -104.485C336.844 -115.235 354.597 -97.281 368.724 -98.9122C381.235 -100.357 390.355 -115.633 402.727 -113.18C415.447 -110.657 424.397 -98.4164 430.258 -86.7097C436.015 -75.2113 439.78 -61.083 434.708 -49.3058C429.886 -38.1088 416.052 -35.1419 405.497 -29.2167C398.315 -25.1853 390.208 -24.5185 383.108 -20.3409Z" stroke="url(#paint0_linear_1513_1521)"/>
<path fill-rule="evenodd" clip-rule="evenodd" d="M371.279 -4.59213C356.093 4.34447 346.554 27.8095 329.132 25.1856C313.243 22.7926 305.837 1.29195 303.562 -14.7913C301.572 -28.863 317.445 -39.4701 317.979 -53.6639C318.614 -70.5876 295.761 -89.3317 306.838 -101.987C317.729 -114.43 338.278 -93.6488 354.63 -95.537C369.111 -97.2091 379.667 -114.891 393.988 -112.051C408.711 -109.131 419.07 -94.963 425.855 -81.4127C432.518 -68.1036 436.876 -51.7503 431.005 -38.1185C425.423 -25.1582 409.411 -21.724 397.194 -14.8657C388.881 -10.1994 379.497 -9.42765 371.279 -4.59213Z" stroke="url(#paint1_linear_1513_1521)"/>
<path fill-rule="evenodd" clip-rule="evenodd" d="M359.452 11.1566C342.2 21.3091 331.362 47.9666 311.571 44.9857C293.52 42.2671 285.106 17.8412 282.522 -0.430175C280.26 -16.4164 298.294 -28.4666 298.9 -44.5916C299.622 -63.8179 273.659 -85.1122 286.244 -99.4897C298.617 -113.626 321.961 -90.0166 340.537 -92.1617C356.988 -94.0614 368.981 -114.149 385.251 -110.923C401.977 -107.606 413.745 -91.5096 421.453 -76.1158C429.023 -60.9958 433.974 -42.4177 427.304 -26.9312C420.963 -12.2075 402.772 -8.30619 388.892 -0.514785C379.449 4.78642 368.788 5.66319 359.452 11.1566Z" stroke="url(#paint2_linear_1513_1521)"/>
<path fill-rule="evenodd" clip-rule="evenodd" d="M346.431 28.5685C326.905 40.0584 314.64 70.2278 292.241 66.8541C271.813 63.7774 262.291 36.1337 259.366 15.4553C256.806 -2.63689 277.215 -16.2746 277.901 -34.5238C278.719 -56.2829 249.335 -80.3824 263.578 -96.654C277.581 -112.652 304.001 -85.9329 325.024 -88.3606C343.642 -90.5105 357.215 -113.244 375.628 -109.593C394.557 -105.839 407.876 -87.6226 416.599 -70.2009C425.166 -53.0891 430.769 -32.0635 423.221 -14.5368C416.044 2.12642 395.458 6.54173 379.749 15.3596C369.061 21.3591 356.996 22.3514 346.431 28.5685Z" stroke="url(#paint3_linear_1513_1521)"/>
<path fill-rule="evenodd" clip-rule="evenodd" d="M334.506 45.2117C312.914 57.9175 299.352 91.2794 274.582 87.5488C251.992 84.1465 241.462 53.5776 238.228 30.7109C235.398 10.7042 257.966 -4.37662 258.725 -24.557C259.629 -48.6186 227.136 -75.2684 242.886 -93.2618C258.37 -110.953 287.586 -81.4062 310.834 -84.0907C331.423 -86.4682 346.431 -111.608 366.793 -107.57C387.725 -103.419 402.454 -83.2747 412.099 -64.0094C421.574 -45.0868 427.769 -21.8363 419.422 -2.45496C411.486 15.9716 388.721 20.8541 371.35 30.605C359.531 37.2395 346.189 38.3368 334.506 45.2117Z" stroke="url(#paint4_linear_1513_1521)"/>
<path fill-rule="evenodd" clip-rule="evenodd" d="M322.679 60.9605C299.021 74.8821 284.161 111.437 257.021 107.349C232.269 103.621 220.731 70.1269 217.187 45.072C214.087 23.1508 238.815 6.62682 239.646 -15.4847C240.636 -41.8488 205.035 -71.0488 222.291 -90.7641C239.258 -110.148 271.269 -77.774 296.742 -80.7155C319.3 -83.3204 335.745 -110.866 358.055 -106.442C380.991 -101.893 397.129 -79.8213 407.698 -58.7124C418.078 -37.9791 424.867 -12.5037 415.721 8.73237C407.025 28.9222 382.082 34.272 363.049 44.956C350.099 52.2253 335.48 53.4276 322.679 60.9605Z" stroke="url(#paint5_linear_1513_1521)"/>
<path fill-rule="evenodd" clip-rule="evenodd" d="M310.85 76.7092C285.126 91.8467 268.968 131.594 239.458 127.149C212.544 123.096 199.999 86.6761 196.145 59.4331C192.774 35.5974 219.662 17.6302 220.565 -6.41238C221.642 -35.0791 182.931 -66.8293 201.695 -88.2665C220.143 -109.343 254.95 -74.1419 282.648 -77.3402C307.176 -80.1727 325.058 -110.124 349.316 -105.313C374.255 -100.368 391.802 -76.368 403.294 -53.4155C414.581 -30.8714 421.963 -3.17103 412.018 19.9197C402.563 41.8728 375.441 47.6898 354.746 59.307C340.665 67.2112 324.769 68.5184 310.85 76.7092Z" stroke="url(#paint6_linear_1513_1521)"/>
<path fill-rule="evenodd" clip-rule="evenodd" d="M299.021 92.4579C271.231 108.811 253.775 151.751 221.894 146.949C192.819 142.57 179.266 103.225 175.103 73.7942C171.461 48.044 200.508 28.6337 201.484 2.65992C202.648 -28.3093 160.827 -62.6098 181.098 -85.7688C201.028 -108.538 238.631 -70.5097 268.553 -73.9649C295.052 -77.0249 314.37 -109.382 340.577 -104.185C367.518 -98.8419 386.475 -72.9146 398.89 -48.1185C411.084 -23.7636 419.059 6.16162 408.315 31.107C398.101 54.8235 368.8 61.1077 346.443 73.6579C331.231 82.197 314.058 83.6093 299.021 92.4579Z" stroke="url(#paint7_linear_1513_1521)"/>
<path fill-rule="evenodd" clip-rule="evenodd" d="M287.194 108.207C257.338 125.776 238.584 171.908 204.333 166.749C173.096 162.045 158.535 119.775 154.063 88.1553C150.15 60.4905 181.357 39.6371 182.406 11.7322C183.656 -21.5396 138.726 -58.3902 160.504 -83.2711C181.916 -107.734 222.315 -66.8775 254.461 -70.5896C282.93 -73.8771 303.684 -108.639 331.84 -103.056C360.784 -97.3163 381.15 -69.4612 394.488 -42.8216C407.589 -16.6559 416.156 15.4943 404.614 42.2943C393.64 67.7741 362.161 74.5256 338.142 88.0089C321.799 97.1828 303.349 98.7001 287.194 108.207Z" stroke="url(#paint8_linear_1513_1521)"/>
<path fill-rule="evenodd" clip-rule="evenodd" d="M275.365 123.952C243.442 142.737 223.391 192.061 186.77 186.545C153.371 181.515 137.803 136.32 133.021 102.513C128.837 72.9332 162.204 50.6366 163.325 20.8006C164.661 -14.7737 116.622 -54.1746 139.907 -80.7774C162.801 -106.933 205.996 -63.2492 240.367 -67.2182C270.806 -70.7332 292.996 -107.901 323.1 -101.932C354.048 -95.7945 375.824 -66.0117 390.085 -37.5286C404.092 -9.5521 413.252 24.823 400.911 53.4778C389.178 80.7208 355.521 87.9395 329.838 102.356C312.364 112.165 292.638 113.787 275.365 123.952Z" stroke="url(#paint9_linear_1513_1521)"/>
<path fill-rule="evenodd" clip-rule="evenodd" d="M263.442 140.599C229.454 160.6 208.104 213.117 169.113 207.244C133.553 201.888 116.976 153.768 111.885 117.772C107.43 86.2782 142.957 62.5385 144.15 30.7714C145.573 -7.10549 94.4249 -49.0566 119.217 -77.3812C143.593 -105.23 189.583 -58.7186 226.179 -62.9445C258.589 -66.687 282.215 -106.261 314.267 -99.9046C347.218 -93.3703 370.403 -61.6599 385.587 -31.3332C400.501 -1.54594 410.254 35.0541 397.114 65.5635C384.621 94.5699 348.786 102.256 321.441 117.605C302.836 128.049 281.834 129.776 263.442 140.599Z" stroke="url(#paint10_linear_1513_1521)"/>
<path fill-rule="evenodd" clip-rule="evenodd" d="M251.614 156.347C215.558 177.564 192.911 233.274 151.549 227.044C113.828 221.363 96.2436 170.317 90.8425 132.133C86.1168 98.7248 123.803 73.5419 125.07 39.8436C126.579 -0.335758 72.3214 -44.8371 98.6207 -74.8836C124.478 -104.425 173.264 -55.0864 212.085 -59.5692C246.465 -63.5393 271.527 -105.519 305.528 -98.7762C340.482 -91.8447 365.076 -58.2065 381.183 -26.0362C397.004 5.56176 407.35 44.3867 393.411 76.7508C380.159 107.521 342.145 115.674 313.138 131.956C293.402 143.035 271.123 144.867 251.614 156.347Z" stroke="url(#paint11_linear_1513_1521)"/>
<path fill-rule="evenodd" clip-rule="evenodd" d="M239.785 172.092C201.663 194.525 177.718 253.427 133.986 246.84C94.1026 240.833 75.511 186.863 69.8003 146.49C64.8038 111.167 104.65 84.5415 105.989 48.9121C107.585 6.43012 50.2178 -40.6214 78.0243 -72.3898C105.363 -103.624 156.945 -51.4581 197.99 -56.1978C234.341 -60.3954 260.839 -104.781 296.789 -97.6516C333.746 -90.3228 359.749 -54.757 376.78 -20.7432C393.507 12.6656 404.446 53.7155 389.708 87.9343C375.697 120.467 335.504 129.088 304.835 146.303C283.968 158.017 260.412 159.954 239.785 172.092Z" stroke="url(#paint12_linear_1513_1521)"/>
<path fill-rule="evenodd" clip-rule="evenodd" d="M227.956 187.841C187.768 211.49 162.525 273.584 116.423 266.641C74.3776 260.308 54.7783 203.412 48.7581 160.851C43.4908 123.614 85.4968 95.5449 86.9081 57.9843C88.5908 13.1999 28.1142 -36.4019 57.4279 -69.8921C86.2485 -102.819 140.626 -47.826 183.896 -52.8226C222.217 -57.2476 250.151 -104.038 288.049 -96.5232C327.009 -88.7972 354.423 -51.3037 372.376 -15.4462C390.01 19.7733 401.541 63.0481 386.005 99.1216C371.234 133.418 328.863 142.505 296.532 160.654C274.534 173.003 249.701 175.045 227.956 187.841Z" stroke="url(#paint13_linear_1513_1521)"/>
<path fill-rule="evenodd" clip-rule="evenodd" d="M216.127 203.59C173.873 228.454 147.332 293.741 98.8594 286.441C54.6526 279.783 34.0456 219.961 27.7159 175.213C22.1778 136.061 66.3435 106.548 67.8273 67.0567C69.5965 19.9696 6.01064 -32.1824 36.8314 -67.3944C67.1339 -102.014 124.307 -44.1938 169.802 -49.4472C210.093 -54.0998 239.464 -103.296 279.31 -95.3947C320.273 -87.2715 349.096 -47.8503 367.972 -10.1493C386.513 26.881 398.637 72.3808 382.302 110.309C366.772 146.369 322.222 155.923 288.229 175.005C265.1 187.988 238.99 190.136 216.127 203.59Z" stroke="url(#paint14_linear_1513_1521)"/>
<path fill-rule="evenodd" clip-rule="evenodd" d="M204.204 220.237C159.884 246.317 132.045 314.797 81.2023 307.139C34.8339 300.155 13.2192 237.409 6.57995 190.472C0.771074 149.406 47.0964 118.45 48.6528 77.0274C50.5085 27.6378 -16.1867 -27.0644 16.1412 -63.9984C47.9254 -100.311 107.895 -39.6632 155.614 -45.1735C197.875 -50.0536 228.682 -101.656 270.477 -93.3678C313.443 -84.8474 343.675 -43.4985 363.475 -3.9539C382.922 34.8872 395.639 82.6119 378.505 122.395C362.215 160.218 315.488 170.24 279.832 190.255C255.572 203.873 228.185 206.125 204.204 220.237Z" stroke="url(#paint15_linear_1513_1521)"/>
<path fill-rule="evenodd" clip-rule="evenodd" d="M192.377 235.982C145.991 263.278 116.854 334.95 63.641 326.935C15.1108 319.626 -7.51152 253.954 -14.4603 204.829C-20.54 161.848 27.9451 129.45 29.574 86.0958C31.5162 34.4037 -38.2883 -22.8488 -4.45329 -61.5046C28.8127 -99.5103 91.5779 -36.0349 141.522 -41.8022C185.753 -46.9097 217.996 -100.918 261.74 -92.2432C306.709 -83.3256 338.351 -40.049 359.073 1.33914C379.426 41.991 392.737 91.9406 374.804 133.578C357.755 173.164 308.849 183.654 271.531 204.602C246.14 218.855 217.476 221.212 192.377 235.982Z" stroke="url(#paint16_linear_1513_1521)"/>
<path fill-rule="evenodd" clip-rule="evenodd" d="M180.548 251.73C132.096 280.242 101.661 355.107 46.0777 346.736C-4.61417 339.101 -28.2442 270.503 -35.5025 219.19C-41.853 174.295 8.79176 140.453 10.4933 95.1681C12.522 41.1734 -60.3919 -18.6292 -25.0497 -59.0069C9.69807 -98.7055 75.259 -32.4027 127.428 -38.4269C173.629 -43.762 207.308 -100.176 253 -91.1147C299.973 -81.7999 333.024 -36.5956 354.669 6.63609C375.929 49.0987 389.833 101.273 371.101 144.765C353.292 186.115 302.208 197.071 263.227 218.953C236.705 233.841 206.765 236.303 180.548 251.73Z" stroke="url(#paint17_linear_1513_1521)"/>
</g>
</g>
<defs>
<linearGradient id="paint0_linear_1513_1521" x1="417.432" y1="14.3921" x2="285.141" y2="-79.8389" gradientUnits="userSpaceOnUse">
<stop offset="0.0416667" stop-color="#E32966"/>
<stop offset="0.484375" stop-color="#70358F"/>
<stop offset="0.932292" stop-color="#1B253F"/>
</linearGradient>
<linearGradient id="paint1_linear_1513_1521" x1="411.009" y1="35.6106" x2="257.884" y2="-73.46" gradientUnits="userSpaceOnUse">
<stop offset="0.0416667" stop-color="#E32966"/>
<stop offset="0.484375" stop-color="#70358F"/>
<stop offset="0.932292" stop-color="#1B253F"/>
</linearGradient>
<linearGradient id="paint2_linear_1513_1521" x1="404.587" y1="56.829" x2="230.629" y2="-67.081" gradientUnits="userSpaceOnUse">
<stop offset="0.0416667" stop-color="#E32966"/>
<stop offset="0.484375" stop-color="#70358F"/>
<stop offset="0.932292" stop-color="#1B253F"/>
</linearGradient>
<linearGradient id="paint3_linear_1513_1521" x1="397.511" y1="80.2577" x2="200.636" y2="-59.9759" gradientUnits="userSpaceOnUse">
<stop offset="0.0416667" stop-color="#E32966"/>
<stop offset="0.484375" stop-color="#70358F"/>
<stop offset="0.932292" stop-color="#1B253F"/>
</linearGradient>
<linearGradient id="paint4_linear_1513_1521" x1="390.992" y1="102.371" x2="173.284" y2="-52.7024" gradientUnits="userSpaceOnUse">
<stop offset="0.0416667" stop-color="#E32966"/>
<stop offset="0.484375" stop-color="#70358F"/>
<stop offset="0.932292" stop-color="#1B253F"/>
</linearGradient>
<linearGradient id="paint5_linear_1513_1521" x1="384.57" y1="123.589" x2="146.029" y2="-46.3235" gradientUnits="userSpaceOnUse">
<stop offset="0.0416667" stop-color="#E32966"/>
<stop offset="0.484375" stop-color="#70358F"/>
<stop offset="0.932292" stop-color="#1B253F"/>
</linearGradient>
<linearGradient id="paint6_linear_1513_1521" x1="378.147" y1="144.808" x2="118.772" y2="-39.9446" gradientUnits="userSpaceOnUse">
<stop offset="0.0416667" stop-color="#E32966"/>
<stop offset="0.484375" stop-color="#70358F"/>
<stop offset="0.932292" stop-color="#1B253F"/>
</linearGradient>
<linearGradient id="paint7_linear_1513_1521" x1="371.723" y1="166.026" x2="91.5147" y2="-33.5656" gradientUnits="userSpaceOnUse">
<stop offset="0.0416667" stop-color="#E32966"/>
<stop offset="0.484375" stop-color="#70358F"/>
<stop offset="0.932292" stop-color="#1B253F"/>
</linearGradient>
<linearGradient id="paint8_linear_1513_1521" x1="365.302" y1="187.245" x2="64.2597" y2="-27.1866" gradientUnits="userSpaceOnUse">
<stop offset="0.0416667" stop-color="#E32966"/>
<stop offset="0.484375" stop-color="#70358F"/>
<stop offset="0.932292" stop-color="#1B253F"/>
</linearGradient>
<linearGradient id="paint9_linear_1513_1521" x1="358.878" y1="208.459" x2="37.0028" y2="-20.8116" gradientUnits="userSpaceOnUse">
<stop offset="0.0416667" stop-color="#E32966"/>
<stop offset="0.484375" stop-color="#70358F"/>
<stop offset="0.932292" stop-color="#1B253F"/>
</linearGradient>
<linearGradient id="paint10_linear_1513_1521" x1="352.361" y1="230.576" x2="9.65212" y2="-13.5342" gradientUnits="userSpaceOnUse">
<stop offset="0.0416667" stop-color="#E32966"/>
<stop offset="0.484375" stop-color="#70358F"/>
<stop offset="0.932292" stop-color="#1B253F"/>
</linearGradient>
<linearGradient id="paint11_linear_1513_1521" x1="345.937" y1="251.795" x2="-17.6048" y2="-7.15526" gradientUnits="userSpaceOnUse">
<stop offset="0.0416667" stop-color="#E32966"/>
<stop offset="0.484375" stop-color="#70358F"/>
<stop offset="0.932292" stop-color="#1B253F"/>
</linearGradient>
<linearGradient id="paint12_linear_1513_1521" x1="339.513" y1="273.009" x2="-44.8618" y2="-0.780227" gradientUnits="userSpaceOnUse">
<stop offset="0.0416667" stop-color="#E32966"/>
<stop offset="0.484375" stop-color="#70358F"/>
<stop offset="0.932292" stop-color="#1B253F"/>
</linearGradient>
<linearGradient id="paint13_linear_1513_1521" x1="333.09" y1="294.228" x2="-72.1187" y2="5.59872" gradientUnits="userSpaceOnUse">
<stop offset="0.0416667" stop-color="#E32966"/>
<stop offset="0.484375" stop-color="#70358F"/>
<stop offset="0.932292" stop-color="#1B253F"/>
</linearGradient>
<linearGradient id="paint14_linear_1513_1521" x1="326.666" y1="315.446" x2="-99.3756" y2="11.9777" gradientUnits="userSpaceOnUse">
<stop offset="0.0416667" stop-color="#E32966"/>
<stop offset="0.484375" stop-color="#70358F"/>
<stop offset="0.932292" stop-color="#1B253F"/>
</linearGradient>
<linearGradient id="paint15_linear_1513_1521" x1="320.149" y1="337.563" x2="-126.726" y2="19.2551" gradientUnits="userSpaceOnUse">
<stop offset="0.0416667" stop-color="#E32966"/>
<stop offset="0.484375" stop-color="#70358F"/>
<stop offset="0.932292" stop-color="#1B253F"/>
</linearGradient>
<linearGradient id="paint16_linear_1513_1521" x1="313.727" y1="358.778" x2="-153.981" y2="25.6301" gradientUnits="userSpaceOnUse">
<stop offset="0.0416667" stop-color="#E32966"/>
<stop offset="0.484375" stop-color="#70358F"/>
<stop offset="0.932292" stop-color="#1B253F"/>
</linearGradient>
<linearGradient id="paint17_linear_1513_1521" x1="307.304" y1="379.996" x2="-181.238" y2="32.009" gradientUnits="userSpaceOnUse">
<stop offset="0.0416667" stop-color="#E32966"/>
<stop offset="0.484375" stop-color="#70358F"/>
<stop offset="0.932292" stop-color="#1B253F"/>
</linearGradient>
</defs>
</svg>
