<svg width="104" height="74" viewBox="0 0 104 74" fill="none" xmlns="http://www.w3.org/2000/svg">
<path fill-rule="evenodd" clip-rule="evenodd" d="M51.5041 2.01698C51.3533 2.02942 50.9324 2.05399 50.5687 2.07154C47.5937 2.21519 44.3713 2.86675 41.5068 3.9038C39.1908 4.74229 36.9697 5.84707 34.9487 7.16585L34.4587 7.4856L35.7062 7.49313L36.9537 7.50064L37.2788 7.31617C41.0515 5.17538 45.328 3.85097 49.6854 3.47398C51.3232 3.33229 53.3884 3.33229 55.0261 3.47398C59.3914 3.85167 63.6285 5.16404 67.4328 7.31669L67.7579 7.50064L69.0054 7.49313L70.2528 7.4856L69.7628 7.16568C67.7385 5.84404 65.5302 4.7457 63.2047 3.9038C60.3508 2.87059 57.1279 2.21735 54.1745 2.07347C53.8252 2.05644 53.3705 2.02982 53.1641 2.01426C52.7367 1.9821 51.9102 1.98346 51.5041 2.01698ZM32.6096 11.1537C31.2877 11.3328 30.0813 11.8291 29.1594 12.5729C28.8546 12.8188 28.3696 13.3307 28.1587 13.6292C27.8163 14.1137 27.5364 14.7519 27.3924 15.3766L27.3281 15.6554L27.3197 23.8541C27.3137 29.6513 27.3204 32.097 27.3425 32.2035C27.4778 32.8568 28.1276 33.2965 28.8084 33.1955C29.3117 33.121 29.6879 32.8231 29.8629 32.3608L29.9248 32.1972L29.9393 24.0707L29.9537 15.9441L30.022 15.742C30.1209 15.4491 30.2312 15.2447 30.4125 15.0181C30.8702 14.4462 31.6454 14.0285 32.642 13.8168L32.956 13.7501L39.0762 13.7416C43.4835 13.7354 45.2769 13.7421 45.4842 13.7656C46.7619 13.9102 47.9282 14.5854 48.3387 15.4181C48.5548 15.8565 48.5429 15.687 48.5526 18.4773L48.5614 20.9817H40.4195H32.2776V22.2952V23.6088H40.4186H48.5595L48.5599 27.8452C48.5602 31.4249 48.5666 32.1057 48.6015 32.2367C48.7402 32.758 49.1379 33.1113 49.6794 33.1945C50.3594 33.299 51.0214 32.8548 51.1564 32.2035C51.1784 32.097 51.1851 29.6554 51.1791 23.8686L51.1707 15.6843L51.1047 15.3956C51.005 14.9595 50.886 14.624 50.6952 14.2409C49.8667 12.5774 47.9628 11.384 45.7449 11.1379C45.5791 11.1195 43.2073 11.1101 39.1917 11.1118C34.0695 11.114 32.8446 11.1218 32.6096 11.1537ZM58.9956 11.1711C57.4535 11.3452 55.9294 12.0604 54.9678 13.0611C54.2838 13.7731 53.8832 14.5305 53.6922 15.4728L53.626 15.7998V22.1076V28.4154L53.6922 28.7424C53.7828 29.1892 53.9015 29.5353 54.1049 29.9454C54.9308 31.6107 56.8301 32.8017 59.0533 33.0484C59.2182 33.0667 61.599 33.0773 65.5689 33.0774C72.3167 33.0777 72.0485 33.0832 72.7945 32.9289C73.7818 32.7247 74.7752 32.2782 75.5373 31.6961C75.799 31.4963 76.2869 31.0135 76.4897 30.7538C76.9473 30.1678 77.2393 29.5494 77.4031 28.8195C77.4656 28.541 77.4682 28.4692 77.4785 26.7699C77.4898 24.8992 77.4822 24.7448 77.3532 24.2298C76.9832 22.7526 75.8492 21.4987 74.2342 20.7811C73.6415 20.5177 73.0228 20.3391 72.304 20.2238L71.8998 20.1589H67.5118H63.1238L62.9385 20.2258C62.4004 20.4201 62.0708 20.8937 62.0708 21.4725C62.0708 22.0723 62.4308 22.5604 63.004 22.7377C63.1362 22.7785 63.6396 22.7855 67.5407 22.8005C71.8995 22.8172 71.9305 22.8178 72.1991 22.8795C73.0333 23.0712 73.7305 23.4167 74.1903 23.8663C74.4194 24.0903 74.537 24.2546 74.6729 24.5408C74.8512 24.9162 74.8578 24.9902 74.8584 26.6198C74.8589 28.2892 74.856 28.3173 74.6367 28.7743C74.5242 29.0087 74.4674 29.0855 74.2278 29.3267C74.0747 29.4807 73.8542 29.6681 73.7377 29.743C73.2874 30.0327 72.7349 30.2494 72.1381 30.3703L71.8132 30.4362H65.5343H59.2554L58.9523 30.3696C57.696 30.0936 56.814 29.5108 56.4386 28.7088C56.2384 28.2809 56.2553 28.8445 56.2453 22.2664C56.2393 18.3647 56.2463 16.243 56.2654 16.0972C56.4001 15.074 57.278 14.273 58.6478 13.9236C58.855 13.8708 59.1413 13.8134 59.2842 13.7961C59.465 13.7743 61.6981 13.7647 66.6188 13.7646C71.575 13.7646 73.7448 13.7552 73.8648 13.7332C74.6012 13.5987 75.0663 12.8501 74.8735 12.1098C74.7545 11.653 74.4528 11.3272 74.0259 11.1945C73.8451 11.1383 73.7359 11.1375 66.5345 11.1413C62.4038 11.1434 59.1261 11.1564 58.9956 11.1711ZM2.34086 13.7362C1.85318 13.8209 1.49723 14.1227 1.35861 14.5687C1.28629 14.8014 1.28664 14.9514 1.36014 15.1893C1.45185 15.4863 1.65194 15.7221 1.9367 15.8688C2.27285 16.042 1.61219 16.0307 11.4417 16.0307C16.4074 16.0307 20.4696 16.0372 20.4687 16.0452C20.4678 16.0531 16.2705 19.4112 11.1413 23.5077C6.01217 27.6042 1.75058 31.014 1.67117 31.0852C1.42803 31.3029 1.28335 31.6715 1.3091 32.0074C1.35194 32.5658 1.75356 32.9818 2.34086 33.076C2.60201 33.1179 23.8451 33.1181 24.1078 33.0762C24.5177 33.0108 24.8694 32.762 25.0391 32.4173C25.1257 32.2413 25.1326 32.2058 25.1326 31.938C25.1326 31.6851 25.123 31.6281 25.0559 31.4848C24.9118 31.1775 24.6672 30.9697 24.3016 30.8442L24.1222 30.7826L15.0616 30.7682L6.001 30.7538L7.97437 29.1785C9.47462 27.9809 24.2415 16.1787 24.8065 15.7257C24.8738 15.6718 24.9542 15.5577 25.0231 15.4182C25.13 15.2019 25.1326 15.1887 25.1326 14.8769C25.1326 14.5746 25.1276 14.5468 25.0388 14.3666C24.8747 14.0332 24.5434 13.802 24.1367 13.7372C23.9131 13.7015 2.54586 13.7005 2.34086 13.7362ZM85.2083 13.7393C84.3519 13.8143 83.4672 14.0382 82.6628 14.3834C81.2391 14.9946 80.2129 16.016 79.8443 17.1889C79.6705 17.7416 79.6799 17.2894 79.6799 25.0953C79.6799 33.0074 79.6636 32.3711 79.8746 32.6749C80.0018 32.8581 80.2743 33.054 80.4972 33.1225C80.71 33.188 81.0856 33.2081 81.3026 33.1656C81.7833 33.0713 82.152 32.7478 82.2658 32.3203C82.2995 32.1937 82.3064 31.5487 82.3066 28.4659L82.307 24.7635H90.4479H98.5889V23.5943V22.4251H90.4469H82.305L82.3137 20.195L82.3223 17.9649L82.3892 17.7853C82.6802 17.0038 83.5338 16.4349 84.8597 16.1389L85.2083 16.0611L91.4583 16.0526C98.2787 16.0432 97.9867 16.037 98.637 16.2059C99.9004 16.5342 100.714 17.1817 100.884 17.9938C100.92 18.1679 100.926 19.1644 100.927 25.1946C100.927 32.9854 100.911 32.3595 101.127 32.6733C101.255 32.8593 101.523 33.0543 101.743 33.1222C101.826 33.1477 102.001 33.1759 102.131 33.1849C102.733 33.2261 103.228 32.9711 103.448 32.5068L103.54 32.3127V25.0666C103.54 18.1001 103.538 17.8111 103.486 17.5752C103.456 17.4402 103.393 17.2194 103.346 17.0844C102.751 15.3998 100.958 14.1899 98.459 13.7879L98.0548 13.7229L91.7759 13.7185C88.3225 13.716 85.3671 13.7254 85.2083 13.7393ZM38.2967 34.8289C37.3068 34.909 36.4983 35.1686 35.7707 35.6396C34.7692 36.2881 34.1811 37.2096 34.0685 38.3067C34.0277 38.704 34.0272 49.9554 34.0679 50.1702C34.1284 50.4892 34.3046 50.73 34.5749 50.863C34.698 50.9236 34.7576 50.9329 35.0202 50.9328C35.2805 50.9327 35.3408 50.9233 35.4473 50.8666C35.6382 50.7649 35.79 50.6119 35.8781 50.4324L35.9584 50.269L35.9733 44.3076C35.9854 39.4497 35.9953 38.3248 36.0266 38.2307C36.1166 37.9606 36.2681 37.7269 36.4894 37.5171C36.824 37.1997 37.2176 36.9952 37.7612 36.8562C38.1996 36.744 38.3699 36.7406 42.9446 36.7509C47.0791 36.7602 47.4052 36.7645 47.6029 36.8121C48.6084 37.054 49.2504 37.5257 49.4936 38.2011C49.5145 38.259 49.5303 38.9182 49.5403 40.1577L49.5555 42.0269L43.5508 42.0341L37.5462 42.0414V42.9941V43.9467L43.5508 43.954L49.5555 43.9613L49.5477 51.4454C49.5423 56.5306 49.5495 58.9927 49.5699 59.1266C49.6221 59.4686 49.7999 59.7228 50.0896 59.8699C50.2825 59.9679 50.6534 59.9814 50.8733 59.8985C51.089 59.8171 51.2797 59.6449 51.3798 59.441L51.4608 59.276L51.469 48.84C51.4747 41.5252 51.4679 38.3324 51.4461 38.1649C51.2171 36.3988 49.5362 35.0308 47.3615 34.8407C47.0495 34.8134 38.6232 34.8024 38.2967 34.8289ZM74.5486 41.2259L74.5567 47.6419L74.6196 47.8754C75.0178 49.3524 76.249 50.4037 78.02 50.7791L78.3375 50.8463L84.7801 50.8541C91.2142 50.8618 91.2228 50.8617 91.3808 50.8026C91.5916 50.7237 91.783 50.5501 91.8825 50.3473C91.954 50.2017 91.9635 50.1502 91.9635 49.9081C91.9635 49.6889 91.9511 49.6071 91.9018 49.5004C91.8133 49.3089 91.6512 49.1425 91.463 49.0501L91.2996 48.9699L84.9629 48.9544C78.6409 48.939 78.6256 48.9389 78.3664 48.878C77.3988 48.6507 76.7467 48.1675 76.5261 47.5141C76.4628 47.3266 76.4619 47.3016 76.453 45.3396L76.444 43.3549H89.4454C101.015 43.3549 102.463 43.3501 102.595 43.3109C102.784 43.2549 102.966 43.1171 103.085 42.9399C103.384 42.4948 103.253 41.8329 102.814 41.5758C102.534 41.4115 103.42 41.4217 89.4015 41.4212L76.4466 41.4207V39.0826V36.7444L83.8731 36.737L91.2996 36.7296L91.4648 36.6484C91.6467 36.5591 91.795 36.4048 91.8965 36.1994C91.9897 36.0108 91.9926 35.5799 91.9018 35.3837C91.7676 35.0931 91.5153 34.9024 91.1848 34.8412C91.0647 34.819 88.5966 34.8098 82.7776 34.8098H74.5405L74.5486 41.2259ZM57.3067 34.8705C55.8414 35.0352 54.5724 35.7395 53.8879 36.7676C53.6717 37.0924 53.5338 37.3909 53.4173 37.7863L53.3374 38.0575L53.3229 51.3804L53.3084 64.7033L52.1537 64.7011C50.7323 64.6983 49.8 64.6399 48.4585 64.4694C42.4126 63.701 36.7503 61.1501 32.1622 57.1278C31.0483 56.1513 29.925 55.0142 29.0299 53.9569L28.8283 53.7188H27.9673H27.1063L27.2454 53.8964C27.3218 53.9941 27.5584 54.2831 27.7711 54.5387C30.1787 57.432 33.1177 59.9078 36.3743 61.7862C40.2608 64.0278 44.5011 65.4037 49.007 65.8851C50.1388 66.006 51.9796 66.0872 52.8494 66.0545L53.3222 66.0367L53.3297 69.5271L53.3373 73.0175L53.4045 73.154C53.6844 73.7223 54.4502 73.8651 54.9192 73.4365C55.0162 73.3478 55.1025 73.2348 55.145 73.1408L55.2138 72.9886L55.2214 69.4594C55.2257 67.5184 55.2402 65.9302 55.2538 65.9302C55.2674 65.9302 55.4718 65.9101 55.708 65.8855C61.9208 65.2384 67.815 62.7729 72.6504 58.7987C74.3704 57.3852 76.1678 55.5554 77.4662 53.8964L77.6052 53.7188H76.7443H75.8833L75.6816 53.9569C74.9995 54.7625 73.8391 55.9638 73.0401 56.6914C68.2339 61.0679 62.3119 63.768 55.8777 64.5162C55.6078 64.5476 55.3513 64.5733 55.3076 64.5734L55.2282 64.5734L55.2287 51.5608C55.2292 37.3381 55.2167 38.3512 55.3965 37.9951C55.6663 37.4606 56.2757 37.053 57.1047 36.8525C57.3261 36.799 57.4654 36.792 58.5337 36.7803C59.3634 36.7713 59.7949 36.7779 59.9771 36.8023C60.8869 36.9244 61.7031 37.4036 62.0004 37.9903C62.1671 38.3193 62.1567 37.7491 62.1567 46.5207C62.1567 52.3744 62.1656 54.6239 62.1891 54.735C62.2874 55.1986 62.6442 55.4845 63.123 55.4833C63.3556 55.4827 63.4677 55.4543 63.6419 55.3523C63.7956 55.2622 63.9333 55.1077 64.0143 54.9342L64.0764 54.8014L64.0909 46.5738L64.1053 38.3462L64.1682 38.1816C64.3931 37.5934 64.892 37.1819 65.6836 36.9318C66.1247 36.7925 66.353 36.7731 67.5551 36.7731C68.8093 36.7731 69.0033 36.792 69.5258 36.9656C70.2956 37.2213 70.8374 37.7223 70.9749 38.3056C71.013 38.4673 71.0185 39.2249 71.0189 44.3406C71.0193 50.0847 71.0204 50.1941 71.0764 50.3754C71.2449 50.9209 71.8578 51.1762 72.4071 50.9297C72.6127 50.8374 72.7543 50.6935 72.8582 50.4711L72.9391 50.2978L72.9476 44.4231C72.9537 40.2328 72.9468 38.4664 72.9238 38.2627C72.8148 37.2975 72.3054 36.4437 71.4583 35.8062C70.9653 35.4352 70.1798 35.0942 69.5025 34.9573C69.0251 34.8608 68.6654 34.8387 67.5695 34.8387C66.1364 34.8387 65.6804 34.8907 64.912 35.1417C64.2027 35.3734 63.7441 35.6363 63.3529 36.0354L63.1202 36.2729L62.8961 36.049C62.2081 35.3615 61.3028 34.9761 60.1214 34.8678C59.746 34.8334 57.6186 34.8354 57.3067 34.8705ZM19.03 35.0158C17.7945 35.1461 16.5969 35.7289 15.8941 36.5419C15.4521 37.0532 15.1625 37.6796 15.074 38.3154C15.0554 38.4495 15.0431 39.1111 15.0431 39.979V41.42L8.5404 41.4276L2.03774 41.4352L1.89498 41.501C1.59833 41.6378 1.43346 41.8284 1.3425 42.1397C1.21498 42.5761 1.45156 43.0829 1.87388 43.2781L2.00887 43.3405L8.52597 43.348L15.0431 43.3554V45.43C15.0431 47.6823 15.0477 47.7619 15.2067 48.2482C15.6175 49.5048 16.7729 50.479 18.2908 50.8487C18.9428 51.0075 18.8604 51.0051 23.747 51.0051C28.659 51.0051 28.5817 51.0074 29.232 50.8427C30.3657 50.5556 31.3271 49.9167 31.8825 49.0815C32.1083 48.742 32.251 48.429 32.359 48.0366L32.4357 47.7574L32.4358 46.2851L32.4359 44.8128L32.3554 44.5241C31.9079 42.9196 30.3639 41.7813 28.3804 41.5936C28.158 41.5725 27.0379 41.565 24.9883 41.5708L21.9282 41.5795L21.7681 41.6546C21.5513 41.7563 21.4108 41.886 21.3235 42.065C21.2179 42.2818 21.1848 42.4916 21.2231 42.7036C21.2833 43.0383 21.4577 43.2641 21.7681 43.4097L21.9282 43.4848L25.176 43.5003L28.4237 43.5157L28.7124 43.5923C29.6417 43.8389 30.2565 44.3119 30.4649 44.9406C30.5236 45.1178 30.5285 45.1971 30.539 46.1374C30.5519 47.3014 30.5329 47.5167 30.3912 47.8151C30.1329 48.3593 29.5918 48.7355 28.6979 48.9925L28.4814 49.0548L23.8635 49.0634C19.7571 49.0712 19.2188 49.0671 19.0028 49.0266C17.9905 48.8369 17.2426 48.3069 17.0338 47.6311C16.9782 47.4513 16.9769 47.3433 16.9769 42.9941C16.9769 38.6449 16.9782 38.5368 17.0338 38.3571C17.2291 37.725 17.8792 37.2307 18.8249 36.9951C19.0692 36.9343 19.0933 36.9339 24.4687 36.9184L29.8671 36.9028L30.0284 36.8271C30.2334 36.731 30.3882 36.5762 30.4843 36.3712C30.5484 36.2346 30.5599 36.1701 30.5599 35.9501C30.5599 35.7297 30.5485 35.6662 30.4845 35.5315C30.3886 35.3295 30.2278 35.1688 30.0259 35.0729L29.8671 34.9974L24.5697 34.9938C21.6561 34.9918 19.1633 35.0017 19.03 35.0158Z" fill="#F000FF"/>
<path fill-rule="evenodd" clip-rule="evenodd" d="M50.1995 0.712288C50.0486 0.724731 49.6277 0.749298 49.264 0.76685C46.2891 0.910501 43.0667 1.56207 40.2021 2.59912C37.8861 3.43761 35.665 4.54238 33.644 5.86116L33.154 6.18091L34.4015 6.18845L35.649 6.19595L35.9741 6.01148C39.7468 3.87069 44.0234 2.54629 48.3807 2.16929C50.0185 2.0276 52.0837 2.0276 53.7214 2.16929C58.0867 2.54698 62.3238 3.85935 66.1281 6.012L66.4532 6.19595L67.7007 6.18845L68.9481 6.18091L68.4581 5.86099C66.4338 4.53935 64.2255 3.44101 61.9 2.59912C59.0461 1.56591 55.8232 0.912666 52.8698 0.768784C52.5205 0.751752 52.0658 0.725135 51.8594 0.709575C51.432 0.677415 50.6055 0.678772 50.1995 0.712288ZM31.3049 9.84899C29.983 10.0282 28.7766 10.5244 27.8547 11.2682C27.5499 11.5141 27.0649 12.026 26.854 12.3245C26.5116 12.809 26.2317 13.4472 26.0877 14.0719L26.0234 14.3507L26.015 22.5494C26.009 28.3466 26.0157 30.7923 26.0378 30.8988C26.1732 31.5521 26.8229 31.9918 27.5037 31.8909C28.007 31.8163 28.3832 31.5184 28.5582 31.0561L28.6202 30.8925L28.6346 22.766L28.649 14.6394L28.7173 14.4374C28.8163 14.1444 28.9265 13.9401 29.1079 13.7134C29.5655 13.1416 30.3407 12.7238 31.3373 12.5121L31.6514 12.4454L37.7715 12.4369C42.1788 12.4307 43.9722 12.4374 44.1795 12.4609C45.4572 12.6055 46.6236 13.2807 47.034 14.1134C47.2501 14.5518 47.2383 14.3823 47.248 17.1727L47.2567 19.677H39.1148H30.9729V20.9905V22.3041H39.1139H47.2549L47.2552 26.5405C47.2555 30.1203 47.2619 30.801 47.2968 30.932C47.4355 31.4533 47.8332 31.8067 48.3747 31.8898C49.0547 31.9943 49.7167 31.5501 49.8517 30.8988C49.8737 30.7923 49.8804 28.3507 49.8745 22.5639L49.866 14.3796L49.8 14.0909C49.7003 13.6548 49.5814 13.3193 49.3906 12.9362C48.562 11.2727 46.6581 10.0793 44.4402 9.83323C44.2744 9.81484 41.9026 9.8054 37.887 9.80713C32.7648 9.80936 31.5399 9.81715 31.3049 9.84899ZM57.6909 9.86643C56.1488 10.0405 54.6247 10.7557 53.6631 11.7564C52.9791 12.4684 52.5785 13.2258 52.3876 14.1681L52.3213 14.4951V20.8029V27.1107L52.3876 27.4377C52.4781 27.8846 52.5968 28.2306 52.8002 28.6407C53.6261 30.3061 55.5254 31.497 57.7486 31.7437C57.9135 31.762 60.2943 31.7726 64.2642 31.7728C71.012 31.773 70.7439 31.7785 71.4898 31.6242C72.4771 31.42 73.4705 30.9735 74.2326 30.3914C74.4943 30.1916 74.9822 29.7088 75.185 29.4491C75.6426 28.8631 75.9346 28.2447 76.0984 27.5149C76.1609 27.2363 76.1636 27.1645 76.1738 25.4652C76.1851 23.5945 76.1775 23.4401 76.0485 22.9251C75.6785 21.4479 74.5445 20.194 72.9295 19.4764C72.3368 19.213 71.7181 19.0344 70.9993 18.9191L70.5952 18.8543H66.2071H61.8191L61.6338 18.9211C61.0958 19.1154 60.7661 19.5891 60.7661 20.1678C60.7661 20.7676 61.1261 21.2557 61.6993 21.433C61.8315 21.4739 62.3349 21.4808 66.236 21.4958C70.5948 21.5125 70.6258 21.5131 70.8944 21.5748C71.7286 21.7666 72.4258 22.112 72.8856 22.5616C73.1148 22.7856 73.2323 22.9499 73.3682 23.2361C73.5465 23.6116 73.5531 23.6855 73.5537 25.3152C73.5542 26.9845 73.5514 27.0126 73.332 27.4696C73.2195 27.704 73.1627 27.7808 72.9231 28.022C72.7701 28.176 72.5495 28.3634 72.433 28.4383C71.9827 28.728 71.4302 28.9447 70.8335 29.0657L70.5085 29.1315H64.2296H57.9507L57.6476 29.0649C56.3913 28.789 55.5093 28.2062 55.1339 27.4041C54.9337 26.9762 54.9506 27.5398 54.9406 20.9617C54.9346 17.06 54.9416 14.9383 54.9608 14.7925C55.0954 13.7693 55.9733 12.9683 57.3431 12.6189C57.5503 12.5661 57.8367 12.5087 57.9796 12.4914C58.1603 12.4696 60.3934 12.46 65.3141 12.4599C70.2703 12.4599 72.4401 12.4505 72.5601 12.4286C73.2965 12.2941 73.7616 11.5454 73.5688 10.8051C73.4498 10.3483 73.1481 10.0225 72.7212 9.88981C72.5404 9.83364 72.4312 9.83286 65.2298 9.83658C61.0991 9.83872 57.8214 9.85168 57.6909 9.86643ZM1.03617 12.4315C0.548496 12.5163 0.192545 12.818 0.053918 13.264C-0.0183979 13.4967 -0.0180515 13.6467 0.0554481 13.8846C0.147164 14.1816 0.347252 14.4174 0.632012 14.5641C0.968159 14.7373 0.3075 14.726 10.137 14.726C15.1028 14.726 19.165 14.7325 19.1641 14.7405C19.1632 14.7484 14.9658 18.1066 9.83666 22.203C4.70748 26.2995 0.445896 29.7093 0.366479 29.7805C0.123347 29.9983 -0.0213425 30.3668 0.00440834 30.7027C0.0472494 31.2611 0.44887 31.6771 1.03617 31.7713C1.29732 31.8132 22.5404 31.8134 22.8031 31.7715C23.2131 31.7061 23.5647 31.4573 23.7344 31.1126C23.821 30.9366 23.828 30.9012 23.828 30.6333C23.828 30.3804 23.8183 30.3234 23.7512 30.1802C23.6071 29.8728 23.3625 29.6651 22.9969 29.5395L22.8176 29.4779L13.7569 29.4635L4.69631 29.4491L6.66969 27.8738C8.16993 26.6762 22.9368 14.874 23.5019 14.421C23.5691 14.3671 23.6495 14.253 23.7184 14.1136C23.8253 13.8972 23.828 13.8841 23.828 13.5722C23.828 13.2699 23.8229 13.2422 23.7341 13.0619C23.57 12.7285 23.2387 12.4973 22.832 12.4325C22.6084 12.3968 1.24117 12.3958 1.03617 12.4315ZM83.9036 12.4346C83.0472 12.5096 82.1625 12.7335 81.3581 13.0788C79.9344 13.6899 78.9082 14.7113 78.5396 15.8842C78.3658 16.4369 78.3752 15.9847 78.3752 23.7907C78.3752 31.7027 78.3589 31.0664 78.5699 31.3702C78.6971 31.5534 78.9696 31.7493 79.1925 31.8179C79.4053 31.8833 79.7809 31.9034 79.9979 31.8609C80.4786 31.7666 80.8474 31.4431 80.9612 31.0156C80.9948 30.8891 81.0017 30.244 81.0019 27.1612L81.0023 23.4588H89.1432H97.2842V22.2896V21.1205H89.1422H81.0003L81.009 18.8903L81.0176 16.6602L81.0845 16.4806C81.3755 15.6991 82.2292 15.1302 83.5551 14.8342L83.9036 14.7564L90.1536 14.7479C96.974 14.7385 96.682 14.7323 97.3323 14.9012C98.5957 15.2295 99.4096 15.8771 99.5793 16.6891C99.6157 16.8632 99.6216 17.8597 99.6221 23.8899C99.6226 31.6808 99.6059 31.0548 99.8219 31.3686C99.9499 31.5546 100.218 31.7496 100.438 31.8175C100.522 31.843 100.696 31.8713 100.827 31.8802C101.428 31.9214 101.923 31.6664 102.143 31.2021L102.235 31.008V23.7619C102.235 16.7954 102.233 16.5064 102.181 16.2705C102.152 16.1356 102.088 15.9147 102.041 15.7797C101.447 14.0951 99.6532 12.8853 97.1543 12.4833L96.7501 12.4182L90.4712 12.4138C87.0178 12.4113 84.0624 12.4207 83.9036 12.4346ZM36.9921 33.5242C36.0021 33.6044 35.1936 33.8639 34.4661 34.3349C33.4645 34.9834 32.8764 35.9049 32.7638 37.002C32.723 37.3993 32.7225 48.6507 32.7632 48.8655C32.8237 49.1845 33 49.4253 33.2702 49.5583C33.3934 49.6189 33.4529 49.6282 33.7155 49.6281C33.9758 49.628 34.0361 49.6187 34.1426 49.5619C34.3335 49.4602 34.4853 49.3072 34.5734 49.1277L34.6537 48.9643L34.6686 43.0029C34.6807 38.1451 34.6906 37.0202 34.7219 36.926C34.8119 36.6559 34.9635 36.4222 35.1847 36.2124C35.5193 35.8951 35.9129 35.6905 36.4565 35.5515C36.8949 35.4393 37.0652 35.4359 41.6399 35.4462C45.7744 35.4555 46.1005 35.4598 46.2982 35.5074C47.3037 35.7493 47.9457 36.221 48.189 36.8964C48.2099 36.9543 48.2256 37.6135 48.2356 38.853L48.2508 40.7222L42.2461 40.7294L36.2415 40.7367V41.6894V42.642L42.2461 42.6493L48.2508 42.6566L48.243 50.1407C48.2377 55.2259 48.2448 57.688 48.2652 57.8219C48.3175 58.1639 48.4952 58.4181 48.7849 58.5652C48.9778 58.6632 49.3487 58.6767 49.5686 58.5938C49.7843 58.5125 49.975 58.3402 50.0751 58.1363L50.1562 57.9713L50.1643 47.5353C50.17 40.2205 50.1632 37.0278 50.1415 36.8602C49.9124 35.0941 48.2315 33.7262 46.0568 33.536C45.7448 33.5087 37.3186 33.4977 36.9921 33.5242ZM73.2439 39.9212L73.252 46.3372L73.3149 46.5708C73.7131 48.0477 74.9443 49.099 76.7153 49.4744L77.0329 49.5417L83.4754 49.5494C89.9095 49.5571 89.9181 49.557 90.0761 49.4979C90.2869 49.419 90.4783 49.2454 90.5779 49.0426C90.6494 48.897 90.6589 48.8455 90.6588 48.6034C90.6588 48.3843 90.6464 48.3024 90.5971 48.1957C90.5086 48.0042 90.3465 47.8379 90.1583 47.7455L89.9949 47.6652L83.6582 47.6497C77.3362 47.6343 77.3209 47.6342 77.0617 47.5733C76.0941 47.3461 75.442 46.8628 75.2214 46.2094C75.1581 46.0219 75.1572 45.9969 75.1483 44.035L75.1394 42.0502H88.1408C99.7105 42.0502 101.158 42.0454 101.29 42.0062C101.479 41.9502 101.661 41.8124 101.78 41.6352C102.08 41.1901 101.949 40.5283 101.51 40.2711C101.229 40.1068 102.115 40.117 88.0968 40.1165L75.142 40.116V37.7779V35.4397L82.5684 35.4323L89.9949 35.4249L90.1601 35.3437C90.342 35.2544 90.4903 35.1001 90.5918 34.8947C90.685 34.7061 90.6879 34.2752 90.5971 34.079C90.4629 33.7885 90.2106 33.5977 89.8801 33.5365C89.76 33.5143 87.2919 33.5051 81.4729 33.5051H73.2358L73.2439 39.9212ZM56.0021 33.5658C54.5367 33.7305 53.2677 34.4348 52.5832 35.4629C52.367 35.7877 52.2291 36.0862 52.1126 36.4816L52.0327 36.7528L52.0182 50.0757L52.0037 63.3986L50.849 63.3964C49.4276 63.3936 48.4953 63.3352 47.1538 63.1647C41.1079 62.3963 35.4456 59.8454 30.8575 55.8231C29.7436 54.8466 28.6204 53.7095 27.7252 52.6523L27.5236 52.4141H26.6626H25.8016L25.9407 52.5917C26.0172 52.6894 26.2537 52.9784 26.4664 53.234C28.874 56.1273 31.813 58.6031 35.0696 60.4815C38.9562 62.7232 43.1964 64.099 47.7023 64.5804C48.8341 64.7013 50.675 64.7825 51.5447 64.7498L52.0175 64.732L52.0251 68.2224L52.0326 71.7128L52.0998 71.8493C52.3797 72.4176 53.1455 72.5604 53.6145 72.1318C53.7115 72.0431 53.7978 71.9301 53.8403 71.8361L53.9091 71.6839L53.9168 68.1547C53.921 66.2137 53.9355 64.6255 53.9491 64.6255C53.9627 64.6255 54.1671 64.6054 54.4033 64.5808C60.6161 63.9337 66.5103 61.4683 71.3457 57.4941C73.0657 56.0805 74.8631 54.2507 76.1615 52.5918L76.3005 52.4141H75.4396H74.5786L74.3769 52.6523C73.6949 53.4578 72.5344 54.6592 71.7355 55.3867C66.9292 59.7632 61.0072 62.4633 54.5731 63.2116C54.3031 63.2429 54.0466 63.2687 54.0029 63.2687L53.9235 63.2687L53.924 50.2562C53.9245 36.0334 53.912 37.0465 54.0918 36.6904C54.3616 36.1559 54.971 35.7483 55.8 35.5479C56.0215 35.4943 56.1607 35.4873 57.229 35.4757C58.0587 35.4666 58.4902 35.4732 58.6724 35.4976C59.5822 35.6197 60.3984 36.0989 60.6957 36.6856C60.8624 37.0146 60.852 36.4444 60.852 45.216C60.852 51.0697 60.8609 53.3192 60.8844 53.4303C60.9827 53.8939 61.3395 54.1798 61.8183 54.1786C62.0509 54.178 62.163 54.1496 62.3372 54.0476C62.4909 53.9575 62.6286 53.803 62.7097 53.6296L62.7718 53.4967L62.7862 45.2691L62.8006 37.0415L62.8635 36.8769C63.0884 36.2887 63.5873 35.8772 64.3789 35.6271C64.82 35.4878 65.0483 35.4684 66.2504 35.4684C67.5046 35.4684 67.6986 35.4874 68.2211 35.6609C68.9909 35.9167 69.5327 36.4176 69.6702 37.0009C69.7083 37.1627 69.7139 37.9202 69.7142 43.036C69.7147 48.78 69.7157 48.8894 69.7717 49.0707C69.9402 49.6162 70.5531 49.8715 71.1024 49.625C71.3081 49.5327 71.4496 49.3888 71.5535 49.1664L71.6344 48.9932L71.6429 43.1184C71.649 38.9281 71.6422 37.1617 71.6191 36.958C71.5101 35.9928 71.0007 35.139 70.1536 34.5015C69.6606 34.1305 68.8752 33.7896 68.1978 33.6526C67.7204 33.5561 67.3607 33.534 66.2649 33.534C64.8317 33.534 64.3757 33.586 63.6073 33.837C62.898 34.0687 62.4394 34.3316 62.0482 34.7308L61.8155 34.9683L61.5914 34.7443C60.9034 34.0568 59.9981 33.6714 58.8167 33.5631C58.4413 33.5287 56.3139 33.5307 56.0021 33.5658ZM17.7253 33.7111C16.4898 33.8414 15.2922 34.4242 14.5894 35.2372C14.1474 35.7486 13.8578 36.3749 13.7693 37.0107C13.7507 37.1448 13.7384 37.8064 13.7384 38.6743V40.1153L7.23571 40.1229L0.733053 40.1305L0.590297 40.1963C0.293643 40.3331 0.128774 40.5237 0.0378093 40.835C-0.0897034 41.2715 0.146875 41.7782 0.569194 41.9734L0.704184 42.0358L7.22128 42.0433L13.7384 42.0507V44.1253C13.7384 46.3776 13.743 46.4572 13.902 46.9435C14.3128 48.2001 15.4682 49.1743 16.9861 49.544C17.6381 49.7028 17.5557 49.7004 22.4423 49.7004C27.3543 49.7004 27.277 49.7027 27.9273 49.538C29.061 49.2509 30.0224 48.6121 30.5779 47.7768C30.8036 47.4373 30.9463 47.1243 31.0543 46.7319L31.1311 46.4527L31.1311 44.9804L31.1312 43.5081L31.0507 43.2194C30.6032 41.6149 29.0592 40.4766 27.0757 40.2889C26.8533 40.2678 25.7332 40.2603 23.6836 40.2661L20.6235 40.2748L20.4634 40.3499C20.2467 40.4516 20.1061 40.5813 20.0189 40.7603C19.9132 40.9771 19.8801 41.187 19.9184 41.3989C19.9786 41.7336 20.153 41.9594 20.4634 42.1051L20.6235 42.1801L23.8713 42.1956L27.119 42.211L27.4077 42.2876C28.337 42.5342 28.9519 43.0072 29.1602 43.6359C29.2189 43.8131 29.2239 43.8924 29.2343 44.8327C29.2472 45.9967 29.2282 46.212 29.0866 46.5104C28.8282 47.0546 28.2872 47.4308 27.3932 47.6878L27.1767 47.7501L22.5588 47.7588C18.4524 47.7665 17.9141 47.7624 17.6981 47.7219C16.6858 47.5323 15.938 47.0022 15.7291 46.3264C15.6735 46.1466 15.6722 46.0386 15.6722 41.6894C15.6722 37.3402 15.6735 37.2321 15.7291 37.0524C15.9244 36.4203 16.5745 35.926 17.5202 35.6904C17.7645 35.6296 17.7886 35.6292 23.164 35.6137L28.5624 35.5981L28.7237 35.5225C28.9287 35.4263 29.0835 35.2715 29.1796 35.0665C29.2437 34.93 29.2553 34.8654 29.2553 34.6454C29.2553 34.425 29.2438 34.3615 29.1798 34.2268C29.0839 34.0249 28.9232 33.8641 28.7212 33.7682L28.5624 33.6928L23.265 33.6891C20.3515 33.6872 17.8586 33.697 17.7253 33.7111Z" fill="#00FCFF"/>
<path fill-rule="evenodd" clip-rule="evenodd" d="M50.8518 1.36463C50.701 1.37707 50.28 1.40164 49.9164 1.41919C46.9414 1.56284 43.719 2.21441 40.8545 3.25146C38.5384 4.08995 36.3173 5.19473 34.2964 6.5135L33.8064 6.83325L35.0538 6.84079L36.3013 6.84829L36.6264 6.66382C40.3992 4.52304 44.6757 3.19863 49.0331 2.82163C50.6708 2.67995 52.736 2.67995 54.3738 2.82163C58.739 3.19932 62.9762 4.51169 66.7804 6.66434L67.1055 6.84829L68.353 6.84079L69.6005 6.83325L69.1105 6.51333C67.0861 5.19169 64.8779 4.09336 62.5524 3.25146C59.6985 2.21825 56.4756 1.56501 53.5221 1.42113C53.1728 1.4041 52.7182 1.37748 52.5117 1.36192C52.0843 1.32976 51.2578 1.33112 50.8518 1.36463ZM31.9573 10.5013C30.6354 10.6805 29.4289 11.1767 28.507 11.9205C28.2022 12.1664 27.7173 12.6784 27.5064 12.9769C27.164 13.4614 26.8841 14.0996 26.7401 14.7242L26.6758 15.0031L26.6673 23.2018C26.6614 28.9989 26.6681 31.4446 26.6901 31.5512C26.8255 32.2044 27.4753 32.6441 28.1561 32.5432C28.6593 32.4686 29.0356 32.1707 29.2106 31.7085L29.2725 31.5448L29.2869 23.4183L29.3014 15.2918L29.3696 15.0897C29.4686 14.7968 29.5788 14.5924 29.7602 14.3658C30.2178 13.7939 30.993 13.3762 31.9896 13.1645L32.3037 13.0978L38.4239 13.0892C42.8311 13.0831 44.6246 13.0898 44.8319 13.1133C46.1096 13.2579 47.2759 13.9331 47.6864 14.7657C47.9025 15.2041 47.8906 15.0347 47.9003 17.825L47.909 20.3294H39.7672H31.6253V21.6429V22.9564H39.7662H47.9072L47.9075 27.1929C47.9078 30.7726 47.9143 31.4534 47.9491 31.5844C48.0879 32.1056 48.4856 32.459 49.027 32.5422C49.707 32.6466 50.369 32.2024 50.504 31.5512C50.5261 31.4446 50.5328 29.0031 50.5268 23.2162L50.5184 15.032L50.4524 14.7433C50.3527 14.3071 50.2337 13.9716 50.0429 13.5885C49.2143 11.925 47.3105 10.7317 45.0925 10.4856C44.9267 10.4672 42.5549 10.4577 38.5393 10.4595C33.4171 10.4617 32.1922 10.4695 31.9573 10.5013ZM58.3432 10.5188C56.8012 10.6928 55.277 11.408 54.3155 12.4088C53.6314 13.1208 53.2308 13.8781 53.0399 14.8204L52.9736 15.1474V21.4552V27.763L53.0399 28.0901C53.1304 28.5369 53.2491 28.8829 53.4525 29.2931C54.2785 30.9584 56.1777 32.1494 58.4009 32.396C58.5658 32.4143 60.9466 32.425 64.9166 32.4251C71.6644 32.4254 71.3962 32.4309 72.1422 32.2765C73.1294 32.0723 74.1229 31.6258 74.8849 31.0438C75.1466 30.8439 75.6345 30.3611 75.8373 30.1014C76.2949 29.5154 76.587 28.897 76.7508 28.1672C76.8133 27.8886 76.8159 27.8168 76.8262 26.1175C76.8374 24.2468 76.8298 24.0925 76.7008 23.5775C76.3308 22.1003 75.1968 20.8463 73.5819 20.1287C72.9891 19.8654 72.3705 19.6867 71.6517 19.5714L71.2475 19.5066H66.8595H62.4714L62.2862 19.5735C61.7481 19.7678 61.4184 20.2414 61.4184 20.8201C61.4184 21.42 61.7784 21.9081 62.3516 22.0853C62.4838 22.1262 62.9872 22.1332 66.8883 22.1481C71.2472 22.1649 71.2782 22.1654 71.5468 22.2272C72.3809 22.4189 73.0781 22.7644 73.5379 23.2139C73.7671 23.4379 73.8847 23.6022 74.0206 23.8884C74.1989 24.2639 74.2055 24.3379 74.206 25.9675C74.2066 27.6368 74.2037 27.6649 73.9844 28.1219C73.8719 28.3564 73.815 28.4332 73.5754 28.6743C73.4224 28.8284 73.2019 29.0158 73.0854 29.0907C72.6351 29.3804 72.0826 29.597 71.4858 29.718L71.1609 29.7839H64.882H58.603L58.2999 29.7173C57.0437 29.4413 56.1616 28.8585 55.7863 28.0564C55.5861 27.6285 55.603 28.1921 55.593 21.614C55.587 17.7124 55.5939 15.5907 55.6131 15.4449C55.7477 14.4216 56.6257 13.6206 57.9955 13.2713C58.2026 13.2184 58.489 13.1611 58.6319 13.1438C58.8126 13.1219 61.0458 13.1123 65.9664 13.1123C70.9226 13.1122 73.0925 13.1028 73.2125 13.0809C73.9488 12.9464 74.4139 12.1977 74.2211 11.4574C74.1021 11.0006 73.8004 10.6748 73.3735 10.5422C73.1927 10.486 73.0836 10.4852 65.8821 10.4889C61.7514 10.4911 58.4738 10.504 58.3432 10.5188ZM1.68852 13.0838C1.20084 13.1686 0.844889 13.4703 0.706262 13.9163C0.633946 14.1491 0.634292 14.2991 0.707792 14.537C0.799507 14.8339 0.999596 15.0697 1.28436 15.2165C1.6205 15.3896 0.959844 15.3784 10.7894 15.3784C15.7551 15.3784 19.8173 15.3849 19.8164 15.3928C19.8155 15.4008 15.6182 18.7589 10.489 22.8554C5.35983 26.9518 1.09824 30.3617 1.01882 30.4328C0.775691 30.6506 0.631001 31.0191 0.656752 31.355C0.699593 31.9134 1.10121 32.3294 1.68852 32.4237C1.94966 32.4655 23.1928 32.4657 23.4555 32.4238C23.8654 32.3585 24.2171 32.1097 24.3867 31.765C24.4734 31.589 24.4803 31.5535 24.4803 31.2856C24.4803 31.0327 24.4707 30.9758 24.4035 30.8325C24.2594 30.5251 24.0149 30.3174 23.6493 30.1919L23.4699 30.1303L14.4093 30.1158L5.34866 30.1014L7.32203 28.5261C8.82227 27.3285 23.5892 15.5264 24.1542 15.0734C24.2215 15.0194 24.3018 14.9053 24.3707 14.7659C24.4776 14.5496 24.4803 14.5364 24.4803 14.2245C24.4803 13.9222 24.4752 13.8945 24.3865 13.7143C24.2223 13.3808 23.891 13.1497 23.4843 13.0848C23.2607 13.0492 1.89351 13.0482 1.68852 13.0838ZM84.5559 13.0869C83.6995 13.1619 82.8148 13.3858 82.0105 13.7311C80.5868 14.3423 79.5606 15.3637 79.1919 16.5366C79.0182 17.0893 79.0276 16.6371 79.0276 24.443C79.0276 32.3551 79.0112 31.7187 79.2223 32.0226C79.3495 32.2057 79.622 32.4017 79.8448 32.4702C80.0577 32.5357 80.4333 32.5557 80.6502 32.5132C81.131 32.419 81.4997 32.0954 81.6135 31.6679C81.6472 31.5414 81.654 30.8964 81.6543 27.8136L81.6546 24.1112H89.7956H97.9365V22.942V21.7728H89.7946H81.6526L81.6613 19.5427L81.67 17.3126L81.7369 17.1329C82.0278 16.3515 82.8815 15.7826 84.2074 15.4866L84.5559 15.4088L90.806 15.4002C97.6264 15.3909 97.3344 15.3846 97.9846 15.5536C99.248 15.8818 100.062 16.5294 100.232 17.3415C100.268 17.5156 100.274 18.512 100.274 24.5423C100.275 32.3331 100.258 31.7072 100.474 32.021C100.602 32.2069 100.87 32.402 101.091 32.4698C101.174 32.4954 101.349 32.5236 101.479 32.5326C102.08 32.5738 102.576 32.3187 102.796 31.8545L102.888 31.6603V24.4143C102.888 17.4477 102.885 17.1588 102.834 16.9229C102.804 16.7879 102.741 16.5671 102.693 16.4321C102.099 14.7474 100.306 13.5376 97.8066 13.1356L97.4025 13.0706L91.1236 13.0661C87.6701 13.0637 84.7147 13.073 84.5559 13.0869ZM37.6444 34.1765C36.6544 34.2567 35.8459 34.5162 35.1184 34.9873C34.1169 35.6357 33.5287 36.5572 33.4161 37.6543C33.3754 38.0516 33.3748 49.303 33.4156 49.5179C33.4761 49.8368 33.6523 50.0776 33.9226 50.2107C34.0457 50.2713 34.1052 50.2806 34.3678 50.2805C34.6281 50.2803 34.6885 50.271 34.7949 50.2143C34.9859 50.1125 35.1376 49.9596 35.2258 49.7801L35.306 49.6166L35.3209 43.6552C35.3331 38.7974 35.3429 37.6725 35.3743 37.5784C35.4643 37.3082 35.6158 37.0745 35.837 36.8647C36.1716 36.5474 36.5653 36.3428 37.1088 36.2038C37.5473 36.0917 37.7175 36.0882 42.2923 36.0986C46.4268 36.1079 46.7529 36.1122 46.9506 36.1597C47.956 36.4016 48.5981 36.8733 48.8413 37.5487C48.8622 37.6067 48.8779 38.2658 48.888 39.5053L48.9032 41.3745L42.8985 41.3818L36.8938 41.3891V42.3417V43.2944L42.8985 43.3017L48.9032 43.309L48.8953 50.7931C48.89 55.8782 48.8971 58.3404 48.9176 58.4742C48.9698 58.8162 49.1475 59.0705 49.4372 59.2176C49.6301 59.3155 50.001 59.3291 50.2209 59.2462C50.4366 59.1648 50.6273 58.9926 50.7275 58.7886L50.8085 58.6237L50.8167 48.1876C50.8224 40.8728 50.8155 37.6801 50.7938 37.5125C50.5647 35.7464 48.8839 34.3785 46.7092 34.1883C46.3971 34.1611 37.9709 34.1501 37.6444 34.1765ZM73.8962 40.5735L73.9043 46.9896L73.9673 47.2231C74.3654 48.7 75.5967 49.7514 77.3676 50.1267L77.6852 50.194L84.1277 50.2017C90.5619 50.2094 90.5704 50.2094 90.7285 50.1502C90.9393 50.0713 91.1306 49.8978 91.2302 49.695C91.3017 49.5494 91.3112 49.4979 91.3112 49.2558C91.3112 49.0366 91.2988 48.9547 91.2495 48.8481C91.161 48.6566 90.9988 48.4902 90.8106 48.3978L90.6472 48.3175L84.3106 48.3021C77.9886 48.2867 77.9733 48.2865 77.7141 48.2257C76.7464 47.9984 76.0943 47.5152 75.8737 46.8618C75.8104 46.6742 75.8096 46.6492 75.8007 44.6873L75.7917 42.7026H88.7931C100.363 42.7026 101.811 42.6977 101.943 42.6585C102.131 42.6026 102.313 42.4648 102.432 42.2876C102.732 41.8424 102.601 41.1806 102.162 40.9235C101.882 40.7591 102.767 40.7693 88.7491 40.7688L75.7943 40.7684V38.4303V36.0921L83.2208 36.0847L90.6472 36.0772L90.8125 35.9961C90.9943 35.9068 91.1427 35.7525 91.2442 35.5471C91.3374 35.3584 91.3402 34.9276 91.2495 34.7313C91.1152 34.4408 90.863 34.25 90.5325 34.1889C90.4123 34.1667 87.9442 34.1575 82.1252 34.1575H73.8881L73.8962 40.5735ZM56.6544 34.2182C55.1891 34.3829 53.92 35.0871 53.2355 36.1153C53.0193 36.4401 52.8815 36.7385 52.765 37.134L52.6851 37.4052L52.6706 50.7281L52.6561 64.051L51.5013 64.0487C50.0799 64.046 49.1477 63.9875 47.8062 63.817C41.7602 63.0486 36.0979 60.4977 31.5098 56.4755C30.3959 55.4989 29.2727 54.3618 28.3776 53.3046L28.1759 53.0664H27.3149H26.454L26.593 53.2441C26.6695 53.3417 26.9061 53.6308 27.1188 53.8864C29.5264 56.7796 32.4653 59.2555 35.722 61.1338C39.6085 63.3755 43.8488 64.7513 48.3547 65.2328C49.4865 65.3537 51.3273 65.4348 52.197 65.4021L52.6698 65.3844L52.6774 68.8748L52.685 72.3652L52.7522 72.5017C53.0321 73.0699 53.7978 73.2128 54.2668 72.7841C54.3638 72.6954 54.4502 72.5824 54.4927 72.4884L54.5614 72.3363L54.5691 68.8071C54.5733 66.866 54.5879 65.2779 54.6014 65.2779C54.615 65.2779 54.8194 65.2578 55.0557 65.2331C61.2684 64.5861 67.1626 62.1206 71.9981 58.1464C73.718 56.7328 75.5154 54.9031 76.8138 53.2441L76.9529 53.0664H76.0919H75.2309L75.0293 53.3046C74.3472 54.1102 73.1867 55.3115 72.3878 56.039C67.5816 60.4156 61.6596 63.1156 55.2254 63.8639C54.9555 63.8953 54.6989 63.921 54.6552 63.921L54.5759 63.9211L54.5763 50.9085C54.5769 36.6857 54.5644 37.6989 54.7442 37.3427C55.014 36.8082 55.6233 36.4007 56.4523 36.2002C56.6738 36.1467 56.8131 36.1396 57.8813 36.128C58.7111 36.119 59.1426 36.1255 59.3247 36.15C60.2345 36.272 61.0508 36.7513 61.3481 37.3379C61.5148 37.667 61.5043 37.0967 61.5043 45.8684C61.5043 51.722 61.5132 53.9716 61.5368 54.0826C61.635 54.5462 61.9919 54.8321 62.4706 54.8309C62.7032 54.8303 62.8154 54.802 62.9895 54.6999C63.1432 54.6099 63.2809 54.4553 63.362 54.2819L63.4241 54.149L63.4385 45.9214L63.453 37.6939L63.5159 37.5293C63.7407 36.941 64.2397 36.5295 65.0312 36.2795C65.4724 36.1401 65.7006 36.1208 66.9028 36.1208C68.157 36.1208 68.351 36.1397 68.8735 36.3133C69.6433 36.569 70.1851 37.07 70.3225 37.6532C70.3607 37.815 70.3662 38.5725 70.3666 43.6883C70.367 49.4324 70.368 49.5417 70.424 49.723C70.5925 50.2686 71.2055 50.5239 71.7548 50.2773C71.9604 50.1851 72.102 50.0411 72.2059 49.8187L72.2868 49.6455L72.2952 43.7707C72.3013 39.5804 72.2945 37.8141 72.2715 37.6104C72.1624 36.6452 71.6531 35.7914 70.8059 35.1538C70.313 34.7828 69.5275 34.4419 68.8502 34.3049C68.3728 34.2084 68.0131 34.1863 66.9172 34.1863C65.4841 34.1863 65.0281 34.2383 64.2596 34.4894C63.5504 34.721 63.0917 34.984 62.7006 35.3831L62.4678 35.6206L62.2437 35.3966C61.5557 34.7091 60.6505 34.3238 59.4691 34.2155C59.0937 34.1811 56.9663 34.1831 56.6544 34.2182ZM18.3777 34.3634C17.1421 34.4937 15.9445 35.0766 15.2417 35.8896C14.7997 36.4009 14.5101 37.0272 14.4217 37.6631C14.403 37.7972 14.3907 38.4588 14.3907 39.3267V40.7676L7.88806 40.7752L1.3854 40.7828L1.24264 40.8486C0.945987 40.9854 0.781118 41.176 0.690153 41.4874C0.56264 41.9238 0.799219 42.4306 1.22154 42.6258L1.35653 42.6881L7.87362 42.6956L14.3907 42.7031V44.7776C14.3907 47.0299 14.3953 47.1096 14.5543 47.5958C14.9652 48.8524 16.1205 49.8266 17.6384 50.1963C18.2905 50.3551 18.208 50.3528 23.0946 50.3528C28.0067 50.3528 27.9294 50.3551 28.5796 50.1904C29.7134 49.9032 30.6748 49.2644 31.2302 48.4291C31.4559 48.0896 31.5986 47.7767 31.7066 47.3842L31.7834 47.1051L31.7835 45.6328L31.7836 44.1604L31.7031 43.8718C31.2555 42.2672 29.7116 41.129 27.728 40.9412C27.5056 40.9202 26.3855 40.9127 24.336 40.9185L21.2759 40.9272L21.1158 41.0022C20.899 41.1039 20.7585 41.2337 20.6712 41.4127C20.5655 41.6294 20.5325 41.8393 20.5707 42.0512C20.631 42.3859 20.8054 42.6118 21.1158 42.7574L21.2759 42.8325L24.5236 42.8479L27.7713 42.8634L28.06 42.94C28.9894 43.1865 29.6042 43.6595 29.8126 44.2883C29.8713 44.4654 29.8762 44.5448 29.8866 45.485C29.8996 46.6491 29.8806 46.8644 29.7389 47.1628C29.4805 47.707 28.9395 48.0832 28.0456 48.3402L27.8291 48.4024L23.2112 48.4111C19.1048 48.4188 18.5664 48.4147 18.3505 48.3743C17.3382 48.1846 16.5903 47.6545 16.3814 46.9787C16.3259 46.7989 16.3245 46.691 16.3245 42.3417C16.3245 37.9926 16.3259 37.8845 16.3814 37.7047C16.5768 37.0726 17.2268 36.5783 18.1725 36.3428C18.4169 36.2819 18.441 36.2816 23.8163 36.2661L29.2148 36.2504L29.376 36.1748C29.581 36.0787 29.7358 35.9238 29.832 35.7188C29.896 35.5823 29.9076 35.5178 29.9076 35.2978C29.9076 35.0774 29.8961 35.0138 29.8322 34.8792C29.7362 34.6772 29.5755 34.5165 29.3735 34.4205L29.2148 34.3451L23.9174 34.3415C21.0038 34.3395 18.5109 34.3494 18.3777 34.3634Z" fill="white"/>
</svg>
