<svg width="14" height="8" viewBox="0 0 14 8" fill="none" xmlns="http://www.w3.org/2000/svg">
<path d="M12.0044 7.60155C11.6239 7.60155 11.1595 7.59077 10.9612 7.58618C10.9047 7.58485 10.8691 7.584 10.8574 7.5839C10.425 7.58192 10.0349 7.42306 9.72998 7.1244C9.54018 6.9385 9.36256 6.74208 9.19084 6.55207L9.18489 6.54546C9.09349 6.44449 8.99905 6.34006 8.90529 6.24019C8.82291 6.15249 8.74697 6.08205 8.67316 6.02499C8.63046 5.99185 8.59914 5.98065 8.58596 5.97815C8.57949 5.98527 8.56676 6.00227 8.55358 6.03612C8.49053 6.1981 8.41695 6.69302 8.4021 6.8399C8.37117 7.25676 8.08575 7.5311 7.65649 7.55503C7.52005 7.56255 7.38633 7.56639 7.25869 7.56639C6.41087 7.56639 5.68967 7.3979 5.05382 7.05129C4.42274 6.70734 3.86104 6.20894 3.33662 5.52763C2.70535 4.70774 2.13936 3.76249 1.50156 2.46282C1.47447 2.40761 0.985809 1.34951 0.931553 1.211C0.923459 1.19039 0.916837 1.16927 0.911655 1.14769C0.843578 0.863182 0.92925 0.601919 1.1353 0.465885C1.19816 0.424413 1.26989 0.39899 1.34446 0.391861C1.37299 0.389062 1.45978 0.380761 1.8415 0.380761C2.37718 0.380761 3.14752 0.39707 3.19317 0.398665C3.19608 0.398795 3.19903 0.398892 3.20194 0.399088C3.59671 0.420833 3.87323 0.623404 4.02381 1.00124C4.37191 1.87584 4.78452 2.61093 5.28518 3.24872C5.32309 3.29729 5.37175 3.34592 5.42619 3.39013C5.46829 3.22656 5.50336 2.98177 5.50559 2.85706C5.51462 2.38974 5.50435 2.08395 5.47949 1.61412C5.46529 1.34896 5.37741 1.28112 5.19804 1.23678C5.03802 1.1972 4.91053 1.07438 4.86296 0.913996C4.81539 0.75358 4.85484 0.579524 4.96661 0.456477C5.2085 0.190299 5.52383 0.138346 5.82861 0.121777C5.98008 0.113444 6.14477 0.109375 6.33192 0.109375C6.50355 0.109375 6.67537 0.11263 6.84147 0.115853C6.9557 0.118034 7.06991 0.120215 7.18406 0.121387C7.4062 0.123405 7.60249 0.143977 7.7835 0.184179C8.11291 0.257128 8.33604 0.504882 8.39539 0.863898C8.41912 1.00667 8.42958 1.14707 8.42651 1.28092C8.42181 1.49238 8.4149 1.70687 8.40812 1.91429L8.40773 1.92503C8.39794 2.22666 8.38793 2.5345 8.38451 2.83564C8.38227 3.02792 8.39686 3.20325 8.42782 3.35748C8.61251 3.15784 8.79617 2.92122 9.01774 2.59791C9.32178 2.15413 9.5865 1.63102 9.8509 0.951756C10.0146 0.532453 10.2081 0.397688 10.6475 0.396744C11.2601 0.395182 11.873 0.394759 12.4857 0.396744C12.6432 0.397395 12.7766 0.416178 12.894 0.454134C13.1936 0.551301 13.3464 0.832615 13.2748 1.15442C13.1691 1.632 12.9165 2.02216 12.6881 2.35045C12.4398 2.70706 12.1802 3.06256 11.9293 3.40644C11.7958 3.58922 11.6647 3.76894 11.5345 3.94941C11.4984 3.99967 11.4622 4.05813 11.4211 4.13326C11.3307 4.29973 11.3423 4.31197 11.4536 4.42893C11.5879 4.56975 11.7293 4.71028 11.8662 4.84615C12.0686 5.04722 12.2762 5.25334 12.4711 5.47024C12.7255 5.7539 12.9496 6.05064 13.1376 6.35269C13.304 6.62007 13.3376 6.90949 13.2299 7.14673C13.1679 7.28345 13.0025 7.52199 12.5924 7.5813C12.5308 7.58993 12.4035 7.60155 12.0044 7.60155ZM8.58093 5.03196C8.8065 5.03196 9.03303 5.11522 9.23607 5.27268C9.34878 5.35985 9.46049 5.46278 9.57713 5.58697C9.67684 5.69319 9.77425 5.80084 9.86847 5.90503L9.87454 5.91181C10.0371 6.09159 10.2049 6.27723 10.3743 6.44315C10.5075 6.57362 10.6671 6.63749 10.8621 6.6384C10.8734 6.63843 10.9152 6.63934 10.9792 6.64087C11.1775 6.64546 11.6344 6.65604 12.0043 6.65604C12.0901 6.65604 12.1607 6.65542 12.2185 6.65454C12.0898 6.4688 11.9445 6.2856 11.785 6.10777C11.6082 5.91106 11.4104 5.71447 11.2189 5.52437C11.0759 5.38235 10.9298 5.23726 10.7863 5.08677C10.3814 4.66138 10.3234 4.19937 10.6087 3.67411C10.6699 3.56256 10.7257 3.47278 10.7852 3.3901C10.9166 3.2079 11.0489 3.02669 11.1812 2.84544C11.4313 2.50279 11.6877 2.15156 11.9299 1.80377C12.029 1.66133 12.1336 1.50534 12.2184 1.3414C11.712 1.34026 11.2052 1.34075 10.6984 1.34196C10.4122 2.07063 10.1198 2.64261 9.77995 3.13857C9.51599 3.52369 9.29513 3.80445 9.06371 4.04895C8.8152 4.31119 8.55678 4.36617 8.38365 4.36617C7.96527 4.36617 7.62847 4.05992 7.52556 3.58603C7.47575 3.35504 7.4522 3.09905 7.45537 2.82451C7.45889 2.51328 7.46906 2.20029 7.47891 1.89759L7.47936 1.88304C7.48605 1.67799 7.49293 1.46608 7.49753 1.25908C7.49875 1.20543 7.49587 1.14883 7.48883 1.08987C7.39487 1.07542 7.29142 1.06784 7.175 1.0668C7.05769 1.06556 6.9408 1.06338 6.82394 1.06113C6.6517 1.05788 6.4721 1.05433 6.30069 1.05488C6.36122 1.2056 6.39727 1.37565 6.40732 1.56305C6.43342 2.0566 6.44417 2.37874 6.43461 2.87486C6.43038 3.11236 6.36576 3.53811 6.27632 3.79215C6.14845 4.15881 5.8438 4.38749 5.48176 4.38749C5.30239 4.38749 5.12273 4.32831 4.96223 4.2163C4.80682 4.10793 4.66712 3.97708 4.55844 3.83795C4.00161 3.12861 3.54482 2.31656 3.16262 1.35641C3.1607 1.35162 3.15891 1.34739 3.15728 1.34358C3.1569 1.34355 3.15648 1.34349 3.15613 1.34349C3.08536 1.3415 2.48519 1.32926 2.00385 1.32676C2.14541 1.63678 2.30965 1.99277 2.33307 2.04104C2.94157 3.28098 3.47671 4.17662 4.06799 4.94459C4.51132 5.52059 4.97727 5.93703 5.49248 6.21786C5.99003 6.48908 6.56772 6.62092 7.25853 6.62092C7.33444 6.62092 7.41314 6.61936 7.49366 6.6162C7.52409 6.38361 7.59168 5.93899 7.68967 5.68742C7.8502 5.27681 8.18329 5.03196 8.58093 5.03196Z" fill="#11141E"/>
</svg>
