<svg width="24" height="32" viewBox="0 0 24 32" fill="none" xmlns="http://www.w3.org/2000/svg">
<path d="M23.377 8.53202L17.0832 6.72814L15.285 0.414551H2.69735C1.20763 0.414551 0 1.62598 0 3.12037V28.495C0 29.9894 1.20763 31.2008 2.69735 31.2008H20.6797C22.1694 31.2008 23.377 29.9894 23.377 28.495V8.53202Z" fill="#F44040"/>
<path d="M9.7678 11.6274C9.899 12.9262 9.96266 15.3952 8.92078 17.3369C8.83616 17.4935 8.75231 17.6458 8.66846 17.7914C6.85643 18.318 4.94268 19.3153 4.6236 20.4134C4.4986 20.8473 4.61351 21.2813 4.9388 21.6041C5.27807 21.9388 5.69964 22.1168 6.1608 22.1168C7.27644 22.1168 8.43633 21.1084 9.70336 19.0373C10.163 18.9299 12.8112 18.624 13.3678 18.6299C14.8949 20.1089 16.1309 20.8275 17.1402 20.8275C17.7737 20.8275 18.3195 20.5245 18.6378 19.9942C18.8583 19.6235 18.859 19.1954 18.6401 18.8196C18.0066 17.7355 15.5393 17.2942 14.0595 17.1935C13.9322 17.0618 13.8033 16.925 13.6714 16.7831C12.1559 15.143 11.5364 12.7335 11.3073 11.4744C11.2786 11.1861 11.246 10.9463 11.2188 10.7705C11.121 10.1042 10.6793 10.0042 10.4246 10.0042C10.2033 10.0042 9.99139 10.0946 9.84466 10.2527C9.60787 10.5072 9.64358 10.7823 9.66687 10.9662C9.68861 11.1471 9.72277 11.3854 9.7678 11.6274ZM6.09881 21.0276C6.27081 20.8187 6.60655 20.5108 7.1152 20.1777C6.64058 20.743 6.29105 20.9762 6.09881 21.0276ZM17.2766 19.8043C17.1069 19.7831 16.7836 19.6983 16.2653 19.3823C16.7125 19.5267 17.053 19.6761 17.2766 19.8043ZM11.2165 15.5558C11.5106 16.0526 11.8378 16.5053 12.1972 16.9109C12.0215 16.925 10.7822 17.0584 10.6726 17.0698C10.9014 16.6032 11.0827 16.0969 11.2165 15.5558Z" fill="white"/>
<path d="M23.3772 8.53202H17.0834C16.0944 8.53202 15.2852 7.72027 15.2852 6.72814V0.414551C15.5189 0.414551 15.7527 0.504745 15.9145 0.685193L23.1074 7.90072C23.2873 8.06301 23.3772 8.29751 23.3772 8.53202Z" fill="#FF8484"/>
</svg>
