<svg width="24" height="32" viewBox="0 0 24 32" fill="none" xmlns="http://www.w3.org/2000/svg">
<path d="M23.1134 8.83548L16.8906 7.0316L15.1126 0.718018H2.66693C1.19401 0.718018 0 1.92944 0 3.42384V28.7984C0 30.2928 1.19401 31.5043 2.66693 31.5043H20.4465C21.9194 31.5043 23.1134 30.2928 23.1134 28.7984V8.83548Z" fill="#4086F4"/>
<path d="M23.1141 8.83548H16.8912C15.9134 8.83548 15.1133 8.02374 15.1133 7.0316V0.718018C15.3444 0.718018 15.5755 0.808212 15.7355 0.98866L22.8473 8.20419C23.0252 8.36648 23.1141 8.60098 23.1141 8.83548Z" fill="#80AEF8"/>
<path d="M16.8907 15.2072H6.22296C5.73159 15.2072 5.33398 14.8038 5.33398 14.3053C5.33398 13.8067 5.73159 13.4033 6.22296 13.4033H16.8907C17.382 13.4033 17.7797 13.8067 17.7797 14.3053C17.7797 14.8038 17.382 15.2072 16.8907 15.2072Z" fill="white"/>
<path d="M16.8907 18.8151H6.22296C5.73159 18.8151 5.33398 18.4117 5.33398 17.9132C5.33398 17.4146 5.73159 17.0112 6.22296 17.0112H16.8907C17.382 17.0112 17.7797 17.4146 17.7797 17.9132C17.7797 18.4117 17.382 18.8151 16.8907 18.8151Z" fill="white"/>
<path d="M16.8907 22.4228H6.22296C5.73159 22.4228 5.33398 22.0194 5.33398 21.5208C5.33398 21.0223 5.73159 20.6189 6.22296 20.6189H16.8907C17.382 20.6189 17.7797 21.0223 17.7797 21.5208C17.7797 22.0194 17.382 22.4228 16.8907 22.4228Z" fill="white"/>
<path d="M13.3348 26.0304H6.22296C5.73159 26.0304 5.33398 25.627 5.33398 25.1285C5.33398 24.63 5.73159 24.2266 6.22296 24.2266H13.3348C13.8261 24.2266 14.2238 24.63 14.2238 25.1285C14.2238 25.627 13.8261 26.0304 13.3348 26.0304Z" fill="white"/>
</svg>
