<svg width="24" height="31" viewBox="0 0 24 31" fill="none" xmlns="http://www.w3.org/2000/svg">
<path d="M23.377 8.13895L17.0832 6.33507L15.285 0.0214844H2.69735C1.20763 0.0214844 0 1.23291 0 2.72731V28.1019C0 29.5963 1.20763 30.8077 2.69735 30.8077H20.6797C22.1694 30.8077 23.377 29.5963 23.377 28.1019V8.13895Z" fill="#5FB977"/>
<path d="M17.0877 17.6412C17.0754 17.6334 17.0627 17.6262 17.0496 17.6197L16.1841 17.1797L11.3843 19.5786C11.2567 19.6424 11.1041 19.6424 10.9766 19.5786L6.17673 17.1797L5.31119 17.6197C5.10082 17.7251 5.02078 17.9715 5.13245 18.1701C5.13939 18.1824 5.14699 18.1944 5.15524 18.206L11.1804 21.2172L17.2056 18.206C17.3383 18.0193 17.2855 17.7664 17.0877 17.6412Z" fill="white"/>
<path d="M17.2264 20.3036C17.186 20.234 17.1247 20.1769 17.05 20.1393L16.1844 19.7051L11.3843 22.0725C11.2568 22.1355 11.1041 22.1355 10.9765 22.0725L6.17642 19.7051L5.31082 20.1393C5.09909 20.2457 5.02012 20.4919 5.1344 20.6891C5.17475 20.7588 5.23609 20.8159 5.31082 20.8535L10.9739 23.6941C11.1028 23.7588 11.258 23.7588 11.3869 23.6941L17.05 20.8535C17.2617 20.747 17.3407 20.5009 17.2264 20.3036Z" fill="white"/>
<path d="M17.0877 14.5937C17.0754 14.5859 17.0627 14.5786 17.0496 14.5721L11.3869 11.6778C11.258 11.612 11.1028 11.612 10.9739 11.6778L5.31119 14.5721C5.10082 14.678 5.02078 14.9258 5.13245 15.1255C5.13939 15.1379 5.14699 15.15 5.15524 15.1617L11.1804 18.1894L17.2056 15.1617C17.3383 14.9739 17.2855 14.7196 17.0877 14.5937Z" fill="white"/>
<path d="M23.3772 8.13895H17.0834C16.0944 8.13895 15.2852 7.3272 15.2852 6.33507V0.0214844C15.5189 0.0214844 15.7527 0.111678 15.9145 0.292127L23.1074 7.50765C23.2873 7.66994 23.3772 7.90445 23.3772 8.13895Z" fill="#73EB93"/>
</svg>
