<svg width="34" height="34" viewBox="0 0 34 34" fill="none" xmlns="http://www.w3.org/2000/svg">
<path d="M12.121 21.1719C11.9257 21.3672 11.9257 21.6838 12.121 21.879C12.3162 22.0743 12.6328 22.0743 12.8281 21.879L12.121 21.1719ZM13.3788 11.0694C13.1027 11.0699 12.8792 11.2941 12.8796 11.5702C12.88 11.8463 13.1043 12.0698 13.3804 12.0694L13.3788 11.0694ZM21.9306 20.6196C21.9302 20.8957 22.1537 21.12 22.4298 21.1204C22.7059 21.1208 22.9301 20.8973 22.9306 20.6212L21.9306 20.6196ZM22.4448 11.5552L22.9448 11.556L22.9455 11.0545L22.444 11.0552L22.4448 11.5552ZM27.9602 6.03984C34.0133 12.093 34.0133 21.907 27.9602 27.9602L28.6673 28.6673C35.1109 22.2236 35.1109 11.7764 28.6673 5.33274L27.9602 6.03984ZM27.9602 27.9602C21.907 34.0133 12.093 34.0133 6.03984 27.9602L5.33274 28.6673C11.7764 35.1109 22.2236 35.1109 28.6673 28.6673L27.9602 27.9602ZM6.03984 27.9602C-0.0132816 21.907 -0.0132816 12.093 6.03984 6.03984L5.33274 5.33274C-1.11091 11.7764 -1.11091 22.2236 5.33274 28.6673L6.03984 27.9602ZM6.03984 6.03984C12.093 -0.0132816 21.907 -0.0132816 27.9602 6.03984L28.6673 5.33274C22.2236 -1.11091 11.7764 -1.11091 5.33274 5.33274L6.03984 6.03984ZM12.8281 21.879L22.7983 11.9088L22.0912 11.2017L12.121 21.1719L12.8281 21.879ZM21.9448 11.5545L21.9306 20.6196L22.9306 20.6212L22.9448 11.556L21.9448 11.5545ZM13.3804 12.0694L22.4455 12.0552L22.444 11.0552L13.3788 11.0694L13.3804 12.0694Z" fill="#70358F"/>
</svg>
