<svg width="1400" height="10604" fill="none" xmlns="http://www.w3.org/2000/svg"><path clip-rule="evenodd" d="M1446.78 1065.35c.25 5.36-5.85 8.79-10.02 12.15-3.22 2.59-7.35 3.17-11.11 4.87-3.75 1.7-6.87 5.67-10.95 5.13-4.07-.54-5.64-5.79-9.23-7.81-4.93-2.79-12.72-1.19-15.48-6.14-2.62-4.68 2.19-10.17 3.44-15.39 1.33-5.55-.5-12.95 4.14-16.28 4.73-3.4 11.27.8 17.09 1.03 4.55.18 9.35-1.94 13.38.17 3.99 2.09 4.71 7.39 7.61 10.84 3.49 4.16 10.87 6.01 11.13 11.43z" stroke="url(#a)" stroke-width="1.175"/><path opacity=".95" clip-rule="evenodd" d="M1458.52 1064.9c.36 7.54-8.23 12.37-14.1 17.1-4.53 3.65-10.36 4.46-15.65 6.86-5.28 2.39-9.68 7.99-15.41 7.23-5.74-.76-7.95-8.16-13-11-6.95-3.92-17.91-1.67-21.81-8.64-3.69-6.59 3.09-14.33 4.85-21.67 1.88-7.83-.7-18.24 5.83-22.93 6.67-4.79 15.87 1.13 24.07 1.45 6.4.25 13.16-2.74 18.84.24 5.61 2.94 6.63 10.41 10.71 15.26 4.92 5.85 15.31 8.46 15.67 16.1z" stroke="url(#b)" stroke-width="1.175"/><path opacity=".9" clip-rule="evenodd" d="M1470.27 1065.62c.45 9.72-10.62 15.96-18.2 22.06-5.84 4.71-13.35 5.75-20.18 8.85-6.81 3.09-12.48 10.3-19.88 9.32-7.4-.98-10.26-10.52-16.76-14.19-8.97-5.06-23.1-2.15-28.13-11.14-4.76-8.51 3.99-18.48 6.26-27.96 2.41-10.09-.91-23.52 7.51-29.57 8.6-6.18 20.47 1.46 31.04 1.87 8.27.33 16.98-3.53 24.31.31 7.24 3.8 8.55 13.43 13.81 19.69 6.35 7.54 19.75 10.91 20.22 20.76z" stroke="url(#c)" stroke-width="1.175"/><path opacity=".85" clip-rule="evenodd" d="M1482.01 1066.34c.56 11.91-13 19.55-22.28 27.02-7.15 5.76-16.36 7.05-24.72 10.84-8.33 3.78-15.28 12.62-24.35 11.41-9.06-1.2-12.56-12.88-20.52-17.37-10.99-6.2-28.3-2.64-34.46-13.65-5.82-10.42 4.89-22.63 7.67-34.24 2.96-12.36-1.11-28.81 9.2-36.22 10.53-7.56 25.07 1.78 38.02 2.29 10.12.4 20.8-4.33 29.77.38 8.87 4.65 10.47 16.45 16.92 24.11 7.77 9.24 24.18 13.36 24.75 25.43z" stroke="url(#d)" stroke-width="1.175"/><path opacity=".8" clip-rule="evenodd" d="M1493.76 1067.06c.66 14.1-15.39 23.14-26.37 31.98-8.47 6.82-19.36 8.34-29.26 12.83-9.86 4.47-18.08 14.93-28.81 13.5-10.73-1.42-14.87-15.24-24.3-20.56-12.99-7.33-33.48-3.12-40.77-16.15-6.9-12.33 5.78-26.78 9.07-40.52 3.51-14.64-1.32-34.09 10.9-42.87 12.46-8.95 29.66 2.11 44.99 2.72 11.98.47 24.61-5.13 35.23.44 10.49 5.51 12.38 19.46 20.02 28.54 9.2 10.94 28.62 15.81 29.3 30.09z" stroke="url(#e)" stroke-width="1.175"/><path opacity=".75" clip-rule="evenodd" d="M1505.5 1067.78c.77 16.28-17.77 26.73-30.45 36.94-9.78 7.88-22.37 9.63-33.8 14.81-11.39 5.17-20.89 17.25-33.28 15.6-12.39-1.64-17.17-17.6-28.06-23.75-15.01-8.47-38.68-3.6-47.1-18.66-7.96-14.23 6.68-30.93 10.48-46.79 4.05-16.91-1.52-39.38 12.59-49.518 14.39-10.339 34.27 2.44 51.97 3.137 13.83.541 28.42-5.921 40.68.511 12.13 6.36 14.31 22.48 23.13 32.97 10.63 12.63 33.06 18.26 33.84 34.75z" stroke="url(#f)" stroke-width="1.175"/><path opacity=".7" clip-rule="evenodd" d="M1517.25 1067.33c.87 18.46-20.16 30.31-34.55 41.89-11.09 8.94-25.36 10.93-38.33 16.81-12.92 5.85-23.69 19.56-37.74 17.69-14.06-1.87-19.48-19.97-31.83-26.94-17.03-9.61-43.87-4.09-53.42-21.16-9.04-16.15 7.58-35.08 11.89-53.08 4.59-19.17-1.73-44.667 14.27-56.161 16.32-11.727 38.87 2.767 58.94 3.557 15.69.618 32.24-6.716 46.15.581 13.76 7.215 16.23 25.503 26.23 37.393 12.06 14.32 37.5 20.71 38.39 39.42z" stroke="url(#g)" stroke-width="1.175"/><path opacity=".65" clip-rule="evenodd" d="M1528.99 1068.05c.98 20.65-22.54 33.9-38.63 46.85-12.4 10-28.37 12.22-42.87 18.79-14.45 6.55-26.49 21.88-42.21 19.79-15.72-2.09-21.78-22.33-35.59-30.13-19.05-10.74-49.06-4.57-59.75-23.66-10.1-18.06 8.48-39.24 13.3-59.36 5.13-21.45-1.93-49.956 15.96-62.81 18.25-13.115 43.47 3.094 65.92 3.978 17.55.691 36.06-7.511 51.61.65 15.38 8.068 18.15 28.512 29.34 41.812 13.48 16.02 41.93 23.17 42.92 44.09z" stroke="url(#h)" stroke-width="1.175"/><path opacity=".6" clip-rule="evenodd" d="M1540.74 1068.77c1.08 22.83-24.93 37.49-42.72 51.81-13.72 11.05-31.37 13.51-47.41 20.78-15.97 7.24-29.29 24.2-46.68 21.89-17.38-2.31-24.08-24.7-39.36-33.32-21.05-11.88-54.25-5.06-66.06-26.17-11.17-19.97 9.37-43.39 14.7-65.65 5.68-23.71-2.13-55.234 17.65-69.449 20.19-14.503 48.07 3.422 72.9 4.399 19.4.764 39.87-8.305 57.07.719 17.01 8.922 20.07 31.531 32.44 46.241 14.9 17.72 46.37 25.61 47.47 48.75z" stroke="url(#i)" stroke-width="1.175"/><path opacity=".55" clip-rule="evenodd" d="M1552.48 1069.49c1.18 25.02-27.31 41.07-46.8 56.77-15.04 12.11-34.38 14.8-51.95 22.77-17.5 7.94-32.1 26.51-51.14 23.98-19.05-2.53-26.39-27.06-43.13-36.51-23.07-13.02-59.44-5.54-72.39-28.68-12.24-21.88 10.27-47.53 16.11-71.92 6.22-25.98-2.34-60.523 19.34-76.097 22.12-15.891 52.67 3.749 79.87 4.82 21.26.837 43.69-9.1 62.54.787 18.63 9.776 21.99 34.552 35.54 50.66 16.33 19.42 50.81 28.07 52.01 53.42z" stroke="url(#j)" stroke-width="1.175"/><path opacity=".5" clip-rule="evenodd" d="M1564.23 1070.22c1.28 27.2-29.7 44.65-50.9 61.72-16.34 13.17-37.37 16.09-56.48 24.76-19.03 8.63-34.9 28.82-55.61 26.07s-28.69-29.42-46.89-39.69c-25.09-14.16-64.64-6.03-78.71-31.19-13.31-23.79 11.16-51.69 17.51-78.2 6.77-28.25-2.54-65.811 21.03-82.746 24.05-17.279 57.27 4.076 86.85 5.24 23.12.911 47.5-9.894 68 .856 20.26 10.63 23.91 37.571 38.65 55.09 17.75 21.11 55.25 30.52 56.55 58.09z" stroke="url(#k)" stroke-width="1.175"/><path opacity=".45" clip-rule="evenodd" d="M1575.97 1069.76c1.39 29.39-32.08 48.25-54.98 66.69-17.66 14.22-40.38 17.38-61.02 26.74-20.56 9.32-37.7 31.14-60.07 28.17-22.38-2.98-31-31.79-50.66-42.89-27.11-15.29-69.83-6.5-85.04-33.68-14.38-25.7 12.07-55.84 18.93-84.49 7.3-30.517-2.75-71.095 22.71-89.39 25.99-18.666 61.87 4.404 93.83 5.662 24.97.983 51.32-10.689 73.45.925 21.9 11.484 25.84 40.588 41.76 59.513 19.18 22.8 59.69 32.97 61.09 62.75z" stroke="url(#l)" stroke-width="1.175"/><path opacity=".4" clip-rule="evenodd" d="M1587.72 1070.48c1.49 31.57-34.47 51.83-59.07 71.64-18.97 15.28-43.38 18.68-65.56 28.74-22.09 10.01-40.5 33.45-64.54 30.26-24.04-3.2-33.3-34.15-54.42-46.07-29.12-16.43-75.03-6.99-91.36-36.19-15.45-27.62 12.96-60 20.33-90.77 7.85-32.789-2.95-76.383 24.41-96.039 27.91-20.054 66.46 4.731 100.79 6.083 26.84 1.056 55.14-11.484 78.92.993 23.52 12.338 27.76 43.606 44.86 63.943 20.61 24.5 64.13 35.42 65.64 67.41z" stroke="url(#m)" stroke-width="1.175"/><path opacity=".35" clip-rule="evenodd" d="M1599.46 1071.2c1.6 33.76-36.86 55.42-63.15 76.6-20.29 16.34-46.38 19.97-70.1 30.72-23.61 10.71-43.31 35.77-69.01 32.36-25.7-3.42-35.6-36.51-58.19-49.26-31.13-17.57-80.21-7.47-97.68-38.69-16.51-29.53 13.86-64.15 21.74-97.06 8.4-35.05-3.15-81.661 26.1-102.677 29.84-21.442 71.07 5.058 107.77 6.504 28.69 1.129 58.95-12.279 84.38 1.062 25.15 13.191 29.68 46.623 47.96 68.364 22.04 26.197 68.57 37.877 70.18 72.077z" stroke="url(#n)" stroke-width="1.175"/><path opacity=".3" clip-rule="evenodd" d="M1611.21 1071.93c1.69 35.94-39.25 59-67.25 81.55-21.59 17.4-49.38 21.26-74.63 32.71-25.14 11.4-46.11 38.09-73.47 34.45-27.37-3.64-37.91-38.88-61.96-52.45-33.15-18.7-85.4-7.96-104-41.2-17.59-31.43 14.75-68.29 23.14-103.33 8.94-37.322-3.36-86.95 27.79-109.326 31.78-22.83 75.67 5.386 114.75 6.924 30.54 1.203 62.76-13.073 89.84 1.131 26.77 14.046 31.6 49.641 51.07 72.789 23.46 27.892 73 40.322 74.72 76.752z" stroke="url(#o)" stroke-width="1.175"/><path opacity=".25" clip-rule="evenodd" d="M1622.95 1072.65c1.8 38.12-41.63 62.59-71.33 86.51-22.91 18.45-52.38 22.55-79.17 34.7-26.67 12.09-48.91 40.4-77.94 36.54-29.02-3.86-40.21-41.24-65.72-55.63-35.17-19.85-90.6-8.45-110.33-43.71-18.65-33.34 15.65-72.45 24.56-109.61 9.48-39.594-3.57-92.239 29.47-115.975 33.71-24.218 80.27 5.713 121.72 7.345 32.41 1.276 66.59-13.868 95.31 1.2 28.4 14.899 33.52 52.659 54.17 77.214 24.89 29.586 77.44 42.776 79.26 81.416z" stroke="url(#p)" stroke-width="1.175"/><path opacity=".2" clip-rule="evenodd" d="M1634.7 1072.19c1.9 40.31-44.02 66.18-75.42 91.48-24.23 19.51-55.39 23.84-83.71 36.68-28.2 12.79-51.71 42.72-82.4 38.64-30.69-4.08-42.52-43.6-69.5-58.82-37.18-20.98-95.78-8.93-116.64-46.21-19.72-35.26 16.55-76.6 25.96-115.9 10.02-41.86-3.77-97.522 31.16-122.619 35.64-25.605 84.87 6.041 128.7 7.767 34.26 1.349 70.4-14.663 100.77 1.268 30.03 15.753 35.43 55.677 57.27 81.639 26.32 31.285 81.88 45.225 83.81 86.075z" stroke="url(#q)" stroke-width="1.175"/><path opacity=".15" clip-rule="evenodd" d="M1646.44 1072.91c2.01 42.5-46.4 69.77-79.51 96.44-25.53 20.56-58.38 25.13-88.24 38.67-29.73 13.48-54.52 45.03-86.87 40.73-32.35-4.3-44.83-45.97-73.26-62.01-39.19-22.12-100.98-9.41-122.97-48.71-20.79-37.17 17.45-80.76 27.37-122.18 10.57-44.132-3.97-102.811 32.85-129.268 37.57-26.993 89.47 6.368 135.68 8.188 36.11 1.422 74.21-15.458 106.23 1.337 31.65 16.607 37.35 58.694 60.38 86.063 27.74 32.98 86.31 47.68 88.34 90.74z" stroke="url(#r)" stroke-width="1.175"/><path opacity=".1" clip-rule="evenodd" d="M1658.19 1073.64c2.11 44.68-48.79 73.35-83.6 101.39-26.85 21.62-61.39 26.43-92.77 40.66-31.26 14.17-57.33 47.34-91.35 42.82-34.01-4.52-47.12-48.33-77.02-65.2-41.21-23.25-106.17-9.89-129.29-51.21-21.86-39.08 18.34-84.91 28.77-128.46 11.11-46.403-4.17-108.099 34.54-135.916 39.51-28.381 94.07 6.696 142.66 8.609 37.97 1.495 78.02-16.253 111.68 1.405 33.29 17.461 39.28 61.712 63.49 90.489 29.16 34.673 90.75 50.133 92.89 95.413z" stroke="url(#s)" stroke-width="1.175"/><path opacity=".05" clip-rule="evenodd" d="M1669.93 1074.36c2.22 46.86-51.17 76.94-87.68 106.34-28.16 22.69-64.39 27.73-97.31 42.65-32.79 14.87-60.13 49.67-95.81 44.92-35.68-4.74-49.44-50.69-80.79-68.38-43.23-24.39-111.37-10.38-135.61-53.73-22.93-40.98 19.23-89.05 30.17-134.74 11.66-48.665-4.38-113.378 36.24-142.555 41.43-29.769 98.66 7.023 149.62 9.03 39.83 1.568 81.84-17.048 117.15 1.474 34.91 18.315 41.2 64.73 66.59 94.913 30.59 36.368 95.19 52.578 97.43 100.078z" stroke="url(#t)" stroke-width="1.175"/><path clip-rule="evenodd" d="M241.776 359.067c.252 5.353-5.845 8.787-10.016 12.146-3.216 2.591-7.354 3.167-11.115 4.872-3.745 1.698-6.867 5.672-10.943 5.131-4.075-.542-5.646-5.791-9.228-7.812-4.937-2.786-12.719-1.185-15.489-6.136-2.619-4.681 2.197-10.172 3.447-15.39 1.331-5.559-.5-12.95 4.138-16.283 4.733-3.4 11.27.803 17.091 1.032 4.549.179 9.347-1.947 13.38.168 3.988 2.092 4.706 7.394 7.606 10.841 3.494 4.154 10.872 6.006 11.129 11.431z" stroke="url(#u)" stroke-width="1.175"/><path opacity=".95" clip-rule="evenodd" d="M253.521 358.613c.355 7.538-8.231 12.375-14.104 17.105-4.529 3.648-10.356 4.458-15.651 6.859-5.274 2.392-9.671 7.988-15.41 7.225-5.739-.762-7.951-8.153-12.994-10.999-6.953-3.923-17.912-1.669-21.812-8.641-3.688-6.592 3.094-14.323 4.854-21.672 1.875-7.827-.705-18.236 5.827-22.928 6.665-4.788 15.87 1.129 24.066 1.452 6.406.252 13.164-2.742 18.843.237 5.615 2.946 6.626 10.411 10.71 15.266 4.92 5.849 15.31 8.457 15.671 16.096z" stroke="url(#v)" stroke-width="1.175"/><path opacity=".9" clip-rule="evenodd" d="M265.265 359.334c.46 9.723-10.616 15.962-18.191 22.063-5.842 4.705-13.358 5.751-20.188 8.848-6.802 3.085-12.474 10.303-19.876 9.319-7.402-.984-10.256-10.517-16.761-14.187-8.968-5.061-23.103-2.154-28.134-11.146-4.757-8.503 3.991-18.475 6.261-27.953 2.418-10.097-.909-23.522 7.516-29.575 8.597-6.176 20.47 1.457 31.042 1.873 8.263.326 16.979-3.536 24.304.306 7.243 3.8 8.547 13.429 13.814 19.691 6.347 7.545 19.748 10.908 20.213 20.761z" stroke="url(#w)" stroke-width="1.175"/><path opacity=".85" clip-rule="evenodd" d="M277.011 360.055c.563 11.908-13.001 19.549-22.278 27.021-7.156 5.763-16.361 7.043-24.726 10.836-8.33 3.778-15.277 12.618-24.342 11.413-9.066-1.204-12.561-12.88-20.528-17.375-10.983-6.198-28.295-2.637-34.456-13.65-5.826-10.415 4.888-22.627 7.668-34.235 2.962-12.366-1.113-28.808 9.206-36.221 10.527-7.564 25.069 1.784 38.017 2.294 10.12.399 20.794-4.331 29.765.375 8.871 4.653 10.468 16.446 16.919 24.115 7.773 9.241 24.186 13.36 24.755 25.427z" stroke="url(#x)" stroke-width="1.175"/><path opacity=".8" clip-rule="evenodd" d="M288.756 360.777c.666 14.093-15.387 23.136-26.366 31.979-8.468 6.82-19.363 8.336-29.262 12.825-9.859 4.47-18.081 14.933-28.81 13.507-10.729-1.426-14.864-15.244-24.293-20.564-12.998-7.335-33.487-3.121-40.779-16.155-6.895-12.325 5.785-26.778 9.075-40.516 3.505-14.634-1.317-34.094 10.895-42.867 12.459-8.952 29.669 2.112 44.993 2.715 11.976.472 24.609-5.126 35.226.443 10.498 5.508 12.389 19.465 20.024 28.541 9.199 10.935 28.623 15.81 29.297 30.092z" stroke="url(#y)" stroke-width="1.175"/><path opacity=".75" clip-rule="evenodd" d="M300.501 361.498c.769 16.278-17.773 26.723-30.454 36.936-9.781 7.878-22.364 9.629-33.799 14.814-11.388 5.164-20.883 17.248-33.276 15.601-12.392-1.647-17.169-17.607-28.06-23.752-15.013-8.472-38.679-3.605-47.1-18.659-7.965-14.236 6.681-30.931 10.481-46.798 4.048-16.903-1.521-39.379 12.584-49.513 14.391-10.34 34.269 2.439 51.968 3.136 13.834.545 28.426-5.921 40.689.512 12.125 6.361 14.309 22.482 23.127 32.965 10.626 12.631 33.061 18.262 33.84 34.758z" stroke="url(#z)" stroke-width="1.175"/><path opacity=".7" clip-rule="evenodd" d="M312.246 361.045c.872 18.462-20.158 30.309-34.542 41.894-11.094 8.935-25.366 10.921-38.336 16.802-12.916 5.857-23.686 19.563-37.742 17.695-14.056-1.868-19.474-19.97-31.827-26.94-17.028-9.609-43.87-4.089-53.422-21.164-9.033-16.147 7.578-35.082 11.888-53.08 4.592-19.172-1.726-44.665 14.273-56.159 16.323-11.727 38.869 2.767 58.944 3.557 15.69.618 32.241-6.715 46.15.581 13.753 7.215 16.23 25.5 26.232 37.39 12.052 14.327 37.499 20.714 38.382 39.424z" stroke="url(#A)" stroke-width="1.175"/><path opacity=".65" clip-rule="evenodd" d="M323.992 361.766c.975 20.647-22.544 33.896-38.63 46.852-12.407 9.992-28.368 12.213-42.872 18.79-14.445 6.55-26.49 21.879-42.209 19.79-15.72-2.089-21.779-22.334-35.593-30.129-19.044-10.746-49.063-4.573-59.745-23.668-10.102-18.058 8.475-39.234 13.295-59.362 5.135-21.441-1.93-49.95 15.962-62.805 18.255-13.115 43.469 3.094 65.92 3.978 17.547.691 36.056-7.51 51.611.65 15.381 8.068 18.151 28.517 29.337 41.815 13.477 16.022 41.936 23.164 42.924 44.089z" stroke="url(#B)" stroke-width="1.175"/><path opacity=".6" clip-rule="evenodd" d="M335.737 362.487c1.078 22.832-24.93 37.484-42.718 51.81-13.72 11.05-31.37 13.506-47.409 20.779-15.973 7.243-29.293 24.193-46.675 21.883-17.383-2.31-24.084-24.696-39.36-33.316-21.059-11.883-54.254-5.057-66.067-26.173-11.171-19.969 9.372-43.386 14.702-65.643 5.679-23.71-2.134-55.237 17.651-69.451 20.187-14.503 48.069 3.421 72.895 4.399 19.405.764 39.872-8.306 57.074.718 17.008 8.922 20.071 31.535 32.44 46.24 14.904 17.717 46.374 25.616 47.467 48.754z" stroke="url(#C)" stroke-width="1.175"/><path opacity=".55" clip-rule="evenodd" d="M347.482 363.209c1.181 25.017-27.315 41.07-46.806 56.768-15.032 12.107-34.372 14.798-51.946 22.767-17.501 7.936-32.096 26.508-51.142 23.977-19.046-2.531-26.387-27.06-43.126-36.505-23.074-13.02-59.445-5.54-72.389-28.677-12.24-21.88 10.27-47.538 16.11-71.925 6.221-25.978-2.34-60.522 19.339-76.097 22.119-15.891 52.669 3.749 79.871 4.82 21.261.837 43.688-9.1 62.535.787 18.636 9.776 21.992 34.553 35.545 50.665 16.33 19.413 50.812 28.067 52.009 53.42z" stroke="url(#D)" stroke-width="1.175"/><path opacity=".5" clip-rule="evenodd" d="M359.227 363.93c1.284 27.201-29.701 44.657-50.894 61.725-16.345 13.165-37.374 16.091-56.482 24.756-19.031 8.629-34.9 28.824-55.609 26.072-20.71-2.752-28.692-29.424-46.892-39.693-25.09-14.158-64.638-6.025-78.712-31.182-13.31-23.791 11.166-51.69 17.516-78.207 6.765-28.247-2.542-65.808 21.029-82.743 24.05-17.279 57.269 4.076 86.847 5.241 23.118.91 47.503-9.895 67.996.856 20.264 10.63 23.913 37.57 38.65 55.089 17.756 21.109 55.249 30.519 56.551 58.086z" stroke="url(#E)" stroke-width="1.175"/><path opacity=".45" clip-rule="evenodd" d="M370.972 363.476c1.387 29.387-32.087 48.244-54.982 66.684-17.658 14.222-40.375 17.383-61.019 26.744-20.559 9.322-37.702 31.139-60.075 28.166-22.373-2.973-30.997-31.787-50.659-42.882-27.105-15.294-69.83-6.508-85.034-33.686-14.378-25.702 12.063-55.841 18.924-84.488 7.308-30.517-2.748-71.094 22.717-89.389 25.982-18.667 61.869 4.403 93.823 5.661 24.974.984 51.318-10.689 73.457.925 21.892 11.484 25.834 40.588 41.754 59.514 19.183 22.804 59.688 32.97 61.094 62.751z" stroke="url(#F)" stroke-width="1.175"/><path opacity=".4" clip-rule="evenodd" d="M382.718 364.197c1.491 31.572-34.473 51.831-59.07 71.642-18.971 15.279-43.377 18.675-65.556 28.732-22.087 10.015-40.505 33.454-64.541 30.26-24.037-3.194-33.302-34.15-54.426-46.069-29.12-16.432-75.02-6.992-91.356-36.191-15.447-27.613 12.96-59.994 20.33-90.77 7.852-32.786-2.951-76.38 24.407-96.036 27.914-20.054 66.469 4.732 100.798 6.083 26.832 1.057 55.134-11.484 78.92.994 23.518 12.337 27.754 43.605 44.858 63.939 20.609 24.499 64.125 35.421 65.636 67.416z" stroke="url(#G)" stroke-width="1.175"/><path opacity=".35" clip-rule="evenodd" d="M394.463 364.919c1.594 33.757-36.858 55.418-63.158 76.6-20.284 16.336-46.379 19.967-70.093 30.72-23.615 10.709-43.308 35.77-69.007 32.355-25.701-3.416-35.607-36.514-58.192-49.258-31.136-17.569-80.213-7.476-97.679-38.696-16.516-29.523 13.857-64.145 21.738-97.051 8.395-35.055-3.156-81.666 26.096-102.682 29.845-21.442 71.068 5.059 107.773 6.504 28.689 1.13 58.95-12.279 84.381 1.062 25.146 13.192 29.675 46.624 47.963 68.364 22.035 26.195 68.562 37.873 70.178 72.082z" stroke="url(#H)" stroke-width="1.175"/><path opacity=".3" clip-rule="evenodd" d="M406.208 365.64c1.697 35.941-39.244 59.005-67.246 81.558-21.596 17.394-49.381 21.26-74.629 32.708-25.145 11.402-46.112 38.085-73.475 34.449-27.363-3.636-37.911-38.877-61.958-52.446-33.15-18.706-85.405-7.96-104-41.2-17.586-31.435 14.753-68.297 23.144-103.333 8.938-37.323-3.36-86.952 27.785-109.328 31.777-22.83 75.668 5.386 114.749 6.925 30.545 1.203 62.765-13.074 89.842 1.131 26.774 14.045 31.596 49.641 51.067 72.789 23.461 27.89 73.001 40.323 74.721 76.747z" stroke="url(#I)" stroke-width="1.175"/><path opacity=".25" clip-rule="evenodd" d="M417.953 366.361c1.8 38.126-41.63 62.592-71.334 86.515-22.909 18.452-52.383 22.553-79.166 34.698-26.673 12.094-48.915 40.4-77.941 36.542-29.027-3.857-40.215-41.24-65.725-55.634-35.165-19.843-90.596-8.444-110.322-43.705-18.655-33.345 15.65-72.448 24.55-109.614 9.483-39.592-3.563-92.238 29.475-115.974 33.709-24.218 80.268 5.713 121.725 7.346 32.402 1.276 66.58-13.869 95.304 1.199 28.401 14.9 33.516 52.659 54.171 77.214 24.887 29.586 77.438 42.775 79.263 81.413z" stroke="url(#J)" stroke-width="1.175"/><path opacity=".2" clip-rule="evenodd" d="M429.698 365.908c1.903 40.311-44.015 66.178-75.421 91.473-24.223 19.509-55.386 23.845-83.704 36.686-28.201 12.787-51.717 42.715-82.407 38.636-30.691-4.078-42.52-43.603-69.492-58.822-37.18-20.98-95.788-8.928-116.644-46.209-19.724-35.256 16.547-76.601 25.958-115.897 10.025-41.861-3.769-97.523 31.163-122.619 35.64-25.606 84.868 6.04 128.7 7.766 34.26 1.349 70.396-14.663 100.766 1.269 30.029 15.753 35.437 55.676 57.276 81.638 26.313 31.282 81.876 45.226 83.805 86.079z" stroke="url(#K)" stroke-width="1.175"/><path opacity=".15" clip-rule="evenodd" d="M441.442 366.629c2.007 42.496-46.4 69.765-79.508 96.431-25.536 20.566-58.387 25.137-88.24 38.674-29.73 13.481-54.521 45.03-86.874 40.731-32.354-4.3-44.825-45.967-73.258-62.011-39.196-22.117-100.98-9.411-122.967-48.714-20.793-37.167 17.444-80.752 27.365-122.178 10.568-44.13-3.973-102.809 32.852-129.265 37.572-26.994 89.468 6.368 135.676 8.187 36.116 1.422 74.211-15.458 106.227 1.337 31.657 16.607 37.358 58.694 60.381 86.064 27.739 32.977 86.313 47.677 88.346 90.744z" stroke="url(#L)" stroke-width="1.175"/><path opacity=".1" clip-rule="evenodd" d="M453.188 367.351c2.11 44.68-48.786 73.352-83.596 101.389-26.849 21.623-61.389 26.429-92.777 40.662-31.258 14.174-57.324 47.345-91.341 42.825-34.017-4.52-47.129-48.33-77.024-65.199-41.211-23.254-106.172-9.895-129.289-51.218-21.861-39.078 18.34-84.904 28.772-128.46 11.112-46.399-4.177-108.094 34.541-135.911 39.504-28.382 94.068 6.695 142.652 8.608 37.973 1.495 78.027-16.253 111.688 1.406 33.285 17.46 39.279 61.712 63.485 90.488 29.166 34.672 90.751 50.129 92.889 95.41z" stroke="url(#M)" stroke-width="1.175"/><path opacity=".05" clip-rule="evenodd" d="M464.933 368.072c2.213 46.865-51.171 76.939-87.684 106.347-28.161 22.681-64.391 27.722-97.314 42.65-32.787 14.867-60.127 49.661-95.807 44.919-35.68-4.741-49.434-50.693-80.791-68.387-43.226-24.391-111.363-10.379-135.61-53.723-22.931-40.988 19.237-89.055 30.178-134.741 11.655-48.668-4.381-113.38 36.23-142.558 41.436-29.769 98.668 7.023 149.628 9.03 39.829 1.568 81.842-17.048 117.15 1.474 34.912 18.315 41.199 64.73 66.589 94.914 30.592 36.367 95.189 52.58 97.431 100.075z" stroke="url(#N)" stroke-width="1.175"/><g filter="url(#O)"><circle cx="134.5" cy="7863.5" r="169.5" fill="url(#P)"/></g><g filter="url(#Q)"><circle cx="822.5" cy="8527.5" r="169.5" fill="url(#R)"/></g><g filter="url(#S)"><circle cx="644.5" cy="9422.5" r="169.5" fill="url(#T)"/></g><g filter="url(#U)"><circle cx="1135.5" cy="9790.5" r="169.5" fill="url(#V)"/></g><g filter="url(#W)"><circle cx="301.5" cy="10195.5" r="169.5" fill="url(#X)"/></g><g filter="url(#Y)"><circle cx="1324.5" cy="7193.5" r="169.5" fill="url(#Z)"/></g><g filter="url(#aa)"><circle cx="531.5" cy="6463.5" r="169.5" fill="url(#ab)"/></g><g filter="url(#ac)"><circle cx="169.5" cy="6086.5" r="169.5" fill="url(#ad)"/></g><g filter="url(#ae)"><circle cx="1264.5" cy="5873.5" r="169.5" fill="url(#af)"/></g><g filter="url(#ag)"><circle cx="1089.5" cy="4856.5" r="169.5" fill="url(#ah)"/></g><g filter="url(#ai)"><circle cx="1049.5" cy="655.5" r="169.5" fill="url(#aj)"/></g><g filter="url(#ak)"><circle cx="175.5" cy="4861.5" r="169.5" fill="url(#al)"/></g><g filter="url(#am)"><circle cx="1334.5" cy="4012.5" r="169.5" fill="url(#an)"/></g><g filter="url(#ao)"><circle cx="551.5" cy="3383.5" r="169.5" fill="url(#ap)"/></g><g filter="url(#aq)"><circle cx="900.5" cy="2591.5" r="169.5" fill="url(#ar)"/></g><g filter="url(#as)"><circle cx="150.5" cy="1841.5" r="169.5" fill="url(#at)"/></g><g filter="url(#au)"><circle cx="1165.5" cy="1023.5" r="169.5" fill="url(#av)"/></g><g filter="url(#aw)"><circle cx="265.5" cy="569.5" r="169.5" fill="url(#ax)"/></g><g filter="url(#ay)"><circle cx="1255.5" cy="765.5" r="169.5" fill="#4100F5"/></g><g filter="url(#az)"><circle cx="149.5" cy="1563.5" r="169.5" fill="#4100F5"/></g><g filter="url(#aA)"><circle cx="1269.5" cy="2203.5" r="169.5" fill="#4100F5"/></g><g filter="url(#aB)"><circle cx="119.5" cy="2949.5" r="169.5" fill="#4100F5"/></g><g filter="url(#aC)"><circle cx="1289.5" cy="3295.5" r="169.5" fill="#4100F5"/></g><g filter="url(#aD)"><circle cx="245.5" cy="4060.5" r="169.5" fill="#4100F5"/></g><g filter="url(#aE)"><circle cx="1327.5" cy="5141.5" r="169.5" fill="#4100F5"/></g><g filter="url(#aF)"><circle cx="1269.5" cy="6138.5" r="169.5" fill="#4100F5"/></g><g filter="url(#aG)"><circle cx="417.5" cy="7332.5" r="169.5" fill="#4100F5"/></g><g filter="url(#aH)"><circle r="169.5" transform="matrix(-1 0 0 1 1041.5 9075.5)" fill="#4100F5"/></g><g filter="url(#aI)"><circle cx="1279.5" cy="7863.5" r="169.5" fill="#4100F5"/></g><g filter="url(#aJ)"><circle r="169.5" transform="matrix(-1 0 0 1 179.5 9606.5)" fill="#4100F5"/></g><g filter="url(#aK)"><circle cx="179.5" cy="8527.5" r="169.5" fill="#4100F5"/></g><g filter="url(#aL)"><circle r="169.5" transform="matrix(-1 0 0 1 1279.5 10270.5)" fill="#4100F5"/></g><defs><linearGradient id="n" x1="1665.31" y1="999.984" x2="1376.18" y2="1351.87" gradientUnits="userSpaceOnUse"><stop offset=".042" stop-color="#E32966"/><stop offset=".484" stop-color="#70358F"/><stop offset=".932" stop-color="#1B253F"/></linearGradient><linearGradient id="ax" x1="193.385" y1="338.556" x2="681.101" y2="620.223" gradientUnits="userSpaceOnUse"><stop offset=".042" stop-color="#E32966"/><stop offset=".484" stop-color="#70358F"/><stop offset=".932" stop-color="#1B253F"/></linearGradient><linearGradient id="av" x1="1093.39" y1="792.556" x2="1581.1" y2="1074.22" gradientUnits="userSpaceOnUse"><stop offset=".042" stop-color="#E32966"/><stop offset=".484" stop-color="#70358F"/><stop offset=".932" stop-color="#1B253F"/></linearGradient><linearGradient id="at" x1="78.385" y1="1610.56" x2="566.101" y2="1892.22" gradientUnits="userSpaceOnUse"><stop offset=".042" stop-color="#E32966"/><stop offset=".484" stop-color="#70358F"/><stop offset=".932" stop-color="#1B253F"/></linearGradient><linearGradient id="ar" x1="828.385" y1="2360.56" x2="1316.1" y2="2642.22" gradientUnits="userSpaceOnUse"><stop offset=".042" stop-color="#E32966"/><stop offset=".484" stop-color="#70358F"/><stop offset=".932" stop-color="#1B253F"/></linearGradient><linearGradient id="ap" x1="479.385" y1="3152.56" x2="967.101" y2="3434.22" gradientUnits="userSpaceOnUse"><stop offset=".042" stop-color="#E32966"/><stop offset=".484" stop-color="#70358F"/><stop offset=".932" stop-color="#1B253F"/></linearGradient><linearGradient id="an" x1="1262.39" y1="3781.56" x2="1750.1" y2="4063.22" gradientUnits="userSpaceOnUse"><stop offset=".042" stop-color="#E32966"/><stop offset=".484" stop-color="#70358F"/><stop offset=".932" stop-color="#1B253F"/></linearGradient><linearGradient id="al" x1="103.385" y1="4630.56" x2="591.101" y2="4912.22" gradientUnits="userSpaceOnUse"><stop offset=".042" stop-color="#E32966"/><stop offset=".484" stop-color="#70358F"/><stop offset=".932" stop-color="#1B253F"/></linearGradient><linearGradient id="aj" x1="977.385" y1="424.556" x2="1465.1" y2="706.223" gradientUnits="userSpaceOnUse"><stop offset=".042" stop-color="#E32966"/><stop offset=".484" stop-color="#70358F"/><stop offset=".932" stop-color="#1B253F"/></linearGradient><linearGradient id="ah" x1="1017.39" y1="4625.56" x2="1505.1" y2="4907.22" gradientUnits="userSpaceOnUse"><stop offset=".042" stop-color="#E32966"/><stop offset=".484" stop-color="#70358F"/><stop offset=".932" stop-color="#1B253F"/></linearGradient><linearGradient id="af" x1="1192.39" y1="5642.56" x2="1680.1" y2="5924.22" gradientUnits="userSpaceOnUse"><stop offset=".042" stop-color="#E32966"/><stop offset=".484" stop-color="#70358F"/><stop offset=".932" stop-color="#1B253F"/></linearGradient><linearGradient id="ad" x1="97.385" y1="5855.56" x2="585.101" y2="6137.22" gradientUnits="userSpaceOnUse"><stop offset=".042" stop-color="#E32966"/><stop offset=".484" stop-color="#70358F"/><stop offset=".932" stop-color="#1B253F"/></linearGradient><linearGradient id="ab" x1="459.385" y1="6232.56" x2="947.101" y2="6514.22" gradientUnits="userSpaceOnUse"><stop offset=".042" stop-color="#E32966"/><stop offset=".484" stop-color="#70358F"/><stop offset=".932" stop-color="#1B253F"/></linearGradient><linearGradient id="Z" x1="1252.39" y1="6962.56" x2="1740.1" y2="7244.22" gradientUnits="userSpaceOnUse"><stop offset=".042" stop-color="#E32966"/><stop offset=".484" stop-color="#70358F"/><stop offset=".932" stop-color="#1B253F"/></linearGradient><linearGradient id="X" x1="229.385" y1="9964.56" x2="717.101" y2="10246.2" gradientUnits="userSpaceOnUse"><stop offset=".042" stop-color="#E32966"/><stop offset=".484" stop-color="#70358F"/><stop offset=".932" stop-color="#1B253F"/></linearGradient><linearGradient id="V" x1="1063.39" y1="9559.56" x2="1551.1" y2="9841.22" gradientUnits="userSpaceOnUse"><stop offset=".042" stop-color="#E32966"/><stop offset=".484" stop-color="#70358F"/><stop offset=".932" stop-color="#1B253F"/></linearGradient><linearGradient id="T" x1="572.385" y1="9191.56" x2="1060.1" y2="9473.22" gradientUnits="userSpaceOnUse"><stop offset=".042" stop-color="#E32966"/><stop offset=".484" stop-color="#70358F"/><stop offset=".932" stop-color="#1B253F"/></linearGradient><linearGradient id="R" x1="750.385" y1="8296.56" x2="1238.1" y2="8578.22" gradientUnits="userSpaceOnUse"><stop offset=".042" stop-color="#E32966"/><stop offset=".484" stop-color="#70358F"/><stop offset=".932" stop-color="#1B253F"/></linearGradient><linearGradient id="P" x1="62.386" y1="7632.56" x2="550.101" y2="7914.22" gradientUnits="userSpaceOnUse"><stop offset=".042" stop-color="#E32966"/><stop offset=".484" stop-color="#70358F"/><stop offset=".932" stop-color="#1B253F"/></linearGradient><linearGradient id="N" x1="556.35" y1="269.192" x2="154.942" y2="757.74" gradientUnits="userSpaceOnUse"><stop offset=".042" stop-color="#E32966"/><stop offset=".484" stop-color="#70358F"/><stop offset=".932" stop-color="#1B253F"/></linearGradient><linearGradient id="M" x1="540.343" y1="273.081" x2="157.649" y2="738.852" gradientUnits="userSpaceOnUse"><stop offset=".042" stop-color="#E32966"/><stop offset=".484" stop-color="#70358F"/><stop offset=".932" stop-color="#1B253F"/></linearGradient><linearGradient id="L" x1="524.335" y1="276.969" x2="160.355" y2="719.964" gradientUnits="userSpaceOnUse"><stop offset=".042" stop-color="#E32966"/><stop offset=".484" stop-color="#70358F"/><stop offset=".932" stop-color="#1B253F"/></linearGradient><linearGradient id="K" x1="508.329" y1="280.858" x2="163.062" y2="701.077" gradientUnits="userSpaceOnUse"><stop offset=".042" stop-color="#E32966"/><stop offset=".484" stop-color="#70358F"/><stop offset=".932" stop-color="#1B253F"/></linearGradient><linearGradient id="J" x1="492.322" y1="285.921" x2="165.769" y2="683.364" gradientUnits="userSpaceOnUse"><stop offset=".042" stop-color="#E32966"/><stop offset=".484" stop-color="#70358F"/><stop offset=".932" stop-color="#1B253F"/></linearGradient><linearGradient id="I" x1="476.315" y1="289.81" x2="168.476" y2="664.476" gradientUnits="userSpaceOnUse"><stop offset=".042" stop-color="#E32966"/><stop offset=".484" stop-color="#70358F"/><stop offset=".932" stop-color="#1B253F"/></linearGradient><linearGradient id="H" x1="460.308" y1="293.698" x2="171.182" y2="645.589" gradientUnits="userSpaceOnUse"><stop offset=".042" stop-color="#E32966"/><stop offset=".484" stop-color="#70358F"/><stop offset=".932" stop-color="#1B253F"/></linearGradient><linearGradient id="G" x1="444.301" y1="297.586" x2="173.889" y2="626.701" gradientUnits="userSpaceOnUse"><stop offset=".042" stop-color="#E32966"/><stop offset=".484" stop-color="#70358F"/><stop offset=".932" stop-color="#1B253F"/></linearGradient><linearGradient id="F" x1="428.294" y1="301.475" x2="176.595" y2="607.814" gradientUnits="userSpaceOnUse"><stop offset=".042" stop-color="#E32966"/><stop offset=".484" stop-color="#70358F"/><stop offset=".932" stop-color="#1B253F"/></linearGradient><linearGradient id="E" x1="412.287" y1="306.538" x2="179.302" y2="590.101" gradientUnits="userSpaceOnUse"><stop offset=".042" stop-color="#E32966"/><stop offset=".484" stop-color="#70358F"/><stop offset=".932" stop-color="#1B253F"/></linearGradient><linearGradient id="D" x1="396.28" y1="310.427" x2="182.009" y2="571.213" gradientUnits="userSpaceOnUse"><stop offset=".042" stop-color="#E32966"/><stop offset=".484" stop-color="#70358F"/><stop offset=".932" stop-color="#1B253F"/></linearGradient><linearGradient id="C" x1="380.273" y1="314.315" x2="184.716" y2="552.325" gradientUnits="userSpaceOnUse"><stop offset=".042" stop-color="#E32966"/><stop offset=".484" stop-color="#70358F"/><stop offset=".932" stop-color="#1B253F"/></linearGradient><linearGradient id="B" x1="364.267" y1="318.204" x2="187.423" y2="533.438" gradientUnits="userSpaceOnUse"><stop offset=".042" stop-color="#E32966"/><stop offset=".484" stop-color="#70358F"/><stop offset=".932" stop-color="#1B253F"/></linearGradient><linearGradient id="a" x1="1457.22" y1="1054.06" x2="1411.37" y2="1109.86" gradientUnits="userSpaceOnUse"><stop offset=".042" stop-color="#E32966"/><stop offset=".484" stop-color="#70358F"/><stop offset=".932" stop-color="#1B253F"/></linearGradient><linearGradient id="b" x1="1473.22" y1="1048.99" x2="1408.66" y2="1127.57" gradientUnits="userSpaceOnUse"><stop offset=".042" stop-color="#E32966"/><stop offset=".484" stop-color="#70358F"/><stop offset=".932" stop-color="#1B253F"/></linearGradient><linearGradient id="c" x1="1489.23" y1="1045.11" x2="1405.95" y2="1146.46" gradientUnits="userSpaceOnUse"><stop offset=".042" stop-color="#E32966"/><stop offset=".484" stop-color="#70358F"/><stop offset=".932" stop-color="#1B253F"/></linearGradient><linearGradient id="d" x1="1505.24" y1="1041.22" x2="1403.25" y2="1165.35" gradientUnits="userSpaceOnUse"><stop offset=".042" stop-color="#E32966"/><stop offset=".484" stop-color="#70358F"/><stop offset=".932" stop-color="#1B253F"/></linearGradient><linearGradient id="e" x1="1521.25" y1="1037.33" x2="1400.54" y2="1184.24" gradientUnits="userSpaceOnUse"><stop offset=".042" stop-color="#E32966"/><stop offset=".484" stop-color="#70358F"/><stop offset=".932" stop-color="#1B253F"/></linearGradient><linearGradient id="f" x1="1537.25" y1="1033.44" x2="1397.84" y2="1203.12" gradientUnits="userSpaceOnUse"><stop offset=".042" stop-color="#E32966"/><stop offset=".484" stop-color="#70358F"/><stop offset=".932" stop-color="#1B253F"/></linearGradient><linearGradient id="g" x1="1553.26" y1="1028.38" x2="1395.13" y2="1220.84" gradientUnits="userSpaceOnUse"><stop offset=".042" stop-color="#E32966"/><stop offset=".484" stop-color="#70358F"/><stop offset=".932" stop-color="#1B253F"/></linearGradient><linearGradient id="h" x1="1569.27" y1="1024.49" x2="1392.42" y2="1239.72" gradientUnits="userSpaceOnUse"><stop offset=".042" stop-color="#E32966"/><stop offset=".484" stop-color="#70358F"/><stop offset=".932" stop-color="#1B253F"/></linearGradient><linearGradient id="i" x1="1585.27" y1="1020.6" x2="1389.72" y2="1258.61" gradientUnits="userSpaceOnUse"><stop offset=".042" stop-color="#E32966"/><stop offset=".484" stop-color="#70358F"/><stop offset=".932" stop-color="#1B253F"/></linearGradient><linearGradient id="j" x1="1601.28" y1="1016.71" x2="1387.01" y2="1277.5" gradientUnits="userSpaceOnUse"><stop offset=".042" stop-color="#E32966"/><stop offset=".484" stop-color="#70358F"/><stop offset=".932" stop-color="#1B253F"/></linearGradient><linearGradient id="k" x1="1617.29" y1="1012.82" x2="1384.3" y2="1296.39" gradientUnits="userSpaceOnUse"><stop offset=".042" stop-color="#E32966"/><stop offset=".484" stop-color="#70358F"/><stop offset=".932" stop-color="#1B253F"/></linearGradient><linearGradient id="l" x1="1633.29" y1="1007.76" x2="1381.6" y2="1314.1" gradientUnits="userSpaceOnUse"><stop offset=".042" stop-color="#E32966"/><stop offset=".484" stop-color="#70358F"/><stop offset=".932" stop-color="#1B253F"/></linearGradient><linearGradient id="m" x1="1649.3" y1="1003.87" x2="1378.89" y2="1332.99" gradientUnits="userSpaceOnUse"><stop offset=".042" stop-color="#E32966"/><stop offset=".484" stop-color="#70358F"/><stop offset=".932" stop-color="#1B253F"/></linearGradient><linearGradient id="A" x1="348.259" y1="322.092" x2="190.129" y2="514.55" gradientUnits="userSpaceOnUse"><stop offset=".042" stop-color="#E32966"/><stop offset=".484" stop-color="#70358F"/><stop offset=".932" stop-color="#1B253F"/></linearGradient><linearGradient id="o" x1="1681.32" y1="996.095" x2="1373.48" y2="1370.76" gradientUnits="userSpaceOnUse"><stop offset=".042" stop-color="#E32966"/><stop offset=".484" stop-color="#70358F"/><stop offset=".932" stop-color="#1B253F"/></linearGradient><linearGradient id="p" x1="1697.32" y1="992.206" x2="1370.77" y2="1389.65" gradientUnits="userSpaceOnUse"><stop offset=".042" stop-color="#E32966"/><stop offset=".484" stop-color="#70358F"/><stop offset=".932" stop-color="#1B253F"/></linearGradient><linearGradient id="q" x1="1713.33" y1="987.143" x2="1368.06" y2="1407.36" gradientUnits="userSpaceOnUse"><stop offset=".042" stop-color="#E32966"/><stop offset=".484" stop-color="#70358F"/><stop offset=".932" stop-color="#1B253F"/></linearGradient><linearGradient id="r" x1="1729.34" y1="983.255" x2="1365.36" y2="1426.25" gradientUnits="userSpaceOnUse"><stop offset=".042" stop-color="#E32966"/><stop offset=".484" stop-color="#70358F"/><stop offset=".932" stop-color="#1B253F"/></linearGradient><linearGradient id="s" x1="1745.34" y1="979.367" x2="1362.65" y2="1445.14" gradientUnits="userSpaceOnUse"><stop offset=".042" stop-color="#E32966"/><stop offset=".484" stop-color="#70358F"/><stop offset=".932" stop-color="#1B253F"/></linearGradient><linearGradient id="t" x1="1761.35" y1="975.478" x2="1359.94" y2="1464.03" gradientUnits="userSpaceOnUse"><stop offset=".042" stop-color="#E32966"/><stop offset=".484" stop-color="#70358F"/><stop offset=".932" stop-color="#1B253F"/></linearGradient><linearGradient id="u" x1="252.217" y1="347.773" x2="206.369" y2="403.574" gradientUnits="userSpaceOnUse"><stop offset=".042" stop-color="#E32966"/><stop offset=".484" stop-color="#70358F"/><stop offset=".932" stop-color="#1B253F"/></linearGradient><linearGradient id="v" x1="268.224" y1="342.709" x2="203.662" y2="421.287" gradientUnits="userSpaceOnUse"><stop offset=".042" stop-color="#E32966"/><stop offset=".484" stop-color="#70358F"/><stop offset=".932" stop-color="#1B253F"/></linearGradient><linearGradient id="w" x1="284.231" y1="338.821" x2="200.955" y2="440.174" gradientUnits="userSpaceOnUse"><stop offset=".042" stop-color="#E32966"/><stop offset=".484" stop-color="#70358F"/><stop offset=".932" stop-color="#1B253F"/></linearGradient><linearGradient id="x" x1="300.238" y1="334.932" x2="198.249" y2="459.062" gradientUnits="userSpaceOnUse"><stop offset=".042" stop-color="#E32966"/><stop offset=".484" stop-color="#70358F"/><stop offset=".932" stop-color="#1B253F"/></linearGradient><linearGradient id="y" x1="316.245" y1="331.044" x2="195.542" y2="477.95" gradientUnits="userSpaceOnUse"><stop offset=".042" stop-color="#E32966"/><stop offset=".484" stop-color="#70358F"/><stop offset=".932" stop-color="#1B253F"/></linearGradient><linearGradient id="z" x1="332.252" y1="327.155" x2="192.835" y2="496.837" gradientUnits="userSpaceOnUse"><stop offset=".042" stop-color="#E32966"/><stop offset=".484" stop-color="#70358F"/><stop offset=".932" stop-color="#1B253F"/></linearGradient><filter id="au" x="596" y="454" width="1139" height="1139" filterUnits="userSpaceOnUse" color-interpolation-filters="sRGB"><feFlood flood-opacity="0" result="BackgroundImageFix"/><feBlend in="SourceGraphic" in2="BackgroundImageFix" result="shape"/><feGaussianBlur stdDeviation="200" result="effect1_foregroundBlur_784_2"/></filter><filter id="Q" x="253" y="7958" width="1139" height="1139" filterUnits="userSpaceOnUse" color-interpolation-filters="sRGB"><feFlood flood-opacity="0" result="BackgroundImageFix"/><feBlend in="SourceGraphic" in2="BackgroundImageFix" result="shape"/><feGaussianBlur stdDeviation="200" result="effect1_foregroundBlur_784_2"/></filter><filter id="aK" x="-390" y="7958" width="1139" height="1139" filterUnits="userSpaceOnUse" color-interpolation-filters="sRGB"><feFlood flood-opacity="0" result="BackgroundImageFix"/><feBlend in="SourceGraphic" in2="BackgroundImageFix" result="shape"/><feGaussianBlur stdDeviation="200" result="effect1_foregroundBlur_784_2"/></filter><filter id="aJ" x="-390" y="9037" width="1139" height="1139" filterUnits="userSpaceOnUse" color-interpolation-filters="sRGB"><feFlood flood-opacity="0" result="BackgroundImageFix"/><feBlend in="SourceGraphic" in2="BackgroundImageFix" result="shape"/><feGaussianBlur stdDeviation="200" result="effect1_foregroundBlur_784_2"/></filter><filter id="aI" x="710" y="7294" width="1139" height="1139" filterUnits="userSpaceOnUse" color-interpolation-filters="sRGB"><feFlood flood-opacity="0" result="BackgroundImageFix"/><feBlend in="SourceGraphic" in2="BackgroundImageFix" result="shape"/><feGaussianBlur stdDeviation="200" result="effect1_foregroundBlur_784_2"/></filter><filter id="aH" x="472" y="8506" width="1139" height="1139" filterUnits="userSpaceOnUse" color-interpolation-filters="sRGB"><feFlood flood-opacity="0" result="BackgroundImageFix"/><feBlend in="SourceGraphic" in2="BackgroundImageFix" result="shape"/><feGaussianBlur stdDeviation="200" result="effect1_foregroundBlur_784_2"/></filter><filter id="aG" x="-152" y="6763" width="1139" height="1139" filterUnits="userSpaceOnUse" color-interpolation-filters="sRGB"><feFlood flood-opacity="0" result="BackgroundImageFix"/><feBlend in="SourceGraphic" in2="BackgroundImageFix" result="shape"/><feGaussianBlur stdDeviation="200" result="effect1_foregroundBlur_784_2"/></filter><filter id="aF" x="700" y="5569" width="1139" height="1139" filterUnits="userSpaceOnUse" color-interpolation-filters="sRGB"><feFlood flood-opacity="0" result="BackgroundImageFix"/><feBlend in="SourceGraphic" in2="BackgroundImageFix" result="shape"/><feGaussianBlur stdDeviation="200" result="effect1_foregroundBlur_784_2"/></filter><filter id="aE" x="758" y="4572" width="1139" height="1139" filterUnits="userSpaceOnUse" color-interpolation-filters="sRGB"><feFlood flood-opacity="0" result="BackgroundImageFix"/><feBlend in="SourceGraphic" in2="BackgroundImageFix" result="shape"/><feGaussianBlur stdDeviation="200" result="effect1_foregroundBlur_784_2"/></filter><filter id="aD" x="-324" y="3491" width="1139" height="1139" filterUnits="userSpaceOnUse" color-interpolation-filters="sRGB"><feFlood flood-opacity="0" result="BackgroundImageFix"/><feBlend in="SourceGraphic" in2="BackgroundImageFix" result="shape"/><feGaussianBlur stdDeviation="200" result="effect1_foregroundBlur_784_2"/></filter><filter id="aC" x="720" y="2726" width="1139" height="1139" filterUnits="userSpaceOnUse" color-interpolation-filters="sRGB"><feFlood flood-opacity="0" result="BackgroundImageFix"/><feBlend in="SourceGraphic" in2="BackgroundImageFix" result="shape"/><feGaussianBlur stdDeviation="200" result="effect1_foregroundBlur_784_2"/></filter><filter id="aB" x="-450" y="2380" width="1139" height="1139" filterUnits="userSpaceOnUse" color-interpolation-filters="sRGB"><feFlood flood-opacity="0" result="BackgroundImageFix"/><feBlend in="SourceGraphic" in2="BackgroundImageFix" result="shape"/><feGaussianBlur stdDeviation="200" result="effect1_foregroundBlur_784_2"/></filter><filter id="aA" x="700" y="1634" width="1139" height="1139" filterUnits="userSpaceOnUse" color-interpolation-filters="sRGB"><feFlood flood-opacity="0" result="BackgroundImageFix"/><feBlend in="SourceGraphic" in2="BackgroundImageFix" result="shape"/><feGaussianBlur stdDeviation="200" result="effect1_foregroundBlur_784_2"/></filter><filter id="az" x="-420" y="994" width="1139" height="1139" filterUnits="userSpaceOnUse" color-interpolation-filters="sRGB"><feFlood flood-opacity="0" result="BackgroundImageFix"/><feBlend in="SourceGraphic" in2="BackgroundImageFix" result="shape"/><feGaussianBlur stdDeviation="200" result="effect1_foregroundBlur_784_2"/></filter><filter id="ay" x="686" y="196" width="1139" height="1139" filterUnits="userSpaceOnUse" color-interpolation-filters="sRGB"><feFlood flood-opacity="0" result="BackgroundImageFix"/><feBlend in="SourceGraphic" in2="BackgroundImageFix" result="shape"/><feGaussianBlur stdDeviation="200" result="effect1_foregroundBlur_784_2"/></filter><filter id="aw" x="-304" y="0" width="1139" height="1139" filterUnits="userSpaceOnUse" color-interpolation-filters="sRGB"><feFlood flood-opacity="0" result="BackgroundImageFix"/><feBlend in="SourceGraphic" in2="BackgroundImageFix" result="shape"/><feGaussianBlur stdDeviation="200" result="effect1_foregroundBlur_784_2"/></filter><filter id="aL" x="710" y="9701" width="1139" height="1139" filterUnits="userSpaceOnUse" color-interpolation-filters="sRGB"><feFlood flood-opacity="0" result="BackgroundImageFix"/><feBlend in="SourceGraphic" in2="BackgroundImageFix" result="shape"/><feGaussianBlur stdDeviation="200" result="effect1_foregroundBlur_784_2"/></filter><filter id="as" x="-419" y="1272" width="1139" height="1139" filterUnits="userSpaceOnUse" color-interpolation-filters="sRGB"><feFlood flood-opacity="0" result="BackgroundImageFix"/><feBlend in="SourceGraphic" in2="BackgroundImageFix" result="shape"/><feGaussianBlur stdDeviation="200" result="effect1_foregroundBlur_784_2"/></filter><filter id="aq" x="331" y="2022" width="1139" height="1139" filterUnits="userSpaceOnUse" color-interpolation-filters="sRGB"><feFlood flood-opacity="0" result="BackgroundImageFix"/><feBlend in="SourceGraphic" in2="BackgroundImageFix" result="shape"/><feGaussianBlur stdDeviation="200" result="effect1_foregroundBlur_784_2"/></filter><filter id="ao" x="-18" y="2814" width="1139" height="1139" filterUnits="userSpaceOnUse" color-interpolation-filters="sRGB"><feFlood flood-opacity="0" result="BackgroundImageFix"/><feBlend in="SourceGraphic" in2="BackgroundImageFix" result="shape"/><feGaussianBlur stdDeviation="200" result="effect1_foregroundBlur_784_2"/></filter><filter id="am" x="765" y="3443" width="1139" height="1139" filterUnits="userSpaceOnUse" color-interpolation-filters="sRGB"><feFlood flood-opacity="0" result="BackgroundImageFix"/><feBlend in="SourceGraphic" in2="BackgroundImageFix" result="shape"/><feGaussianBlur stdDeviation="200" result="effect1_foregroundBlur_784_2"/></filter><filter id="ak" x="-394" y="4292" width="1139" height="1139" filterUnits="userSpaceOnUse" color-interpolation-filters="sRGB"><feFlood flood-opacity="0" result="BackgroundImageFix"/><feBlend in="SourceGraphic" in2="BackgroundImageFix" result="shape"/><feGaussianBlur stdDeviation="200" result="effect1_foregroundBlur_784_2"/></filter><filter id="ai" x="480" y="86" width="1139" height="1139" filterUnits="userSpaceOnUse" color-interpolation-filters="sRGB"><feFlood flood-opacity="0" result="BackgroundImageFix"/><feBlend in="SourceGraphic" in2="BackgroundImageFix" result="shape"/><feGaussianBlur stdDeviation="200" result="effect1_foregroundBlur_784_2"/></filter><filter id="ag" x="520" y="4287" width="1139" height="1139" filterUnits="userSpaceOnUse" color-interpolation-filters="sRGB"><feFlood flood-opacity="0" result="BackgroundImageFix"/><feBlend in="SourceGraphic" in2="BackgroundImageFix" result="shape"/><feGaussianBlur stdDeviation="200" result="effect1_foregroundBlur_784_2"/></filter><filter id="ae" x="695" y="5304" width="1139" height="1139" filterUnits="userSpaceOnUse" color-interpolation-filters="sRGB"><feFlood flood-opacity="0" result="BackgroundImageFix"/><feBlend in="SourceGraphic" in2="BackgroundImageFix" result="shape"/><feGaussianBlur stdDeviation="200" result="effect1_foregroundBlur_784_2"/></filter><filter id="ac" x="-400" y="5517" width="1139" height="1139" filterUnits="userSpaceOnUse" color-interpolation-filters="sRGB"><feFlood flood-opacity="0" result="BackgroundImageFix"/><feBlend in="SourceGraphic" in2="BackgroundImageFix" result="shape"/><feGaussianBlur stdDeviation="200" result="effect1_foregroundBlur_784_2"/></filter><filter id="aa" x="-38" y="5894" width="1139" height="1139" filterUnits="userSpaceOnUse" color-interpolation-filters="sRGB"><feFlood flood-opacity="0" result="BackgroundImageFix"/><feBlend in="SourceGraphic" in2="BackgroundImageFix" result="shape"/><feGaussianBlur stdDeviation="200" result="effect1_foregroundBlur_784_2"/></filter><filter id="Y" x="755" y="6624" width="1139" height="1139" filterUnits="userSpaceOnUse" color-interpolation-filters="sRGB"><feFlood flood-opacity="0" result="BackgroundImageFix"/><feBlend in="SourceGraphic" in2="BackgroundImageFix" result="shape"/><feGaussianBlur stdDeviation="200" result="effect1_foregroundBlur_784_2"/></filter><filter id="W" x="-268" y="9626" width="1139" height="1139" filterUnits="userSpaceOnUse" color-interpolation-filters="sRGB"><feFlood flood-opacity="0" result="BackgroundImageFix"/><feBlend in="SourceGraphic" in2="BackgroundImageFix" result="shape"/><feGaussianBlur stdDeviation="200" result="effect1_foregroundBlur_784_2"/></filter><filter id="U" x="566" y="9221" width="1139" height="1139" filterUnits="userSpaceOnUse" color-interpolation-filters="sRGB"><feFlood flood-opacity="0" result="BackgroundImageFix"/><feBlend in="SourceGraphic" in2="BackgroundImageFix" result="shape"/><feGaussianBlur stdDeviation="200" result="effect1_foregroundBlur_784_2"/></filter><filter id="S" x="75" y="8853" width="1139" height="1139" filterUnits="userSpaceOnUse" color-interpolation-filters="sRGB"><feFlood flood-opacity="0" result="BackgroundImageFix"/><feBlend in="SourceGraphic" in2="BackgroundImageFix" result="shape"/><feGaussianBlur stdDeviation="200" result="effect1_foregroundBlur_784_2"/></filter><filter id="O" x="-435" y="7294" width="1139" height="1139" filterUnits="userSpaceOnUse" color-interpolation-filters="sRGB"><feFlood flood-opacity="0" result="BackgroundImageFix"/><feBlend in="SourceGraphic" in2="BackgroundImageFix" result="shape"/><feGaussianBlur stdDeviation="200" result="effect1_foregroundBlur_784_2"/></filter></defs></svg>