<svg width="390" height="272" viewBox="0 0 390 272" fill="none" xmlns="http://www.w3.org/2000/svg">
<circle cx="329" cy="48" r="2" stroke="#E32966" stroke-width="3"/>
<circle cx="120" cy="216" r="2" stroke="#E32966" stroke-width="3"/>
<circle cx="110" cy="162" r="2" stroke="#E32966" stroke-width="3"/>
<circle cx="112" cy="148" r="2" stroke="#E32966" stroke-width="3"/>
<circle cx="110" cy="146" r="2" stroke="#E32966" stroke-width="3"/>
<circle cx="116" cy="132" r="2" stroke="#E32966" stroke-width="3"/>
<circle cx="216" cy="67" r="2" stroke="#E32966" stroke-width="3"/>
<circle cx="222" cy="113" r="2" stroke="#E32966" stroke-width="3"/>
<circle cx="297" cy="193" r="2" stroke="#E32966" stroke-width="3"/>
<circle cx="262" cy="4" r="2" stroke="#E32966" stroke-width="3"/>
<circle cx="262" cy="152" r="2" stroke="#E32966" stroke-width="3"/>
<circle cx="81" cy="111" r="2" stroke="#E32966" stroke-width="3"/>
<circle cx="57" cy="148" r="2" stroke="#E32966" stroke-width="3"/>
<circle cx="85" cy="218" r="2" stroke="#E32966" stroke-width="3"/>
<circle cx="132" cy="148" r="2" stroke="#E32966" stroke-width="3"/>
<circle cx="262" cy="71" r="2" stroke="#E32966" stroke-width="3"/>
<circle cx="85" cy="268" r="2" stroke="#E32966" stroke-width="3"/>
<circle cx="94" cy="203" r="2" stroke="#E32966" stroke-width="3"/>
<circle cx="77" cy="166" r="2" stroke="#E32966" stroke-width="3"/>
<circle cx="4" cy="147" r="2" stroke="#E32966" stroke-width="3"/>
<circle cx="258" cy="71" r="2" stroke="#E32966" stroke-width="3"/>
<circle cx="234" cy="115" r="2" stroke="#E32966" stroke-width="3"/>
<circle cx="220" cy="138" r="2" stroke="#E32966" stroke-width="3"/>
<circle cx="325" cy="61" r="2" stroke="#E32966" stroke-width="3"/>
<circle cx="386" cy="155" r="2" stroke="#E32966" stroke-width="3"/>
<circle cx="116" cy="111" r="2" stroke="#E32966" stroke-width="3"/>
</svg>
