<svg width="12" height="12" viewBox="0 0 12 12" fill="none" xmlns="http://www.w3.org/2000/svg">
<path d="M10.0662 11.4326H2.38925C1.37764 11.4326 0.554688 10.6097 0.554688 9.59807V6.88535C0.554688 5.87373 1.37767 5.05078 2.38925 5.05078H10.0662C11.0778 5.05078 11.9009 5.87376 11.9009 6.88535V9.59807C11.9008 10.6097 11.0778 11.4326 10.0662 11.4326ZM2.38925 5.99625C1.89902 5.99625 1.50019 6.39511 1.50019 6.88531V9.59804C1.50019 10.0883 1.89905 10.4871 2.38925 10.4871H10.0662C10.5565 10.4871 10.9554 10.0882 10.9554 9.59804V6.88531C10.9554 6.39508 10.5565 5.99625 10.0662 5.99625H2.38925Z" fill="#11141E"/>
<path d="M3.84951 4.387V3.02399C3.84951 2.92395 3.83548 2.84602 3.79381 2.71513L3.11914 0.446745H3.97445C3.97445 0.446745 4.30075 1.91106 4.37705 1.91106C4.45211 1.91106 4.77256 0.445312 4.77256 0.445312L5.60149 0.446582L4.89882 2.70472C4.87366 2.79283 4.84336 2.96171 4.84336 3.03512V4.387H3.84948H3.84951Z" fill="#11141E"/>
<path d="M6.4651 4.44596C5.92754 4.44596 5.56641 4.1206 5.56641 3.63636V2.02666C5.56641 1.54577 5.9276 1.22266 6.4651 1.22266C7.0111 1.22266 7.3638 1.54919 7.3638 2.05456V3.63636C7.3638 4.1206 7.00267 4.44596 6.4651 4.44596ZM6.4651 1.99528C6.37633 1.99528 6.31676 2.06383 6.31676 2.16595V3.4915C6.31676 3.61735 6.39339 3.66217 6.4651 3.66217C6.53681 3.66217 6.61344 3.61735 6.61344 3.4915V2.16595C6.61344 2.06706 6.55107 1.99528 6.4651 1.99528Z" fill="#11141E"/>
<path d="M8.72002 4.44596L8.61875 4.29075C8.60687 4.27255 8.58112 4.27066 8.56699 4.28717C8.51862 4.34352 8.39515 4.44596 8.13613 4.44596C7.94339 4.44596 7.67188 4.2846 7.67188 3.92597V1.22266H8.34424V3.33561C8.34424 3.45286 8.42116 3.50628 8.49258 3.50628C8.56103 3.50628 8.64092 3.46155 8.64092 3.33561V1.22266H9.33557V4.44596H8.72002Z" fill="#11141E"/>
<path d="M3.14772 9.98144V7.38903L3.14544 7.31872H2.53516L2.53545 6.57422H4.48766L4.48518 7.31872H3.87083L3.87278 7.3987V9.98144H3.14772Z" fill="#11141E"/>
<path d="M5.74587 10.0391L5.66087 9.91439C5.64753 9.89485 5.6194 9.89388 5.60472 9.91237C5.56455 9.96276 5.4651 10.0391 5.23148 10.0391C5.06644 10.0391 4.83398 9.90068 4.83398 9.59297V7.24219H5.40547V9.0779C5.40547 9.18541 5.47646 9.23434 5.54241 9.23434C5.61064 9.23434 5.67943 9.18597 5.67943 9.0779V7.24219H6.27031V10.0391H5.74587Z" fill="#11141E"/>
<path d="M7.61116 10.04C7.38359 10.04 7.33109 9.96695 7.28932 9.93417C7.27845 9.92568 7.26286 9.92698 7.25325 9.93691L7.15342 10.04H6.58203V6.44141H7.18262V7.28109C7.18262 7.34853 7.22086 7.37923 7.25644 7.37923C7.29072 7.37923 7.31113 7.35882 7.34212 7.32783C7.39993 7.27005 7.47457 7.24316 7.57718 7.24316C7.72591 7.24316 8.07187 7.32832 8.07187 8.11683V9.13232C8.07181 9.73463 7.91683 10.04 7.61116 10.04ZM7.23773 9.37278C7.2622 9.40195 7.30273 9.4151 7.33418 9.4151C7.37096 9.4151 7.45657 9.40035 7.45657 9.26354V8.04391C7.45657 7.95328 7.40742 7.89235 7.33418 7.89235C7.24772 7.89235 7.18255 7.9721 7.18255 8.07789V9.23919C7.18258 9.29573 7.20107 9.34059 7.23773 9.37278Z" fill="#11141E"/>
<path d="M9.08909 10.0391C8.61507 10.0391 8.33203 9.71608 8.33203 9.1751V7.97005C8.33203 7.43281 8.75032 7.24219 9.10853 7.24219C9.66204 7.24219 9.91415 7.67744 9.91415 8.08187V8.45732H9.02845L9.02982 8.46087V9.22373C9.02982 9.34622 9.10058 9.38991 9.16683 9.38991C9.2332 9.38991 9.30377 9.33336 9.30377 9.22861V9.00277L9.91953 9.00127L9.90436 9.29176C9.90445 9.90937 9.4611 10.0391 9.08909 10.0391ZM9.16204 7.73099C9.09622 7.73099 9.02985 7.78086 9.02985 7.89225V8.13519C9.02985 8.18125 9.06946 8.21878 9.11826 8.21878C9.23792 8.21878 9.30381 8.21878 9.30381 8.13519C9.30387 7.83288 9.30387 7.73099 9.16204 7.73099Z" fill="#11141E"/>
</svg>
