<svg width="330" height="112" viewBox="0 0 330 112" fill="none" xmlns="http://www.w3.org/2000/svg">
<g opacity="0.3">
<mask id="mask0_1348_1653" style="mask-type:alpha" maskUnits="userSpaceOnUse" x="0" y="0" width="330" height="112">
<rect width="330" height="112" rx="20" fill="white"/>
</mask>
<g mask="url(#mask0_1348_1653)">
<path fill-rule="evenodd" clip-rule="evenodd" d="M410.246 -20.3409C392.927 -12.6201 382.049 7.6524 362.181 5.38546C344.061 3.31802 335.615 -15.2573 333.021 -29.1524C330.751 -41.3096 348.853 -50.4735 349.461 -62.7362C350.187 -77.3574 324.124 -93.5513 336.757 -104.485C349.177 -115.235 372.611 -97.281 391.259 -98.9122C407.773 -100.357 419.811 -115.633 436.143 -113.18C452.933 -110.657 464.747 -98.4164 472.484 -86.7097C480.083 -75.2113 485.053 -61.083 478.358 -49.3058C471.992 -38.1088 453.732 -35.1419 439.799 -29.2167C430.319 -25.1853 419.617 -24.5185 410.246 -20.3409Z" stroke="url(#paint0_linear_1348_1653)"/>
<path fill-rule="evenodd" clip-rule="evenodd" d="M394.632 -4.59214C374.586 4.34446 361.994 27.8095 338.997 25.1856C318.024 22.7926 308.248 1.29195 305.245 -14.7913C302.618 -28.863 323.571 -39.4701 324.275 -53.6639C325.114 -70.5876 294.947 -89.3317 309.57 -101.987C323.946 -114.43 351.07 -93.6488 372.654 -95.537C391.769 -97.2092 405.703 -114.891 424.608 -112.051C444.042 -109.131 457.716 -94.963 466.671 -81.4127C475.467 -68.1036 481.219 -51.7504 473.47 -38.1185C466.102 -25.1582 444.966 -21.7241 428.839 -14.8657C417.866 -10.1994 405.479 -9.42765 394.632 -4.59214Z" stroke="url(#paint1_linear_1348_1653)"/>
<path fill-rule="evenodd" clip-rule="evenodd" d="M379.02 11.1566C356.247 21.3091 341.942 47.9666 315.816 44.9857C291.99 42.2671 280.883 17.8412 277.472 -0.430181C274.487 -16.4164 298.291 -28.4667 299.091 -44.5916C300.044 -63.8179 265.773 -85.1122 282.385 -99.4898C298.717 -113.626 329.532 -90.0166 354.052 -92.1617C375.768 -94.0614 391.598 -114.149 413.074 -110.923C435.152 -107.606 450.687 -91.5096 460.861 -76.1158C470.853 -60.9958 477.388 -42.4177 468.584 -26.9312C460.214 -12.2076 436.203 -8.30619 417.881 -0.514789C405.415 4.78642 391.343 5.66319 379.02 11.1566Z" stroke="url(#paint2_linear_1348_1653)"/>
<path fill-rule="evenodd" clip-rule="evenodd" d="M361.832 28.5685C336.058 40.0584 319.868 70.2278 290.301 66.8541C263.336 63.7774 250.767 36.1337 246.906 15.4553C243.528 -2.63689 270.468 -16.2746 271.373 -34.5238C272.452 -56.2829 233.666 -80.3824 252.466 -96.654C270.95 -112.652 305.824 -85.9329 333.575 -88.3606C358.151 -90.5105 376.067 -113.244 400.372 -109.593C425.358 -105.839 442.94 -87.6226 454.454 -70.2009C465.763 -53.0891 473.158 -32.0635 463.194 -14.5368C453.721 2.12642 426.547 6.54173 405.812 15.3596C391.704 21.3591 375.778 22.3514 361.832 28.5685Z" stroke="url(#paint3_linear_1348_1653)"/>
<path fill-rule="evenodd" clip-rule="evenodd" d="M346.091 45.2117C317.59 57.9175 299.687 91.2794 266.992 87.5488C237.173 84.1465 223.273 53.5776 219.004 30.7109C215.268 10.7042 245.059 -4.37662 246.06 -24.557C247.253 -48.6186 204.363 -75.2684 225.152 -93.2618C245.592 -110.953 284.157 -81.4062 314.844 -84.0908C342.021 -86.4682 361.832 -111.608 388.71 -107.57C416.34 -103.419 435.782 -83.2747 448.514 -64.0094C461.02 -45.0868 469.199 -21.8363 458.18 -2.45496C447.705 15.9716 417.655 20.8541 394.726 30.605C379.125 37.2395 361.513 38.3368 346.091 45.2117Z" stroke="url(#paint4_linear_1348_1653)"/>
<path fill-rule="evenodd" clip-rule="evenodd" d="M330.479 60.9605C299.251 74.8821 279.635 111.437 243.811 107.349C211.139 103.621 195.909 70.1269 191.231 45.072C187.138 23.1508 219.779 6.62682 220.876 -15.4847C222.183 -41.8488 175.189 -71.0488 197.968 -90.7641C220.363 -110.148 262.619 -77.774 296.242 -80.7155C326.02 -83.3204 347.727 -110.866 377.176 -106.442C407.451 -101.893 428.753 -79.8213 442.704 -58.7124C456.407 -37.9791 465.368 -12.5037 453.295 8.73237C441.817 28.9222 408.892 34.272 383.768 44.956C366.674 52.2253 347.377 53.4276 330.479 60.9605Z" stroke="url(#paint5_linear_1348_1653)"/>
<path fill-rule="evenodd" clip-rule="evenodd" d="M314.865 76.7092C280.909 91.8467 259.58 131.594 220.627 127.149C185.102 123.096 168.541 86.6761 163.455 59.4331C159.004 35.5974 194.497 17.6302 195.689 -6.41237C197.111 -35.079 146.012 -66.8293 170.78 -88.2665C195.132 -109.343 241.078 -74.1418 277.638 -77.3402C310.016 -80.1727 333.619 -110.124 365.64 -105.313C398.559 -100.368 421.722 -76.3679 436.891 -53.4155C451.79 -30.8714 461.534 -3.17103 448.407 19.9197C435.926 41.8729 400.126 47.6898 372.808 59.307C354.221 67.2112 333.238 68.5184 314.865 76.7092Z" stroke="url(#paint6_linear_1348_1653)"/>
<path fill-rule="evenodd" clip-rule="evenodd" d="M299.251 92.4579C262.568 108.811 239.526 151.751 197.444 146.949C159.065 142.57 141.174 103.225 135.679 73.7942C130.871 48.044 169.214 28.6337 170.503 2.65993C172.039 -28.3093 116.835 -62.6097 143.593 -85.7688C169.9 -108.538 219.537 -70.5097 259.034 -73.9649C294.012 -77.0249 319.511 -109.382 354.105 -104.185C389.668 -98.8419 414.69 -72.9146 431.078 -48.1185C447.174 -23.7636 457.7 6.16162 443.519 31.107C430.036 54.8235 391.36 61.1077 361.848 73.6579C341.768 82.197 319.1 83.6093 299.251 92.4579Z" stroke="url(#paint7_linear_1348_1653)"/>
<path fill-rule="evenodd" clip-rule="evenodd" d="M283.639 108.207C244.229 125.776 219.474 171.908 174.263 166.749C133.03 162.045 113.81 119.775 107.906 88.1553C102.741 60.4905 143.935 39.6371 145.319 11.7322C146.969 -21.5395 87.6613 -58.3902 116.408 -83.2711C144.672 -107.734 197.998 -66.8775 240.432 -70.5896C278.011 -73.8771 305.406 -108.639 342.571 -103.056C380.778 -97.3163 407.662 -69.4612 425.268 -42.8216C442.561 -16.6559 453.869 15.4943 438.633 42.2943C424.148 67.7741 382.596 74.5256 350.89 88.0089C329.317 97.1828 304.964 98.7001 283.639 108.207Z" stroke="url(#paint8_linear_1348_1653)"/>
<path fill-rule="evenodd" clip-rule="evenodd" d="M268.025 123.951C225.887 142.737 199.419 192.061 151.079 186.545C106.993 181.515 86.4427 136.32 80.1303 102.512C74.6074 72.9332 118.652 50.6366 120.132 20.8006C121.896 -14.7737 58.4845 -54.1746 89.2209 -80.7774C119.44 -106.933 176.457 -63.2492 221.827 -67.2182C262.008 -70.7333 291.298 -107.901 331.035 -101.932C371.886 -95.7945 400.63 -66.0117 419.455 -37.5286C437.944 -9.55212 450.036 24.823 433.745 53.4777C418.258 80.7208 373.83 87.9395 339.93 102.356C316.864 112.165 290.826 113.787 268.025 123.951Z" stroke="url(#paint9_linear_1348_1653)"/>
<path fill-rule="evenodd" clip-rule="evenodd" d="M252.287 140.599C207.422 160.6 179.24 213.117 127.772 207.244C80.8326 201.888 58.9519 153.768 52.2309 117.772C46.3505 86.2782 93.246 62.5385 94.8216 30.7714C96.7001 -7.10549 29.1841 -49.0566 61.9098 -77.3812C94.0853 -105.23 154.793 -58.7186 203.099 -62.9445C245.88 -66.687 277.067 -106.261 319.376 -99.9046C362.871 -93.3703 393.475 -61.6599 413.518 -31.3332C433.204 -1.54594 446.078 35.0541 428.734 65.5635C412.243 94.5699 364.94 102.256 328.846 117.605C304.287 128.049 276.563 129.776 252.287 140.599Z" stroke="url(#paint10_linear_1348_1653)"/>
<path fill-rule="evenodd" clip-rule="evenodd" d="M236.673 156.347C189.08 177.564 159.185 233.274 104.588 227.044C54.7956 221.363 31.5848 170.317 24.4553 132.133C18.2174 98.7248 67.9637 73.5419 69.635 39.8436C71.6278 -0.335754 0.00738932 -44.8371 34.7226 -74.8836C68.854 -104.425 133.252 -55.0864 184.495 -59.5692C229.876 -63.5393 262.959 -105.519 307.84 -98.7762C353.979 -91.8447 386.444 -58.2065 407.705 -26.0362C428.588 5.56177 442.245 44.3867 423.846 76.7508C406.353 107.521 356.175 115.674 317.886 131.956C291.834 143.035 262.425 144.867 236.673 156.347Z" stroke="url(#paint11_linear_1348_1653)"/>
<path fill-rule="evenodd" clip-rule="evenodd" d="M221.059 172.092C170.739 194.525 139.131 253.427 81.4046 246.84C28.7585 240.833 4.21757 186.863 -3.32053 146.49C-9.91584 111.167 42.6813 84.5415 44.4484 48.9121C46.5553 6.43012 -29.1694 -40.6214 7.53518 -72.3898C43.6225 -103.624 111.711 -51.4581 165.89 -56.1978C213.873 -60.3954 248.851 -104.781 296.304 -97.6516C345.087 -90.3228 379.412 -54.757 401.892 -20.7432C423.972 12.6656 438.411 53.7155 418.958 87.9343C400.463 120.467 347.408 129.088 306.925 146.303C279.381 158.017 248.287 159.954 221.059 172.092Z" stroke="url(#paint12_linear_1348_1653)"/>
<path fill-rule="evenodd" clip-rule="evenodd" d="M205.445 187.841C152.397 211.49 119.076 273.584 58.2211 266.641C2.7216 260.308 -23.1495 203.412 -31.0962 160.851C-38.0489 123.614 17.3989 95.5449 19.2618 57.9843C21.483 13.1999 -58.3461 -36.4019 -19.6521 -69.8921C18.3912 -102.819 90.17 -47.826 147.286 -52.8226C197.869 -57.2476 234.743 -104.038 284.768 -96.5232C336.196 -88.7972 372.381 -51.3037 396.079 -15.4462C419.356 19.7733 434.578 63.0481 414.07 99.1216C394.572 133.418 338.643 142.505 295.965 160.654C266.928 173.003 234.148 175.045 205.445 187.841Z" stroke="url(#paint13_linear_1348_1653)"/>
<path fill-rule="evenodd" clip-rule="evenodd" d="M189.83 203.59C134.056 228.454 99.0212 293.741 35.0376 286.441C-23.3154 279.783 -50.5166 219.961 -58.8718 175.213C-66.1821 136.061 -7.8834 106.548 -5.92475 67.0567C-3.5894 19.9696 -87.5228 -32.1824 -46.8394 -67.3944C-6.84011 -102.014 68.6291 -44.1938 128.682 -49.4472C181.865 -54.0998 220.635 -103.296 273.232 -95.3946C327.304 -87.2715 365.35 -47.8503 390.266 -10.1493C414.74 26.881 430.744 72.3808 409.182 110.309C388.682 146.369 329.877 155.923 285.005 175.005C254.475 187.988 220.01 190.136 189.83 203.59Z" stroke="url(#paint14_linear_1348_1653)"/>
<path fill-rule="evenodd" clip-rule="evenodd" d="M174.092 220.237C115.59 246.317 78.8426 314.797 11.7302 307.139C-49.4762 300.155 -78.0075 237.409 -86.7713 190.472C-94.4391 149.406 -33.2896 118.45 -31.2352 77.0274C-28.7856 27.6378 -116.823 -27.0644 -74.1505 -63.9984C-32.1953 -100.311 46.9643 -39.6632 109.954 -45.1735C165.738 -50.0536 206.403 -101.656 261.573 -93.3678C318.288 -84.8474 358.195 -43.4985 384.33 -3.9539C410 34.8872 426.787 82.6119 404.17 122.395C382.667 160.218 320.987 170.24 273.921 190.255C241.898 203.873 205.747 206.125 174.092 220.237Z" stroke="url(#paint15_linear_1348_1653)"/>
<path fill-rule="evenodd" clip-rule="evenodd" d="M158.481 235.982C97.2511 263.278 58.7904 334.95 -11.4508 326.935C-75.5106 319.626 -105.372 253.954 -114.544 204.829C-122.57 161.848 -58.5694 129.45 -56.4192 86.0958C-53.8554 34.4037 -145.997 -22.8488 -101.335 -61.5046C-57.4241 -99.5103 25.426 -36.0349 91.3519 -41.8022C149.737 -46.9097 192.298 -100.918 250.039 -92.2432C309.399 -83.3256 351.166 -40.049 378.519 1.33914C405.386 41.991 422.956 91.9406 399.285 133.578C376.78 173.164 312.223 183.654 262.963 204.602C229.447 218.855 191.612 221.212 158.481 235.982Z" stroke="url(#paint16_linear_1348_1653)"/>
<path fill-rule="evenodd" clip-rule="evenodd" d="M142.867 251.73C78.9095 280.242 38.7357 355.107 -34.6343 346.736C-101.548 339.101 -132.739 270.503 -142.32 219.19C-150.703 174.295 -83.8517 140.453 -81.6057 95.1681C-78.9278 41.1734 -175.174 -18.6292 -128.522 -59.0069C-82.6554 -98.7055 3.88506 -32.4027 72.7475 -38.4269C133.733 -43.7619 178.19 -100.176 238.503 -91.1147C300.507 -81.7999 344.135 -36.5956 372.706 6.63609C400.77 49.0987 419.122 101.273 394.397 144.765C370.889 186.115 303.457 197.071 252.003 218.953C216.994 233.841 177.473 236.303 142.867 251.73Z" stroke="url(#paint17_linear_1348_1653)"/>
</g>
</g>
<defs>
<linearGradient id="paint0_linear_1348_1653" x1="455.554" y1="14.3921" x2="315.841" y2="-116.97" gradientUnits="userSpaceOnUse">
<stop offset="0.0416667" stop-color="#E32966"/>
<stop offset="0.484375" stop-color="#70358F"/>
<stop offset="0.932292" stop-color="#1B253F"/>
</linearGradient>
<linearGradient id="paint1_linear_1348_1653" x1="447.075" y1="35.6106" x2="285.36" y2="-116.439" gradientUnits="userSpaceOnUse">
<stop offset="0.0416667" stop-color="#E32966"/>
<stop offset="0.484375" stop-color="#70358F"/>
<stop offset="0.932292" stop-color="#1B253F"/>
</linearGradient>
<linearGradient id="paint2_linear_1348_1653" x1="438.598" y1="56.829" x2="254.881" y2="-115.908" gradientUnits="userSpaceOnUse">
<stop offset="0.0416667" stop-color="#E32966"/>
<stop offset="0.484375" stop-color="#70358F"/>
<stop offset="0.932292" stop-color="#1B253F"/>
</linearGradient>
<linearGradient id="paint3_linear_1348_1653" x1="429.258" y1="80.2577" x2="221.339" y2="-115.235" gradientUnits="userSpaceOnUse">
<stop offset="0.0416667" stop-color="#E32966"/>
<stop offset="0.484375" stop-color="#70358F"/>
<stop offset="0.932292" stop-color="#1B253F"/>
</linearGradient>
<linearGradient id="paint4_linear_1348_1653" x1="420.653" y1="102.371" x2="190.731" y2="-113.809" gradientUnits="userSpaceOnUse">
<stop offset="0.0416667" stop-color="#E32966"/>
<stop offset="0.484375" stop-color="#70358F"/>
<stop offset="0.932292" stop-color="#1B253F"/>
</linearGradient>
<linearGradient id="paint5_linear_1348_1653" x1="412.176" y1="123.589" x2="160.253" y2="-113.277" gradientUnits="userSpaceOnUse">
<stop offset="0.0416667" stop-color="#E32966"/>
<stop offset="0.484375" stop-color="#70358F"/>
<stop offset="0.932292" stop-color="#1B253F"/>
</linearGradient>
<linearGradient id="paint6_linear_1348_1653" x1="403.697" y1="144.808" x2="129.772" y2="-112.746" gradientUnits="userSpaceOnUse">
<stop offset="0.0416667" stop-color="#E32966"/>
<stop offset="0.484375" stop-color="#70358F"/>
<stop offset="0.932292" stop-color="#1B253F"/>
</linearGradient>
<linearGradient id="paint7_linear_1348_1653" x1="395.218" y1="166.026" x2="99.2906" y2="-112.214" gradientUnits="userSpaceOnUse">
<stop offset="0.0416667" stop-color="#E32966"/>
<stop offset="0.484375" stop-color="#70358F"/>
<stop offset="0.932292" stop-color="#1B253F"/>
</linearGradient>
<linearGradient id="paint8_linear_1348_1653" x1="386.741" y1="187.245" x2="68.812" y2="-111.683" gradientUnits="userSpaceOnUse">
<stop offset="0.0416667" stop-color="#E32966"/>
<stop offset="0.484375" stop-color="#70358F"/>
<stop offset="0.932292" stop-color="#1B253F"/>
</linearGradient>
<linearGradient id="paint9_linear_1348_1653" x1="378.262" y1="208.459" x2="38.3307" y2="-111.155" gradientUnits="userSpaceOnUse">
<stop offset="0.0416667" stop-color="#E32966"/>
<stop offset="0.484375" stop-color="#70358F"/>
<stop offset="0.932292" stop-color="#1B253F"/>
</linearGradient>
<linearGradient id="paint10_linear_1348_1653" x1="369.659" y1="230.576" x2="7.72589" y2="-109.725" gradientUnits="userSpaceOnUse">
<stop offset="0.0416667" stop-color="#E32966"/>
<stop offset="0.484375" stop-color="#70358F"/>
<stop offset="0.932292" stop-color="#1B253F"/>
</linearGradient>
<linearGradient id="paint11_linear_1348_1653" x1="361.18" y1="251.795" x2="-22.7553" y2="-109.194" gradientUnits="userSpaceOnUse">
<stop offset="0.0416667" stop-color="#E32966"/>
<stop offset="0.484375" stop-color="#70358F"/>
<stop offset="0.932292" stop-color="#1B253F"/>
</linearGradient>
<linearGradient id="paint12_linear_1348_1653" x1="352.701" y1="273.009" x2="-53.2365" y2="-108.666" gradientUnits="userSpaceOnUse">
<stop offset="0.0416667" stop-color="#E32966"/>
<stop offset="0.484375" stop-color="#70358F"/>
<stop offset="0.932292" stop-color="#1B253F"/>
</linearGradient>
<linearGradient id="paint13_linear_1348_1653" x1="344.222" y1="294.228" x2="-83.7176" y2="-108.135" gradientUnits="userSpaceOnUse">
<stop offset="0.0416667" stop-color="#E32966"/>
<stop offset="0.484375" stop-color="#70358F"/>
<stop offset="0.932292" stop-color="#1B253F"/>
</linearGradient>
<linearGradient id="paint14_linear_1348_1653" x1="335.743" y1="315.446" x2="-114.199" y2="-107.603" gradientUnits="userSpaceOnUse">
<stop offset="0.0416667" stop-color="#E32966"/>
<stop offset="0.484375" stop-color="#70358F"/>
<stop offset="0.932292" stop-color="#1B253F"/>
</linearGradient>
<linearGradient id="paint15_linear_1348_1653" x1="327.14" y1="337.563" x2="-144.804" y2="-106.173" gradientUnits="userSpaceOnUse">
<stop offset="0.0416667" stop-color="#E32966"/>
<stop offset="0.484375" stop-color="#70358F"/>
<stop offset="0.932292" stop-color="#1B253F"/>
</linearGradient>
<linearGradient id="paint16_linear_1348_1653" x1="318.663" y1="358.778" x2="-175.282" y2="-105.646" gradientUnits="userSpaceOnUse">
<stop offset="0.0416667" stop-color="#E32966"/>
<stop offset="0.484375" stop-color="#70358F"/>
<stop offset="0.932292" stop-color="#1B253F"/>
</linearGradient>
<linearGradient id="paint17_linear_1348_1653" x1="310.184" y1="379.996" x2="-205.763" y2="-105.114" gradientUnits="userSpaceOnUse">
<stop offset="0.0416667" stop-color="#E32966"/>
<stop offset="0.484375" stop-color="#70358F"/>
<stop offset="0.932292" stop-color="#1B253F"/>
</linearGradient>
</defs>
</svg>
